<svg width="219" height="62" viewBox="0 0 219 62" fill="none" xmlns="http://www.w3.org/2000/svg">
<path d="M33.797 43.5356C29.5726 43.5356 25.3483 43.5213 21.1239 43.55C20.4139 43.55 19.9333 43.3277 19.4672 42.8328C16.5266 39.7129 13.5645 36.6146 10.5953 33.5234C10.1721 33.0859 10 32.6269 10 32.0173C10.0287 29.3636 10.0287 26.7099 10 24.0563C10 23.4395 10.2008 23.0163 10.624 22.5716C13.6147 19.4589 16.5912 16.3176 19.5461 13.169C19.9692 12.7243 20.4067 12.5235 21.0307 12.5235C29.5153 12.5379 37.9998 12.545 46.4916 12.5235C47.3092 12.5235 47.51 12.7817 47.4957 13.5563C47.4527 16.4538 47.4455 19.3585 47.4957 22.2561C47.51 23.1167 47.2303 23.3104 46.4055 23.3104C38.2365 23.2817 30.0747 23.3104 21.9057 23.2673C20.9159 23.2673 20.6649 23.5399 20.6936 24.5009C20.7653 26.9394 20.751 29.3851 20.6936 31.8236C20.6721 32.6628 20.9159 32.8923 21.7622 32.8851C29.8954 32.8564 38.0214 32.8851 46.1545 32.8421C47.2231 32.8421 47.5387 33.0787 47.5029 34.1761C47.4168 36.966 47.4455 39.7631 47.4957 42.5602C47.51 43.3707 47.259 43.5715 46.4701 43.5643C42.2457 43.5285 38.0214 43.55 33.797 43.55V43.5356Z" fill="#737372"/>
<path d="M193.527 27.7427C193.527 26.5737 193.527 25.4118 193.527 24.2427C193.527 20.9866 195.018 19.0215 198.188 18.1608C200.362 17.5727 202.542 17.6157 204.694 18.2469C207.505 19.0788 208.99 21.13 208.997 24.0849C209.004 26.5235 208.997 28.962 208.997 31.4077C208.997 34.7857 207.483 36.7939 204.227 37.6259C201.911 38.214 199.587 38.1638 197.328 37.3246C194.882 36.4209 193.541 34.4701 193.534 31.881C193.534 30.504 193.534 29.1198 193.534 27.7427H193.527Z" fill="#922D27"/>
<path d="M157.996 37.7549C158.914 34.757 159.803 31.8595 160.7 28.9548C161.74 25.5767 162.794 22.2059 163.805 18.8206C163.985 18.211 164.221 17.9672 164.888 17.9887C166.38 18.046 167.872 18.0245 169.364 17.9887C169.909 17.9743 170.16 18.1321 170.332 18.6844C172.19 24.7663 174.062 30.8482 175.969 36.9158C176.213 37.6904 175.977 37.7908 175.295 37.7621C174.09 37.7119 172.685 38.1136 171.731 37.6187C170.791 37.131 170.97 35.5531 170.597 34.4701C170.44 34.0183 170.253 33.8533 169.787 33.8605C168.015 33.882 166.237 33.8892 164.465 33.8605C163.935 33.8533 163.719 34.0398 163.605 34.5418C163.411 35.4025 163.117 36.2416 162.909 37.0951C162.809 37.5326 162.665 37.7693 162.149 37.7549C160.808 37.7191 159.459 37.7406 158.003 37.7406L157.996 37.7549Z" fill="#922D27"/>
<path d="M87.2506 27.8646C87.2506 24.8954 87.2721 21.919 87.2362 18.9497C87.2291 18.2253 87.4012 17.9743 88.1686 17.9886C90.8653 18.0317 93.562 18.0102 96.2659 18.0102C97.1265 18.0102 97.9585 18.1823 98.769 18.4261C100.519 18.964 101.602 20.1116 101.918 21.9333C102.226 23.7622 102.219 25.6126 101.982 27.4271C101.623 30.2099 99.6009 31.7017 96.3448 31.7949C95.0682 31.8308 93.7844 31.8308 92.5077 31.7949C91.9483 31.7806 91.769 31.9742 91.7833 32.5265C91.812 34.0111 91.769 35.4957 91.8049 36.9803C91.8192 37.5828 91.6184 37.7908 91.0159 37.7621C89.811 37.7047 88.2403 38.1637 87.5016 37.5684C86.727 36.9445 87.2793 35.3164 87.2578 34.1258C87.2219 32.0388 87.2506 29.9517 87.2506 27.8646Z" fill="#737372"/>
<path d="M142.189 27.7642C142.189 24.795 142.21 21.8257 142.174 18.8637C142.167 18.1536 142.39 17.9815 143.071 17.9887C145.768 18.0245 148.457 18.003 151.154 18.0102C152.007 18.0102 152.839 18.1752 153.657 18.4262C155.55 18.9928 156.626 20.2694 156.877 22.2202C157.085 23.8339 157.071 25.4692 156.927 27.0829C156.712 29.6362 155.292 31.0993 152.775 31.6013C151.046 31.9456 149.311 31.8021 147.582 31.7949C146.822 31.7949 146.621 32.0173 146.65 32.7488C146.707 34.1976 146.65 35.6464 146.679 37.0951C146.686 37.5828 146.564 37.841 146.033 37.7621C145.961 37.755 145.89 37.7621 145.818 37.7621C144.656 37.7406 143.128 38.1494 142.418 37.5757C141.672 36.966 142.217 35.3953 142.196 34.2406C142.153 32.089 142.182 29.9302 142.182 27.7786L142.189 27.7642Z" fill="#922D27"/>
<path d="M132.894 17.795C134.486 17.7018 136.128 18.0173 137.778 18.2253C138.438 18.3114 138.71 18.5911 138.553 19.2725C138.452 19.7171 138.423 20.1833 138.366 20.6352C138.165 22.2704 138.172 22.2345 136.501 21.9907C134.859 21.7468 133.209 21.4815 131.538 21.7325C130.663 21.8688 130.226 22.3278 130.226 23.2171C130.226 24.1423 130.089 25.1177 131.309 25.4476C132.808 25.8564 134.321 26.215 135.798 26.6884C138.316 27.4917 138.961 28.381 139.09 30.9773C139.105 31.2929 139.09 31.6156 139.09 31.9312C139.09 36.0049 137.921 37.4107 133.84 37.8912C131.215 38.1996 128.612 37.9127 126.095 37.0162C125.542 36.8226 125.27 36.6146 125.492 35.9547C125.715 35.2877 125.844 34.5849 125.944 33.8892C126.03 33.2939 126.26 33.2509 126.805 33.4087C128.684 33.9537 130.606 34.2263 132.571 34.1402C133.876 34.0828 134.407 33.6955 134.536 32.6771C134.751 30.9199 134.472 30.3175 133.123 29.9374C131.696 29.5357 130.233 29.2632 128.82 28.8257C126.676 28.1659 125.872 27.1116 125.772 24.8954C125.715 23.6259 125.636 22.3565 125.93 21.0942C126.274 19.6024 127.192 18.6772 128.619 18.2325C129.989 17.8022 131.402 17.7305 132.901 17.7878L132.894 17.795Z" fill="#922D27"/>
<path d="M71.2353 27.8575C71.2353 26.6884 71.2353 25.5194 71.2353 24.3575C71.2353 20.3626 73.2076 18.1751 77.2096 17.8237C79.3756 17.6372 81.5272 17.8811 83.6717 18.2469C84.1307 18.3257 84.3459 18.5122 84.2383 19.0286C84.0662 19.8247 83.894 20.628 83.851 21.4313C83.808 22.2489 83.4063 22.3278 82.7465 22.2202C81.3838 21.9835 80.0068 21.8401 78.6225 21.8472C76.6502 21.8544 75.933 22.4282 75.8111 24.3503C75.6605 26.7458 75.639 29.1556 75.8254 31.5582C75.9617 33.2939 76.6646 33.882 78.4432 33.9179C79.8633 33.9394 81.2762 33.7744 82.6748 33.5521C83.3561 33.4445 83.8151 33.4804 83.8582 34.3697C83.894 35.173 84.0733 35.9834 84.2455 36.7724C84.3459 37.2385 84.1522 37.4394 83.7434 37.5039C81.1471 37.9056 78.5437 38.257 75.9258 37.7262C72.9996 37.131 71.2783 35.008 71.2568 32.0029C71.2425 30.6259 71.2568 29.2417 71.2568 27.8646L71.2353 27.8575Z" fill="#737372"/>
<path d="M177.963 27.8646C177.963 26.6597 177.963 25.462 177.963 24.2571C177.963 20.2335 180.129 17.9887 184.217 17.8022C186.247 17.7089 188.248 17.9169 190.256 18.2253C190.923 18.3257 191.045 18.6413 190.909 19.2438C190.744 19.9681 190.586 20.6997 190.55 21.4384C190.507 22.256 190.098 22.3349 189.431 22.2202C187.997 21.9763 186.548 21.8185 185.092 21.8472C183.263 21.8903 182.496 22.6146 182.467 24.4435C182.424 26.7386 182.424 29.0408 182.467 31.3431C182.503 33.1576 183.285 33.882 185.114 33.9179C186.57 33.9466 188.018 33.7888 189.453 33.5377C190.149 33.4158 190.5 33.5664 190.55 34.3482C190.6 35.1228 190.78 35.883 190.923 36.6504C191.009 37.0951 190.952 37.4178 190.428 37.4967C187.66 37.9055 184.884 38.3717 182.109 37.5685C179.39 36.7795 177.985 34.9076 177.963 32.1177C177.949 30.7048 177.963 29.2847 177.963 27.8718V27.8646Z" fill="#922D27"/>
<path d="M104.729 27.8073C104.729 24.838 104.743 21.8616 104.715 18.8924C104.715 18.2182 104.872 17.9385 105.604 17.9958C106.522 18.0604 107.454 18.0676 108.372 17.9958C109.168 17.9385 109.298 18.2684 109.29 18.9712C109.262 23.5327 109.305 28.0941 109.255 32.6628C109.247 33.5665 109.52 33.7816 110.388 33.7601C112.374 33.6955 114.361 33.7601 116.348 33.7242C116.986 33.7099 117.244 33.882 117.201 34.549C117.13 35.5675 117.517 36.88 117.008 37.5254C116.462 38.214 115.085 37.7334 114.074 37.7478C111.27 37.7836 108.466 37.7334 105.661 37.7765C104.915 37.7908 104.7 37.5757 104.707 36.8298C104.75 33.8246 104.722 30.8195 104.722 27.8073H104.729Z" fill="#737372"/>
<path d="M37.2109 5C40.2303 5 43.2426 5 46.2621 5C46.9147 5 47.5387 5.00717 47.467 5.89651C47.4024 6.65675 47.8901 7.67519 46.4916 7.84732C45.76 7.93338 45.0428 8.18441 44.3471 8.4426C43.2498 8.84424 42.4824 9.61165 42.1812 10.752C42.0234 11.3545 41.7508 11.6055 41.0838 11.5912C38.4588 11.5553 35.8339 11.5768 33.2017 11.5768C32.7857 11.5768 32.3482 11.6629 32.2048 11.0604C31.7745 9.23153 30.4118 8.44977 28.7263 8.04097C28.5183 7.99076 28.3103 7.94056 28.1095 7.89035C26.9835 7.63216 26.3954 6.37704 26.9189 5.36578C27.1556 4.91393 27.5716 5.01434 27.9446 5.00717C31.0357 5 34.1197 5.00717 37.2109 5.00717V5Z" fill="#737372"/>
<path d="M37.1177 51.1022C34.1054 51.1022 31.0931 51.1022 28.0808 51.1022C27.464 51.1022 26.7827 51.1739 26.8544 50.2487C26.9118 49.4598 26.4241 48.3983 27.88 48.2549C28.6403 48.1832 29.4005 47.9321 30.1321 47.6811C31.2437 47.301 32.0112 46.5408 32.2407 45.3645C32.3626 44.7477 32.6208 44.5039 33.295 44.5182C35.8841 44.5613 38.4732 44.5398 41.0552 44.5326C41.4496 44.5326 41.8656 44.4824 41.9517 45.0275C42.2744 47.1289 43.8594 47.7457 45.6381 48.1401C45.8461 48.1832 46.0541 48.2119 46.2621 48.2549C47.3523 48.4701 47.9188 49.718 47.3881 50.7293C47.1299 51.217 46.6709 51.1022 46.2621 51.1022C43.214 51.1022 40.1658 51.1022 37.1177 51.1022Z" fill="#737372"/>
<path d="M67.6349 27.8718C67.6349 30.8769 67.6134 33.882 67.6492 36.8799C67.6564 37.5828 67.4412 37.8051 66.7527 37.7621C65.7988 37.7119 64.8378 37.7262 63.8839 37.7621C63.3531 37.7764 63.1308 37.633 63.138 37.0592C63.1523 30.9486 63.1523 24.8308 63.138 18.7202C63.138 18.1608 63.3245 17.9815 63.8695 18.003C64.8593 18.0388 65.8562 18.0604 66.846 18.003C67.556 17.9599 67.6492 18.2755 67.6492 18.8708C67.6277 21.8759 67.6349 24.881 67.6421 27.8789L67.6349 27.8718Z" fill="#737372"/>
<path d="M54.5459 28.0224C54.5459 23.1813 54.5459 18.3401 54.5459 13.4989C54.5459 13.0399 54.3665 12.4805 55.2129 12.4948C55.9874 12.5092 55.8225 13.0184 55.8225 13.4487C55.8225 23.1669 55.8225 32.8851 55.8225 42.6104C55.8225 43.0408 55.9731 43.5356 55.2057 43.5572C54.3522 43.5787 54.553 43.0049 54.553 42.5531C54.5458 37.7119 54.553 32.8707 54.553 28.0296L54.5459 28.0224Z" fill="#747573"/>
<path d="M204.457 27.9435C204.457 29.1843 204.464 30.4179 204.457 31.6587C204.443 32.8062 203.819 33.5019 202.736 33.7888C201.76 34.047 200.763 34.0541 199.795 33.7888C198.597 33.466 198.045 32.8062 198.031 31.5798C197.995 29.1054 198.002 26.6239 198.031 24.1495C198.045 23.0306 198.619 22.2847 199.716 21.9835C200.727 21.711 201.746 21.711 202.757 21.9763C203.847 22.2632 204.45 22.9733 204.457 24.1136C204.471 25.3903 204.457 26.6597 204.457 27.9363V27.9435Z" fill="white"/>
<path d="M164.817 30.1095C165.555 27.4773 166.265 24.9384 166.976 22.3995C167.399 22.4856 167.298 22.837 167.37 23.0809C167.951 25.1464 168.496 27.2191 169.106 29.2775C169.292 29.9015 169.271 30.1597 168.51 30.1238C167.32 30.0665 166.122 30.1095 164.817 30.1095Z" fill="white"/>
<path d="M91.7618 24.8954C91.8048 23.9845 91.5036 22.7796 91.9698 22.2417C92.5221 21.6178 93.77 22.0911 94.7095 22.0337C95.0968 22.005 95.4913 22.0122 95.8786 22.0337C96.8038 22.0983 97.3919 22.5573 97.521 23.5112C97.5282 23.5829 97.5497 23.6475 97.5569 23.7192C97.729 27.4773 97.5927 27.9937 93.8776 27.9651C91.7977 27.9507 91.7977 27.9651 91.7977 25.8421V24.8882C91.7977 24.8882 91.7762 24.8882 91.7618 24.8882V24.8954Z" fill="white"/>
<path d="M146.671 24.8523C146.772 24.0491 146.234 22.7509 146.887 22.1915C147.446 21.7109 148.708 22.0409 149.662 22.0265C150.085 22.0193 150.516 21.9978 150.939 22.048C151.807 22.1628 152.395 22.6146 152.431 23.547C152.466 24.3933 152.445 25.2396 152.452 26.0859C152.452 27.1402 151.929 27.7068 150.881 27.8646C149.648 28.0511 148.407 27.9292 147.166 27.9722C146.7 27.9865 146.664 27.7068 146.671 27.3554C146.679 26.5808 146.671 25.799 146.671 24.8523Z" fill="white"/>
<path d="M64.0747 42.0621L63.8638 42.6796H65.0386L64.8278 42.0621C64.7608 41.8646 64.6972 41.6755 64.637 41.4948C64.5768 41.3141 64.5182 41.1216 64.4613 40.9174H64.4412C64.3843 41.1216 64.3257 41.3141 64.2655 41.4948C64.2052 41.6755 64.1416 41.8646 64.0747 42.0621ZM63.171 44.01L64.3358 40.7016H64.5667L65.7315 44.01H65.4905L65.1039 42.8754H63.7936L63.402 44.01H63.171ZM67.8228 44.0703C67.6421 44.0703 67.4764 44.0385 67.3258 43.9749C67.1752 43.908 67.0463 43.8293 66.9392 43.7389L67.0697 43.5733C67.1735 43.6603 67.2839 43.7339 67.4011 43.7942C67.5182 43.8511 67.6638 43.8795 67.8379 43.8795C68.0286 43.8795 68.1709 43.8327 68.2646 43.7389C68.3617 43.6419 68.4102 43.5297 68.4102 43.4026C68.4102 43.3289 68.3918 43.2637 68.355 43.2068C68.3215 43.1499 68.2763 43.1013 68.2194 43.0612C68.1625 43.021 68.0989 42.9859 68.0286 42.9557C67.9617 42.9256 67.8931 42.8972 67.8228 42.8704C67.7324 42.8369 67.6404 42.8018 67.5467 42.765C67.4563 42.7281 67.3743 42.6846 67.3007 42.6344C67.227 42.5809 67.1668 42.519 67.1199 42.4487C67.0764 42.375 67.0547 42.2863 67.0547 42.1826C67.0547 42.0956 67.0714 42.0136 67.1049 41.9366C67.1383 41.8563 67.1885 41.7876 67.2555 41.7307C67.3224 41.6705 67.4028 41.6236 67.4965 41.5902C67.5935 41.5567 67.7057 41.54 67.8328 41.54C67.96 41.54 68.0839 41.5634 68.2044 41.6103C68.3282 41.6571 68.4336 41.7174 68.5206 41.791L68.4001 41.9466C68.3198 41.8864 68.2345 41.8362 68.1441 41.796C68.0537 41.7525 67.9466 41.7307 67.8228 41.7307C67.7291 41.7307 67.6488 41.7441 67.5818 41.7709C67.5149 41.7943 67.458 41.8261 67.4111 41.8663C67.3676 41.9065 67.3341 41.9533 67.3107 42.0069C67.2906 42.0604 67.2806 42.114 67.2806 42.1675C67.2806 42.2378 67.2956 42.2981 67.3258 42.3483C67.3592 42.3951 67.4028 42.437 67.4563 42.4738C67.5099 42.5106 67.5701 42.5441 67.637 42.5742C67.7073 42.601 67.7776 42.6277 67.8479 42.6545C67.9416 42.6913 68.0353 42.7281 68.129 42.765C68.2228 42.8018 68.3064 42.847 68.3801 42.9005C68.457 42.9541 68.519 43.021 68.5658 43.1013C68.6127 43.1783 68.6361 43.2754 68.6361 43.3925C68.6361 43.4829 68.6177 43.5699 68.5809 43.6536C68.5474 43.7339 68.4955 43.8059 68.4253 43.8695C68.355 43.9297 68.2696 43.9782 68.1692 44.0151C68.0688 44.0519 67.9533 44.0703 67.8228 44.0703ZM69.9679 44.0703C69.7169 44.0703 69.5328 43.995 69.4157 43.8444C69.2985 43.6938 69.2399 43.4611 69.2399 43.1465V41.6002H69.4608V43.1164C69.4608 43.3741 69.5027 43.5649 69.5864 43.6887C69.6734 43.8092 69.8139 43.8695 70.0081 43.8695C70.152 43.8695 70.2825 43.831 70.3997 43.754C70.5168 43.6737 70.6457 43.5482 70.7862 43.3775V41.6002H71.0071V44.01H70.8214L70.7963 43.6084H70.7862C70.6691 43.749 70.5453 43.8611 70.4147 43.9448C70.2842 44.0284 70.1353 44.0703 69.9679 44.0703ZM72.8762 44.0703C72.7591 44.0703 72.6369 44.0435 72.5098 43.99C72.3859 43.9331 72.2671 43.8578 72.1533 43.764H72.1433L72.1182 44.01H71.9324V40.4003H72.1533V41.4446L72.1433 41.9165C72.2671 41.8128 72.3993 41.7241 72.5399 41.6504C72.6804 41.5768 72.826 41.54 72.9767 41.54C73.298 41.54 73.5389 41.6521 73.6996 41.8763C73.8603 42.0972 73.9406 42.3951 73.9406 42.77C73.9406 42.9742 73.9121 43.1566 73.8552 43.3172C73.7983 43.4779 73.7197 43.6151 73.6193 43.7289C73.5222 43.8393 73.4084 43.9247 73.2779 43.9849C73.1507 44.0418 73.0168 44.0703 72.8762 44.0703ZM72.8662 43.8745C72.9867 43.8745 73.0988 43.8477 73.2026 43.7942C73.3063 43.7406 73.395 43.6653 73.4687 43.5682C73.5423 43.4712 73.5992 43.3557 73.6394 43.2218C73.6829 43.0846 73.7046 42.934 73.7046 42.77C73.7046 42.6227 73.6896 42.4855 73.6594 42.3583C73.6327 42.2311 73.5892 42.1223 73.5289 42.032C73.4687 41.9383 73.39 41.8663 73.2929 41.8161C73.1959 41.7625 73.0787 41.7358 72.9415 41.7358C72.821 41.7358 72.6955 41.7709 72.565 41.8412C72.4344 41.9081 72.2972 42.0052 72.1533 42.1324V43.5632C72.2872 43.677 72.416 43.7573 72.5399 43.8042C72.6637 43.8511 72.7725 43.8745 72.8662 43.8745ZM75.2358 44.0703C75.0551 44.0703 74.8894 44.0385 74.7388 43.9749C74.5882 43.908 74.4593 43.8293 74.3522 43.7389L74.4828 43.5733C74.5865 43.6603 74.697 43.7339 74.8141 43.7942C74.9312 43.8511 75.0768 43.8795 75.2509 43.8795C75.4417 43.8795 75.5839 43.8327 75.6776 43.7389C75.7747 43.6419 75.8232 43.5297 75.8232 43.4026C75.8232 43.3289 75.8048 43.2637 75.768 43.2068C75.7345 43.1499 75.6893 43.1013 75.6324 43.0612C75.5755 43.021 75.5119 42.9859 75.4417 42.9557C75.3747 42.9256 75.3061 42.8972 75.2358 42.8704C75.1455 42.8369 75.0534 42.8018 74.9597 42.765C74.8693 42.7281 74.7873 42.6846 74.7137 42.6344C74.6401 42.5809 74.5798 42.519 74.533 42.4487C74.4894 42.375 74.4677 42.2863 74.4677 42.1826C74.4677 42.0956 74.4844 42.0136 74.5179 41.9366C74.5514 41.8563 74.6016 41.7876 74.6685 41.7307C74.7354 41.6705 74.8158 41.6236 74.9095 41.5902C75.0066 41.5567 75.1187 41.54 75.2459 41.54C75.373 41.54 75.4969 41.5634 75.6174 41.6103C75.7412 41.6571 75.8466 41.7174 75.9337 41.791L75.8132 41.9466C75.7328 41.8864 75.6475 41.8362 75.5571 41.796C75.4668 41.7525 75.3597 41.7307 75.2358 41.7307C75.1421 41.7307 75.0618 41.7441 74.9948 41.7709C74.9279 41.7943 74.871 41.8261 74.8241 41.8663C74.7806 41.9065 74.7472 41.9533 74.7237 42.0069C74.7037 42.0604 74.6936 42.114 74.6936 42.1675C74.6936 42.2378 74.7087 42.2981 74.7388 42.3483C74.7723 42.3951 74.8158 42.437 74.8693 42.4738C74.9229 42.5106 74.9831 42.5441 75.0501 42.5742C75.1204 42.601 75.1906 42.6277 75.2609 42.6545C75.3546 42.6913 75.4484 42.7281 75.5421 42.765C75.6358 42.8018 75.7195 42.847 75.7931 42.9005C75.8701 42.9541 75.932 43.021 75.9789 43.1013C76.0257 43.1783 76.0491 43.2754 76.0491 43.3925C76.0491 43.4829 76.0307 43.5699 75.9939 43.6536C75.9604 43.7339 75.9086 43.8059 75.8383 43.8695C75.768 43.9297 75.6826 43.9782 75.5822 44.0151C75.4818 44.0519 75.3664 44.0703 75.2358 44.0703ZM76.6881 44.01V41.6002H76.909V44.01H76.6881ZM76.8036 41.0178C76.7467 41.0178 76.6982 40.9994 76.658 40.9626C76.6212 40.9258 76.6028 40.8789 76.6028 40.822C76.6028 40.7585 76.6212 40.7099 76.658 40.6765C76.6982 40.6396 76.7467 40.6212 76.8036 40.6212C76.8605 40.6212 76.9073 40.6396 76.9442 40.6765C76.9843 40.7099 77.0044 40.7585 77.0044 40.822C77.0044 40.8789 76.9843 40.9258 76.9442 40.9626C76.9073 40.9994 76.8605 41.0178 76.8036 41.0178ZM78.6336 44.0703C78.329 44.0703 78.0864 43.9632 77.9057 43.749C77.7249 43.5314 77.6345 43.2185 77.6345 42.8101C77.6345 42.616 77.663 42.4403 77.7199 42.283C77.7768 42.1257 77.8538 41.9918 77.9508 41.8814C78.0512 41.7709 78.165 41.6872 78.2922 41.6303C78.4228 41.5701 78.56 41.54 78.7039 41.54C78.8512 41.54 78.9784 41.5667 79.0855 41.6203C79.1959 41.6705 79.3114 41.7425 79.4319 41.8362L79.4218 41.3944V40.4003H79.6427V44.01H79.452L79.4319 43.6988H79.4168C79.3197 43.7958 79.2043 43.8829 79.0704 43.9598C78.9399 44.0335 78.7943 44.0703 78.6336 44.0703ZM78.6637 43.8745C78.7976 43.8745 78.9248 43.841 79.0453 43.7741C79.1691 43.7038 79.2946 43.6051 79.4218 43.4779V42.047C79.2946 41.9332 79.1742 41.8529 79.0604 41.8061C78.9499 41.7592 78.8361 41.7358 78.719 41.7358C78.5985 41.7358 78.4864 41.7642 78.3826 41.8211C78.2788 41.8747 78.1885 41.95 78.1115 42.047C78.0379 42.1408 77.9793 42.2546 77.9358 42.3884C77.8923 42.519 77.8705 42.6595 77.8705 42.8101C77.8705 42.9708 77.8872 43.1164 77.9207 43.2469C77.9575 43.3775 78.0094 43.4896 78.0763 43.5833C78.1433 43.6737 78.2253 43.7456 78.3223 43.7992C78.4228 43.8494 78.5366 43.8745 78.6637 43.8745ZM80.5662 44.01V41.6002H80.7871V44.01H80.5662ZM80.6817 41.0178C80.6248 41.0178 80.5763 40.9994 80.5361 40.9626C80.4993 40.9258 80.4809 40.8789 80.4809 40.822C80.4809 40.7585 80.4993 40.7099 80.5361 40.6765C80.5763 40.6396 80.6248 40.6212 80.6817 40.6212C80.7386 40.6212 80.7854 40.6396 80.8223 40.6765C80.8624 40.7099 80.8825 40.7585 80.8825 40.822C80.8825 40.8789 80.8624 40.9258 80.8223 40.9626C80.7854 40.9994 80.7386 41.0178 80.6817 41.0178ZM82.2406 44.0703C82.1436 44.0703 82.0532 44.0569 81.9695 44.0301C81.8858 44.0033 81.8122 43.9632 81.7486 43.9096C81.685 43.8561 81.6348 43.7875 81.598 43.7038C81.5612 43.6201 81.5428 43.5214 81.5428 43.4076C81.5428 43.1398 81.6666 42.9373 81.9143 42.8001C82.1653 42.6595 82.5603 42.5591 83.0991 42.4989C83.0991 42.4085 83.0924 42.3181 83.079 42.2278C83.0657 42.1341 83.0372 42.0521 82.9937 41.9818C82.9502 41.9081 82.8916 41.8496 82.818 41.8061C82.7443 41.7592 82.6473 41.7358 82.5268 41.7358C82.3661 41.7358 82.2189 41.7676 82.085 41.8312C81.9511 41.8948 81.8423 41.9567 81.7587 42.0169L81.6583 41.8512C81.7018 41.8211 81.7536 41.7876 81.8139 41.7508C81.8775 41.714 81.9478 41.6805 82.0247 41.6504C82.1017 41.6203 82.1854 41.5952 82.2758 41.5751C82.3661 41.5517 82.4599 41.54 82.5569 41.54C82.6975 41.54 82.8163 41.5651 82.9134 41.6153C83.0104 41.6621 83.0891 41.7274 83.1493 41.8111C83.2096 41.8948 83.2531 41.9935 83.2799 42.1073C83.3066 42.2177 83.32 42.3382 83.32 42.4688V44.01H83.1292L83.1092 43.6988H83.0941C82.9703 43.7958 82.8364 43.8829 82.6925 43.9598C82.5519 44.0335 82.4013 44.0703 82.2406 44.0703ZM82.2808 43.8795C82.4214 43.8795 82.5552 43.846 82.6824 43.7791C82.8096 43.7122 82.9485 43.6151 83.0991 43.4879V42.6696C82.8514 42.6997 82.6423 42.7365 82.4716 42.78C82.3009 42.8235 82.1636 42.8754 82.0599 42.9357C81.9561 42.9959 81.8808 43.0645 81.834 43.1415C81.7905 43.2185 81.7687 43.3038 81.7687 43.3975C81.7687 43.4846 81.7821 43.5582 81.8089 43.6184C81.8356 43.6787 81.8725 43.7289 81.9193 43.7691C81.9662 43.8059 82.0197 43.8343 82.08 43.8544C82.1436 43.8711 82.2105 43.8795 82.2808 43.8795ZM84.1796 44.01V41.6002H84.3704L84.3904 42.047H84.4055C84.4858 41.8964 84.5829 41.7743 84.6967 41.6805C84.8138 41.5868 84.9444 41.54 85.0883 41.54C85.1351 41.54 85.177 41.5433 85.2138 41.55C85.2506 41.5567 85.2891 41.5701 85.3293 41.5902L85.2791 41.791C85.2389 41.7743 85.2038 41.7642 85.1736 41.7609C85.1435 41.7542 85.105 41.7508 85.0582 41.7508C84.9511 41.7508 84.8373 41.7977 84.7168 41.8914C84.5996 41.9818 84.4942 42.1408 84.4005 42.3683V44.01H84.1796ZM85.859 45.1095C85.7686 45.1095 85.6866 45.0928 85.613 45.0593L85.6632 44.8635C85.69 44.8736 85.7201 44.8819 85.7536 44.8886C85.787 44.8987 85.8222 44.9037 85.859 44.9037C86.0096 44.9037 86.1351 44.8434 86.2355 44.7229C86.3359 44.6025 86.4163 44.4502 86.4765 44.2661L86.5418 44.0552L85.5528 41.6002H85.7937L86.3761 43.1164C86.4129 43.2168 86.4531 43.3273 86.4966 43.4477C86.5435 43.5682 86.5903 43.682 86.6372 43.7891H86.6573C86.6941 43.682 86.7309 43.5682 86.7677 43.4477C86.8079 43.3273 86.8447 43.2168 86.8782 43.1164L87.3953 41.6002H87.6212L86.6673 44.3113C86.6338 44.4117 86.592 44.5104 86.5418 44.6075C86.4949 44.7045 86.438 44.7899 86.3711 44.8635C86.3075 44.9372 86.2322 44.9957 86.1452 45.0392C86.0615 45.0861 85.9661 45.1095 85.859 45.1095ZM90.0247 44.0703C89.8808 44.0703 89.7435 44.0418 89.613 43.9849C89.4825 43.928 89.367 43.846 89.2666 43.7389C89.1695 43.6318 89.0909 43.5013 89.0306 43.3473C88.9737 43.19 88.9453 43.011 88.9453 42.8101C88.9453 42.6093 88.9737 42.4303 89.0306 42.273C89.0909 42.1123 89.1695 41.9784 89.2666 41.8713C89.367 41.7642 89.4825 41.6822 89.613 41.6253C89.7435 41.5684 89.8808 41.54 90.0247 41.54C90.1686 41.54 90.3058 41.5684 90.4364 41.6253C90.5703 41.6822 90.6857 41.7642 90.7828 41.8713C90.8832 41.9784 90.9618 42.1123 91.0187 42.273C91.079 42.4303 91.1091 42.6093 91.1091 42.8101C91.1091 43.011 91.079 43.19 91.0187 43.3473C90.9618 43.5013 90.8832 43.6318 90.7828 43.7389C90.6857 43.846 90.5703 43.928 90.4364 43.9849C90.3058 44.0418 90.1686 44.0703 90.0247 44.0703ZM90.0247 43.8745C90.1452 43.8745 90.2573 43.8494 90.3611 43.7992C90.4682 43.7456 90.5585 43.672 90.6322 43.5783C90.7092 43.4846 90.7694 43.3724 90.8129 43.2419C90.8564 43.1114 90.8782 42.9675 90.8782 42.8101C90.8782 42.6495 90.8564 42.5039 90.8129 42.3734C90.7694 42.2428 90.7092 42.1307 90.6322 42.037C90.5585 41.9399 90.4682 41.8663 90.3611 41.8161C90.2573 41.7625 90.1452 41.7358 90.0247 41.7358C89.9042 41.7358 89.7921 41.7625 89.6883 41.8161C89.5846 41.8663 89.4942 41.9399 89.4172 42.037C89.3436 42.1307 89.285 42.2428 89.2415 42.3734C89.198 42.5039 89.1762 42.6495 89.1762 42.8101C89.1762 42.9675 89.198 43.1114 89.2415 43.2419C89.285 43.3724 89.3436 43.4846 89.4172 43.5783C89.4942 43.672 89.5846 43.7456 89.6883 43.7992C89.7921 43.8494 89.9042 43.8745 90.0247 43.8745ZM91.868 44.01V41.791H91.5366V41.6203L91.868 41.6002V41.063C91.868 40.822 91.9199 40.6413 92.0236 40.5208C92.1274 40.4003 92.2746 40.3401 92.4654 40.3401C92.5826 40.3401 92.6997 40.3669 92.8169 40.4204L92.7566 40.6011C92.7064 40.5744 92.6562 40.556 92.606 40.5459C92.5591 40.5359 92.5123 40.5309 92.4654 40.5309C92.3382 40.5309 92.2429 40.5777 92.1793 40.6714C92.119 40.7651 92.0889 40.9007 92.0889 41.0781V41.6002H92.6462V41.791H92.0889V44.01H91.868ZM94.1819 44.01V40.7016H94.4128V44.01H94.1819ZM95.3629 44.01V41.6002H95.5536L95.5737 42.047H95.5888C95.6691 41.8964 95.7662 41.7743 95.88 41.6805C95.9971 41.5868 96.1276 41.54 96.2716 41.54C96.3184 41.54 96.3603 41.5433 96.3971 41.55C96.4339 41.5567 96.4724 41.5701 96.5125 41.5902L96.4623 41.791C96.4222 41.7743 96.387 41.7642 96.3569 41.7609C96.3268 41.7542 96.2883 41.7508 96.2414 41.7508C96.1343 41.7508 96.0205 41.7977 95.9 41.8914C95.7829 41.9818 95.6775 42.1408 95.5838 42.3683V44.01H95.3629ZM97.7858 44.0703C97.6419 44.0703 97.5047 44.0418 97.3741 43.9849C97.2436 43.928 97.1281 43.846 97.0277 43.7389C96.9307 43.6318 96.852 43.5013 96.7918 43.3473C96.7349 43.19 96.7064 43.011 96.7064 42.8101C96.7064 42.6093 96.7349 42.4303 96.7918 42.273C96.852 42.1123 96.9307 41.9784 97.0277 41.8713C97.1281 41.7642 97.2436 41.6822 97.3741 41.6253C97.5047 41.5684 97.6419 41.54 97.7858 41.54C97.9297 41.54 98.067 41.5684 98.1975 41.6253C98.3314 41.6822 98.4468 41.7642 98.5439 41.8713C98.6443 41.9784 98.723 42.1123 98.7799 42.273C98.8401 42.4303 98.8702 42.6093 98.8702 42.8101C98.8702 43.011 98.8401 43.19 98.7799 43.3473C98.723 43.5013 98.6443 43.6318 98.5439 43.7389C98.4468 43.846 98.3314 43.928 98.1975 43.9849C98.067 44.0418 97.9297 44.0703 97.7858 44.0703ZM97.7858 43.8745C97.9063 43.8745 98.0184 43.8494 98.1222 43.7992C98.2293 43.7456 98.3197 43.672 98.3933 43.5783C98.4703 43.4846 98.5305 43.3724 98.574 43.2419C98.6175 43.1114 98.6393 42.9675 98.6393 42.8101C98.6393 42.6495 98.6175 42.5039 98.574 42.3734C98.5305 42.2428 98.4703 42.1307 98.3933 42.037C98.3197 41.9399 98.2293 41.8663 98.1222 41.8161C98.0184 41.7625 97.9063 41.7358 97.7858 41.7358C97.6653 41.7358 97.5532 41.7625 97.4495 41.8161C97.3457 41.8663 97.2553 41.9399 97.1783 42.037C97.1047 42.1307 97.0461 42.2428 97.0026 42.3734C96.9591 42.5039 96.9374 42.6495 96.9374 42.8101C96.9374 42.9675 96.9591 43.1114 97.0026 43.2419C97.0461 43.3724 97.1047 43.4846 97.1783 43.5783C97.2553 43.672 97.3457 43.7456 97.4495 43.7992C97.5532 43.8494 97.6653 43.8745 97.7858 43.8745ZM99.594 44.01V41.6002H99.7847L99.8048 41.9717H99.8199C99.9437 41.8479 100.071 41.7458 100.201 41.6655C100.332 41.5818 100.481 41.54 100.648 41.54C100.899 41.54 101.083 41.6153 101.201 41.7659C101.318 41.9165 101.376 42.1491 101.376 42.4637V44.01H101.155V42.4939C101.155 42.2361 101.112 42.047 101.025 41.9265C100.941 41.8027 100.801 41.7408 100.603 41.7408C100.459 41.7408 100.329 41.7793 100.211 41.8563C100.094 41.9299 99.9621 42.042 99.8149 42.1926V44.01H99.594ZM104.471 44.0703C104.267 44.0703 104.079 44.0301 103.909 43.9498C103.738 43.8695 103.591 43.7557 103.467 43.6084C103.346 43.4578 103.253 43.2771 103.186 43.0662C103.119 42.852 103.085 42.6127 103.085 42.3483C103.085 42.0872 103.119 41.8512 103.186 41.6404C103.256 41.4295 103.353 41.2505 103.477 41.1032C103.601 40.9526 103.748 40.8388 103.919 40.7618C104.093 40.6815 104.285 40.6413 104.496 40.6413C104.69 40.6413 104.861 40.6815 105.008 40.7618C105.155 40.8421 105.273 40.9342 105.36 41.0379L105.224 41.1936C105.134 41.0898 105.028 41.0078 104.908 40.9476C104.787 40.884 104.652 40.8522 104.501 40.8522C104.32 40.8522 104.156 40.8873 104.009 40.9576C103.865 41.0279 103.741 41.1283 103.638 41.2588C103.537 41.386 103.46 41.5416 103.407 41.7257C103.353 41.9098 103.326 42.1173 103.326 42.3483C103.326 42.5792 103.353 42.7884 103.407 42.9758C103.46 43.1599 103.537 43.3172 103.638 43.4477C103.738 43.5783 103.858 43.6804 103.999 43.754C104.143 43.8243 104.304 43.8594 104.481 43.8594C104.652 43.8594 104.804 43.826 104.938 43.759C105.072 43.6887 105.199 43.5866 105.319 43.4528L105.455 43.5984C105.328 43.7456 105.186 43.8611 105.028 43.9448C104.871 44.0284 104.685 44.0703 104.471 44.0703ZM106.632 44.0703C106.535 44.0703 106.445 44.0569 106.361 44.0301C106.277 44.0033 106.204 43.9632 106.14 43.9096C106.076 43.8561 106.026 43.7875 105.989 43.7038C105.953 43.6201 105.934 43.5214 105.934 43.4076C105.934 43.1398 106.058 42.9373 106.306 42.8001C106.557 42.6595 106.952 42.5591 107.491 42.4989C107.491 42.4085 107.484 42.3181 107.47 42.2278C107.457 42.1341 107.429 42.0521 107.385 41.9818C107.342 41.9081 107.283 41.8496 107.209 41.8061C107.136 41.7592 107.039 41.7358 106.918 41.7358C106.758 41.7358 106.61 41.7676 106.476 41.8312C106.343 41.8948 106.234 41.9567 106.15 42.0169L106.05 41.8512C106.093 41.8211 106.145 41.7876 106.205 41.7508C106.269 41.714 106.339 41.6805 106.416 41.6504C106.493 41.6203 106.577 41.5952 106.667 41.5751C106.758 41.5517 106.851 41.54 106.948 41.54C107.089 41.54 107.208 41.5651 107.305 41.6153C107.402 41.6621 107.48 41.7274 107.541 41.8111C107.601 41.8948 107.644 41.9935 107.671 42.1073C107.698 42.2177 107.711 42.3382 107.711 42.4688V44.01H107.521L107.501 43.6988H107.486C107.362 43.7958 107.228 43.8829 107.084 43.9598C106.943 44.0335 106.793 44.0703 106.632 44.0703ZM106.672 43.8795C106.813 43.8795 106.947 43.846 107.074 43.7791C107.201 43.7122 107.34 43.6151 107.491 43.4879V42.6696C107.243 42.6997 107.034 42.7365 106.863 42.78C106.692 42.8235 106.555 42.8754 106.451 42.9357C106.348 42.9959 106.272 43.0645 106.225 43.1415C106.182 43.2185 106.16 43.3038 106.16 43.3975C106.16 43.4846 106.173 43.5582 106.2 43.6184C106.227 43.6787 106.264 43.7289 106.311 43.7691C106.358 43.8059 106.411 43.8343 106.471 43.8544C106.535 43.8711 106.602 43.8795 106.672 43.8795ZM108.571 45.0995V41.6002H108.762L108.782 41.9014H108.797C108.914 41.8077 109.041 41.7241 109.178 41.6504C109.319 41.5768 109.465 41.54 109.615 41.54C109.937 41.54 110.178 41.6521 110.338 41.8763C110.499 42.0972 110.579 42.3951 110.579 42.77C110.579 42.9742 110.551 43.1566 110.494 43.3172C110.437 43.4779 110.358 43.6151 110.258 43.7289C110.161 43.8393 110.047 43.9247 109.916 43.9849C109.789 44.0418 109.655 44.0703 109.515 44.0703C109.401 44.0703 109.284 44.0452 109.163 43.995C109.043 43.9414 108.919 43.8678 108.792 43.7741V45.0995H108.571ZM109.505 43.8745C109.625 43.8745 109.737 43.8477 109.841 43.7942C109.945 43.7406 110.034 43.6653 110.107 43.5682C110.181 43.4712 110.238 43.3557 110.278 43.2218C110.321 43.0846 110.343 42.934 110.343 42.77C110.343 42.6227 110.328 42.4855 110.298 42.3583C110.271 42.2311 110.228 42.1223 110.167 42.032C110.107 41.9383 110.029 41.8663 109.932 41.8161C109.834 41.7625 109.717 41.7358 109.58 41.7358C109.46 41.7358 109.334 41.7709 109.204 41.8412C109.076 41.9081 108.939 42.0052 108.792 42.1324V43.5632C108.932 43.677 109.063 43.7573 109.183 43.8042C109.304 43.8511 109.411 43.8745 109.505 43.8745ZM111.302 44.01V41.6002H111.523V44.01H111.302ZM111.417 41.0178C111.36 41.0178 111.312 40.9994 111.272 40.9626C111.235 40.9258 111.217 40.8789 111.217 40.822C111.217 40.7585 111.235 40.7099 111.272 40.6765C111.312 40.6396 111.36 40.6212 111.417 40.6212C111.474 40.6212 111.521 40.6396 111.558 40.6765C111.598 40.7099 111.618 40.7585 111.618 40.822C111.618 40.8789 111.598 40.9258 111.558 40.9626C111.521 40.9994 111.474 41.0178 111.417 41.0178ZM113.107 44.0703C112.99 44.0703 112.893 44.0519 112.816 44.0151C112.739 43.9816 112.677 43.9331 112.63 43.8695C112.583 43.8059 112.55 43.7289 112.529 43.6385C112.513 43.5482 112.504 43.4494 112.504 43.3423V41.791H112.128V41.6203L112.509 41.6002L112.539 40.9024H112.73V41.6002H113.428V41.791H112.73V43.3624C112.73 43.4394 112.735 43.5097 112.745 43.5733C112.759 43.6335 112.78 43.6871 112.811 43.7339C112.841 43.7774 112.881 43.8126 112.931 43.8393C112.985 43.8628 113.053 43.8745 113.137 43.8745C113.184 43.8745 113.234 43.8678 113.288 43.8544C113.344 43.8377 113.395 43.8193 113.438 43.7992L113.498 43.9799C113.428 44.0067 113.358 44.0284 113.288 44.0452C113.217 44.0619 113.157 44.0703 113.107 44.0703ZM114.427 44.0703C114.33 44.0703 114.24 44.0569 114.156 44.0301C114.073 44.0033 113.999 43.9632 113.935 43.9096C113.872 43.8561 113.822 43.7875 113.785 43.7038C113.748 43.6201 113.73 43.5214 113.73 43.4076C113.73 43.1398 113.853 42.9373 114.101 42.8001C114.352 42.6595 114.747 42.5591 115.286 42.4989C115.286 42.4085 115.279 42.3181 115.266 42.2278C115.253 42.1341 115.224 42.0521 115.181 41.9818C115.137 41.9081 115.078 41.8496 115.005 41.8061C114.931 41.7592 114.834 41.7358 114.714 41.7358C114.553 41.7358 114.406 41.7676 114.272 41.8312C114.138 41.8948 114.029 41.9567 113.946 42.0169L113.845 41.8512C113.889 41.8211 113.94 41.7876 114.001 41.7508C114.064 41.714 114.135 41.6805 114.212 41.6504C114.289 41.6203 114.372 41.5952 114.463 41.5751C114.553 41.5517 114.647 41.54 114.744 41.54C114.884 41.54 115.003 41.5651 115.1 41.6153C115.197 41.6621 115.276 41.7274 115.336 41.8111C115.396 41.8948 115.44 41.9935 115.467 42.1073C115.493 42.2177 115.507 42.3382 115.507 42.4688V44.01H115.316L115.296 43.6988H115.281C115.157 43.7958 115.023 43.8829 114.879 43.9598C114.739 44.0335 114.588 44.0703 114.427 44.0703ZM114.468 43.8795C114.608 43.8795 114.742 43.846 114.869 43.7791C114.996 43.7122 115.135 43.6151 115.286 43.4879V42.6696C115.038 42.6997 114.829 42.7365 114.658 42.78C114.488 42.8235 114.351 42.8754 114.247 42.9357C114.143 42.9959 114.068 43.0645 114.021 43.1415C113.977 43.2185 113.956 43.3038 113.956 43.3975C113.956 43.4846 113.969 43.5582 113.996 43.6184C114.022 43.6787 114.059 43.7289 114.106 43.7691C114.153 43.8059 114.207 43.8343 114.267 43.8544C114.33 43.8711 114.397 43.8795 114.468 43.8795ZM116.663 44.0703C116.465 44.0703 116.366 43.9431 116.366 43.6887V40.4003H116.587V43.7189C116.587 43.7724 116.597 43.8126 116.617 43.8393C116.638 43.8628 116.663 43.8745 116.693 43.8745C116.703 43.8745 116.713 43.8745 116.723 43.8745C116.736 43.8745 116.756 43.8711 116.783 43.8644L116.823 44.0452C116.8 44.0519 116.776 44.0569 116.753 44.0602C116.73 44.0669 116.699 44.0703 116.663 44.0703ZM118.588 44.01V40.7016H119.421C119.609 40.7016 119.776 40.7183 119.923 40.7518C120.074 40.7819 120.2 40.8338 120.3 40.9074C120.404 40.981 120.482 41.0764 120.536 41.1936C120.593 41.3107 120.621 41.4546 120.621 41.6253C120.621 41.95 120.518 42.1926 120.31 42.3533C120.102 42.5106 119.813 42.5892 119.441 42.5892H118.819V44.01H118.588ZM118.819 42.3935H119.386C119.724 42.3935 119.975 42.3332 120.139 42.2127C120.303 42.0922 120.385 41.8964 120.385 41.6253C120.385 41.3475 120.3 41.1567 120.129 41.053C119.962 40.9492 119.708 40.8974 119.366 40.8974H118.819V42.3935ZM121.605 44.0703C121.508 44.0703 121.418 44.0569 121.334 44.0301C121.25 44.0033 121.177 43.9632 121.113 43.9096C121.05 43.8561 120.999 43.7875 120.963 43.7038C120.926 43.6201 120.907 43.5214 120.907 43.4076C120.907 43.1398 121.031 42.9373 121.279 42.8001C121.53 42.6595 121.925 42.5591 122.464 42.4989C122.464 42.4085 122.457 42.3181 122.444 42.2278C122.43 42.1341 122.402 42.0521 122.358 41.9818C122.315 41.9081 122.256 41.8496 122.183 41.8061C122.109 41.7592 122.012 41.7358 121.891 41.7358C121.731 41.7358 121.583 41.7676 121.45 41.8312C121.316 41.8948 121.207 41.9567 121.123 42.0169L121.023 41.8512C121.066 41.8211 121.118 41.7876 121.178 41.7508C121.242 41.714 121.312 41.6805 121.389 41.6504C121.466 41.6203 121.55 41.5952 121.64 41.5751C121.731 41.5517 121.824 41.54 121.921 41.54C122.062 41.54 122.181 41.5651 122.278 41.6153C122.375 41.6621 122.454 41.7274 122.514 41.8111C122.574 41.8948 122.618 41.9935 122.644 42.1073C122.671 42.2177 122.685 42.3382 122.685 42.4688V44.01H122.494L122.474 43.6988H122.459C122.335 43.7958 122.201 43.8829 122.057 43.9598C121.916 44.0335 121.766 44.0703 121.605 44.0703ZM121.645 43.8795C121.786 43.8795 121.92 43.846 122.047 43.7791C122.174 43.7122 122.313 43.6151 122.464 43.4879V42.6696C122.216 42.6997 122.007 42.7365 121.836 42.78C121.665 42.8235 121.528 42.8754 121.424 42.9357C121.321 42.9959 121.245 43.0645 121.199 43.1415C121.155 43.2185 121.133 43.3038 121.133 43.3975C121.133 43.4846 121.147 43.5582 121.173 43.6184C121.2 43.6787 121.237 43.7289 121.284 43.7691C121.331 43.8059 121.384 43.8343 121.445 43.8544C121.508 43.8711 121.575 43.8795 121.645 43.8795ZM123.544 44.01V41.6002H123.735L123.755 42.047H123.77C123.85 41.8964 123.947 41.7743 124.061 41.6805C124.178 41.5868 124.309 41.54 124.453 41.54C124.5 41.54 124.542 41.5433 124.578 41.55C124.615 41.5567 124.654 41.5701 124.694 41.5902L124.644 41.791C124.603 41.7743 124.568 41.7642 124.538 41.7609C124.508 41.7542 124.47 41.7508 124.423 41.7508C124.316 41.7508 124.202 41.7977 124.081 41.8914C123.964 41.9818 123.859 42.1408 123.765 42.3683V44.01H123.544ZM125.795 44.0703C125.678 44.0703 125.581 44.0519 125.504 44.0151C125.427 43.9816 125.365 43.9331 125.318 43.8695C125.271 43.8059 125.238 43.7289 125.218 43.6385C125.201 43.5482 125.193 43.4494 125.193 43.3423V41.791H124.816V41.6203L125.198 41.6002L125.228 40.9024H125.419V41.6002H126.117V41.791H125.419V43.3624C125.419 43.4394 125.424 43.5097 125.434 43.5733C125.447 43.6335 125.469 43.6871 125.499 43.7339C125.529 43.7774 125.569 43.8126 125.62 43.8393C125.673 43.8628 125.742 43.8745 125.825 43.8745C125.872 43.8745 125.922 43.8678 125.976 43.8544C126.033 43.8377 126.083 43.8193 126.127 43.7992L126.187 43.9799C126.117 44.0067 126.046 44.0284 125.976 44.0452C125.906 44.0619 125.845 44.0703 125.795 44.0703ZM126.702 44.01V41.6002H126.892L126.912 41.9717H126.927C127.051 41.8479 127.178 41.7458 127.309 41.6655C127.44 41.5818 127.588 41.54 127.756 41.54C128.007 41.54 128.191 41.6153 128.308 41.7659C128.425 41.9165 128.484 42.1491 128.484 42.4637V44.01H128.263V42.4939C128.263 42.2361 128.219 42.047 128.132 41.9265C128.049 41.8027 127.908 41.7408 127.711 41.7408C127.567 41.7408 127.436 41.7793 127.319 41.8563C127.202 41.9299 127.07 42.042 126.922 42.1926V44.01H126.702ZM130.287 44.0703C130.133 44.0703 129.988 44.0418 129.851 43.9849C129.717 43.928 129.599 43.846 129.499 43.7389C129.399 43.6285 129.318 43.4963 129.258 43.3423C129.201 43.185 129.173 43.0076 129.173 42.8101C129.173 42.6127 129.201 42.4353 129.258 42.278C129.318 42.1207 129.397 41.9885 129.494 41.8814C129.594 41.7709 129.707 41.6872 129.83 41.6303C129.958 41.5701 130.088 41.54 130.222 41.54C130.51 41.54 130.736 41.637 130.9 41.8312C131.064 42.0253 131.146 42.2997 131.146 42.6545C131.146 42.6846 131.146 42.7148 131.146 42.7449C131.146 42.775 131.142 42.8051 131.136 42.8353H129.399C129.402 42.9859 129.425 43.1264 129.469 43.257C129.512 43.3842 129.573 43.4946 129.65 43.5883C129.73 43.6787 129.825 43.7506 129.936 43.8042C130.046 43.8544 130.17 43.8795 130.307 43.8795C130.438 43.8795 130.555 43.8611 130.659 43.8243C130.766 43.7841 130.865 43.7306 130.955 43.6636L131.045 43.8343C130.948 43.8912 130.841 43.9448 130.724 43.995C130.61 44.0452 130.465 44.0703 130.287 44.0703ZM129.399 42.6545H130.935C130.935 42.3432 130.871 42.1123 130.744 41.9617C130.617 41.8077 130.445 41.7307 130.227 41.7307C130.123 41.7307 130.025 41.7525 129.931 41.796C129.837 41.8362 129.752 41.8964 129.675 41.9768C129.601 42.0571 129.539 42.1541 129.489 42.2679C129.442 42.3817 129.412 42.5106 129.399 42.6545ZM131.8 44.01V41.6002H131.991L132.011 42.047H132.026C132.107 41.8964 132.204 41.7743 132.318 41.6805C132.435 41.5868 132.565 41.54 132.709 41.54C132.756 41.54 132.798 41.5433 132.835 41.55C132.871 41.5567 132.91 41.5701 132.95 41.5902L132.9 41.791C132.86 41.7743 132.825 41.7642 132.794 41.7609C132.764 41.7542 132.726 41.7508 132.679 41.7508C132.572 41.7508 132.458 41.7977 132.338 41.8914C132.22 41.9818 132.115 42.1408 132.021 42.3683V44.01H131.8ZM133.976 44.0703C133.795 44.0703 133.63 44.0385 133.479 43.9749C133.329 43.908 133.2 43.8293 133.093 43.7389L133.223 43.5733C133.327 43.6603 133.437 43.7339 133.554 43.7942C133.672 43.8511 133.817 43.8795 133.991 43.8795C134.182 43.8795 134.324 43.8327 134.418 43.7389C134.515 43.6419 134.564 43.5297 134.564 43.4026C134.564 43.3289 134.545 43.2637 134.508 43.2068C134.475 43.1499 134.43 43.1013 134.373 43.0612C134.316 43.021 134.252 42.9859 134.182 42.9557C134.115 42.9256 134.047 42.8972 133.976 42.8704C133.886 42.8369 133.794 42.8018 133.7 42.765C133.61 42.7281 133.528 42.6846 133.454 42.6344C133.38 42.5809 133.32 42.519 133.273 42.4487C133.23 42.375 133.208 42.2863 133.208 42.1826C133.208 42.0956 133.225 42.0136 133.258 41.9366C133.292 41.8563 133.342 41.7876 133.409 41.7307C133.476 41.6705 133.556 41.6236 133.65 41.5902C133.747 41.5567 133.859 41.54 133.986 41.54C134.113 41.54 134.237 41.5634 134.358 41.6103C134.482 41.6571 134.587 41.7174 134.674 41.791L134.554 41.9466C134.473 41.8864 134.388 41.8362 134.298 41.796C134.207 41.7525 134.1 41.7307 133.976 41.7307C133.883 41.7307 133.802 41.7441 133.735 41.7709C133.668 41.7943 133.611 41.8261 133.565 41.8663C133.521 41.9065 133.488 41.9533 133.464 42.0069C133.444 42.0604 133.434 42.114 133.434 42.1675C133.434 42.2378 133.449 42.2981 133.479 42.3483C133.513 42.3951 133.556 42.437 133.61 42.4738C133.663 42.5106 133.724 42.5441 133.79 42.5742C133.861 42.601 133.931 42.6277 134.001 42.6545C134.095 42.6913 134.189 42.7281 134.282 42.765C134.376 42.8018 134.46 42.847 134.533 42.9005C134.61 42.9541 134.672 43.021 134.719 43.1013C134.766 43.1783 134.79 43.2754 134.79 43.3925C134.79 43.4829 134.771 43.5699 134.734 43.6536C134.701 43.7339 134.649 43.8059 134.579 43.8695C134.508 43.9297 134.423 43.9782 134.323 44.0151C134.222 44.0519 134.107 44.0703 133.976 44.0703ZM136.459 44.01V40.7016H136.69V43.8092H138.216V44.01H136.459ZM138.777 44.01V41.6002H138.998V44.01H138.777ZM138.893 41.0178C138.836 41.0178 138.787 40.9994 138.747 40.9626C138.71 40.9258 138.692 40.8789 138.692 40.822C138.692 40.7585 138.71 40.7099 138.747 40.6765C138.787 40.6396 138.836 40.6212 138.893 40.6212C138.949 40.6212 138.996 40.6396 139.033 40.6765C139.073 40.7099 139.093 40.7585 139.093 40.822C139.093 40.8789 139.073 40.9258 139.033 40.9626C138.996 40.9994 138.949 41.0178 138.893 41.0178ZM139.924 44.01V41.6002H140.115L140.135 41.9717H140.15C140.257 41.8479 140.376 41.7458 140.507 41.6655C140.641 41.5818 140.775 41.54 140.908 41.54C141.103 41.54 141.251 41.5852 141.355 41.6755C141.459 41.7625 141.533 41.8814 141.576 42.032C141.717 41.8814 141.852 41.7625 141.983 41.6755C142.117 41.5852 142.254 41.54 142.394 41.54C142.876 41.54 143.117 41.8479 143.117 42.4637V44.01H142.891V42.4939C142.891 42.2361 142.848 42.047 142.761 41.9265C142.674 41.8027 142.538 41.7408 142.354 41.7408C142.137 41.7408 141.896 41.8914 141.631 42.1926V44.01H141.41V42.4939C141.41 42.2361 141.367 42.047 141.28 41.9265C141.193 41.8027 141.056 41.7408 140.868 41.7408C140.651 41.7408 140.41 41.8914 140.145 42.1926V44.01H139.924ZM143.999 44.01V41.6002H144.219V44.01H143.999ZM144.114 41.0178C144.057 41.0178 144.009 40.9994 143.968 40.9626C143.932 40.9258 143.913 40.8789 143.913 40.822C143.913 40.7585 143.932 40.7099 143.968 40.6765C144.009 40.6396 144.057 40.6212 144.114 40.6212C144.171 40.6212 144.218 40.6396 144.255 40.6765C144.295 40.7099 144.315 40.7585 144.315 40.822C144.315 40.8789 144.295 40.9258 144.255 40.9626C144.218 40.9994 144.171 41.0178 144.114 41.0178ZM145.804 44.0703C145.686 44.0703 145.589 44.0519 145.512 44.0151C145.435 43.9816 145.373 43.9331 145.327 43.8695C145.28 43.8059 145.246 43.7289 145.226 43.6385C145.209 43.5482 145.201 43.4494 145.201 43.3423V41.791H144.825V41.6203L145.206 41.6002L145.236 40.9024H145.427V41.6002H146.125V41.791H145.427V43.3624C145.427 43.4394 145.432 43.5097 145.442 43.5733C145.455 43.6335 145.477 43.6871 145.507 43.7339C145.537 43.7774 145.578 43.8126 145.628 43.8393C145.681 43.8628 145.75 43.8745 145.834 43.8745C145.881 43.8745 145.931 43.8678 145.984 43.8544C146.041 43.8377 146.091 43.8193 146.135 43.7992L146.195 43.9799C146.125 44.0067 146.055 44.0284 145.984 44.0452C145.914 44.0619 145.854 44.0703 145.804 44.0703ZM147.57 44.0703C147.416 44.0703 147.27 44.0418 147.133 43.9849C146.999 43.928 146.882 43.846 146.781 43.7389C146.681 43.6285 146.601 43.4963 146.54 43.3423C146.484 43.185 146.455 43.0076 146.455 42.8101C146.455 42.6127 146.484 42.4353 146.54 42.278C146.601 42.1207 146.679 41.9885 146.776 41.8814C146.877 41.7709 146.989 41.6872 147.113 41.6303C147.24 41.5701 147.37 41.54 147.504 41.54C147.792 41.54 148.018 41.637 148.182 41.8312C148.346 42.0253 148.428 42.2997 148.428 42.6545C148.428 42.6846 148.428 42.7148 148.428 42.7449C148.428 42.775 148.425 42.8051 148.418 42.8353H146.681C146.684 42.9859 146.708 43.1264 146.751 43.257C146.795 43.3842 146.855 43.4946 146.932 43.5883C147.012 43.6787 147.108 43.7506 147.218 43.8042C147.329 43.8544 147.452 43.8795 147.59 43.8795C147.72 43.8795 147.837 43.8611 147.941 43.8243C148.048 43.7841 148.147 43.7306 148.237 43.6636L148.328 43.8343C148.231 43.8912 148.124 43.9448 148.006 43.995C147.893 44.0452 147.747 44.0703 147.57 44.0703ZM146.681 42.6545H148.217C148.217 42.3432 148.154 42.1123 148.026 41.9617C147.899 41.8077 147.727 41.7307 147.509 41.7307C147.406 41.7307 147.307 41.7525 147.213 41.796C147.119 41.8362 147.034 41.8964 146.957 41.9768C146.884 42.0571 146.822 42.1541 146.771 42.2679C146.725 42.3817 146.694 42.5106 146.681 42.6545ZM149.881 44.0703C149.576 44.0703 149.334 43.9632 149.153 43.749C148.972 43.5314 148.882 43.2185 148.882 42.8101C148.882 42.616 148.91 42.4403 148.967 42.283C149.024 42.1257 149.101 41.9918 149.198 41.8814C149.299 41.7709 149.412 41.6872 149.54 41.6303C149.67 41.5701 149.807 41.54 149.951 41.54C150.099 41.54 150.226 41.5667 150.333 41.6203C150.443 41.6705 150.559 41.7425 150.679 41.8362L150.669 41.3944V40.4003H150.89V44.01H150.699L150.679 43.6988H150.664C150.567 43.7958 150.452 43.8829 150.318 43.9598C150.187 44.0335 150.042 44.0703 149.881 44.0703ZM149.911 43.8745C150.045 43.8745 150.172 43.841 150.293 43.7741C150.417 43.7038 150.542 43.6051 150.669 43.4779V42.047C150.542 41.9332 150.422 41.8529 150.308 41.8061C150.197 41.7592 150.084 41.7358 149.966 41.7358C149.846 41.7358 149.734 41.7642 149.63 41.8211C149.526 41.8747 149.436 41.95 149.359 42.047C149.285 42.1408 149.227 42.2546 149.183 42.3884C149.14 42.519 149.118 42.6595 149.118 42.8101C149.118 42.9708 149.135 43.1164 149.168 43.2469C149.205 43.3775 149.257 43.4896 149.324 43.5833C149.391 43.6737 149.473 43.7456 149.57 43.7992C149.67 43.8494 149.784 43.8745 149.911 43.8745Z" fill="#737372"/>
<path d="M187.638 44.426V41.1175H188.586C188.75 41.1175 188.899 41.1343 189.033 41.1677C189.167 41.1979 189.281 41.2481 189.375 41.3184C189.468 41.3886 189.54 41.479 189.591 41.5895C189.644 41.6999 189.671 41.8338 189.671 41.9911C189.671 42.2555 189.594 42.463 189.44 42.6136C189.289 42.7643 189.084 42.8563 188.822 42.8898L189.736 44.426H189.47L188.571 42.9048H187.869V44.426H187.638ZM187.869 42.714H188.526C188.821 42.714 189.045 42.6555 189.199 42.5383C189.356 42.4178 189.435 42.2354 189.435 41.9911C189.435 41.7434 189.356 41.5694 189.199 41.469C189.042 41.3652 188.817 41.3133 188.526 41.3133H187.869V42.714ZM191.543 44.4863C191.339 44.4863 191.152 44.4461 190.981 44.3658C190.81 44.2855 190.663 44.1717 190.539 44.0244C190.419 43.8738 190.325 43.693 190.258 43.4822C190.191 43.268 190.158 43.0287 190.158 42.7643C190.158 42.5032 190.191 42.2672 190.258 42.0564C190.328 41.8455 190.425 41.6664 190.549 41.5192C190.673 41.3686 190.82 41.2548 190.991 41.1778C191.165 41.0975 191.358 41.0573 191.568 41.0573C191.762 41.0573 191.933 41.0975 192.08 41.1778C192.228 41.2581 192.345 41.3502 192.432 41.4539L192.296 41.6095C192.206 41.5058 192.101 41.4238 191.98 41.3635C191.86 41.3 191.724 41.2682 191.573 41.2682C191.393 41.2682 191.229 41.3033 191.081 41.3736C190.937 41.4439 190.814 41.5443 190.71 41.6748C190.609 41.802 190.532 41.9576 190.479 42.1417C190.425 42.3258 190.399 42.5333 190.399 42.7643C190.399 42.9952 190.425 43.2044 190.479 43.3918C190.532 43.5759 190.609 43.7332 190.71 43.8637C190.81 43.9943 190.931 44.0963 191.071 44.17C191.215 44.2403 191.376 44.2754 191.553 44.2754C191.724 44.2754 191.876 44.2419 192.01 44.175C192.144 44.1047 192.271 44.0026 192.392 43.8688L192.527 44.0143C192.4 44.1616 192.258 44.2771 192.101 44.3608C191.943 44.4444 191.757 44.4863 191.543 44.4863ZM195.277 44.426V43.4671H193.801V43.3366L195.292 41.2179H195.493V43.2763H195.97V43.4671H195.493V44.426H195.277ZM194.072 43.2763H195.277V42.1016C195.277 42.0279 195.278 41.9359 195.282 41.8254C195.285 41.715 195.29 41.6229 195.297 41.5493H195.277C195.237 41.6162 195.195 41.6815 195.151 41.7451C195.108 41.8087 195.063 41.8773 195.016 41.9509L194.072 43.2763ZM197.433 44.4863C197.108 44.4863 196.852 44.3557 196.665 44.0947C196.478 43.8336 196.384 43.4587 196.384 42.9701C196.384 42.6354 196.416 42.3526 196.479 42.1216C196.546 41.8907 196.633 41.7033 196.74 41.5593C196.851 41.4154 196.976 41.3133 197.117 41.2531C197.261 41.1895 197.41 41.1577 197.564 41.1577C197.714 41.1577 197.843 41.1862 197.95 41.2431C198.061 41.3 198.158 41.3753 198.241 41.469L198.106 41.6196C198.036 41.5326 197.954 41.4673 197.86 41.4238C197.766 41.3769 197.667 41.3535 197.564 41.3535C197.436 41.3535 197.314 41.382 197.197 41.4388C197.083 41.4924 196.983 41.5811 196.896 41.7049C196.809 41.8288 196.739 41.9928 196.685 42.1969C196.635 42.3978 196.61 42.6438 196.61 42.9349C196.72 42.7977 196.844 42.6889 196.981 42.6086C197.122 42.5283 197.267 42.4881 197.418 42.4881C197.703 42.4881 197.922 42.5735 198.076 42.7442C198.233 42.9115 198.312 43.1575 198.312 43.4822C198.312 43.6294 198.288 43.765 198.241 43.8888C198.195 44.0093 198.131 44.1148 198.051 44.2051C197.97 44.2921 197.877 44.3608 197.769 44.411C197.666 44.4612 197.554 44.4863 197.433 44.4863ZM197.438 44.2955C197.532 44.2955 197.617 44.2754 197.694 44.2352C197.774 44.1917 197.843 44.1332 197.9 44.0595C197.957 43.9859 198.002 43.9006 198.036 43.8035C198.069 43.7031 198.086 43.596 198.086 43.4822C198.086 43.3684 198.072 43.263 198.046 43.1659C198.019 43.0655 197.977 42.9801 197.92 42.9098C197.867 42.8362 197.795 42.7793 197.704 42.7391C197.617 42.699 197.513 42.6789 197.393 42.6789C197.279 42.6789 197.154 42.7157 197.016 42.7894C196.879 42.8596 196.745 42.9835 196.615 43.1609C196.625 43.3316 196.648 43.4872 196.685 43.6278C196.725 43.765 196.779 43.8838 196.846 43.9842C196.913 44.0813 196.995 44.1583 197.092 44.2152C197.192 44.2687 197.308 44.2955 197.438 44.2955ZM199.745 44.4863C199.598 44.4863 199.462 44.4645 199.338 44.421C199.215 44.3741 199.107 44.3122 199.017 44.2352C198.927 44.1549 198.855 44.0612 198.801 43.9541C198.751 43.847 198.726 43.7299 198.726 43.6027C198.726 43.4956 198.744 43.3952 198.781 43.3014C198.821 43.2077 198.872 43.1241 198.932 43.0504C198.995 42.9734 199.064 42.9065 199.138 42.8496C199.215 42.7894 199.292 42.7391 199.369 42.699V42.6789C199.308 42.6387 199.25 42.5952 199.193 42.5484C199.139 42.4982 199.091 42.4429 199.047 42.3827C199.007 42.3191 198.974 42.2522 198.947 42.1819C198.92 42.1082 198.907 42.0279 198.907 41.9409C198.907 41.8271 198.928 41.7217 198.972 41.6246C199.015 41.5275 199.074 41.4455 199.148 41.3786C199.225 41.3083 199.313 41.2548 199.414 41.2179C199.517 41.1778 199.628 41.1577 199.745 41.1577C199.882 41.1577 200.004 41.1795 200.112 41.223C200.219 41.2631 200.309 41.3217 200.383 41.3987C200.46 41.4723 200.517 41.561 200.553 41.6648C200.594 41.7652 200.614 41.8756 200.614 41.9961C200.614 42.0831 200.599 42.1685 200.568 42.2522C200.538 42.3325 200.5 42.4078 200.453 42.4781C200.409 42.5484 200.361 42.612 200.307 42.6689C200.254 42.7258 200.204 42.7726 200.157 42.8094V42.8295C200.227 42.873 200.296 42.9199 200.363 42.9701C200.43 43.0203 200.488 43.0772 200.538 43.1408C200.592 43.2044 200.635 43.278 200.669 43.3617C200.702 43.4454 200.719 43.5408 200.719 43.6479C200.719 43.765 200.696 43.8754 200.649 43.9792C200.602 44.0796 200.535 44.1683 200.448 44.2453C200.364 44.3189 200.262 44.3775 200.142 44.421C200.021 44.4645 199.889 44.4863 199.745 44.4863ZM199.981 42.7442C200.118 42.6337 200.222 42.5182 200.292 42.3978C200.366 42.2739 200.403 42.1417 200.403 42.0011C200.403 41.9108 200.388 41.8271 200.358 41.7501C200.327 41.6698 200.284 41.5995 200.227 41.5393C200.174 41.479 200.105 41.4322 200.021 41.3987C199.941 41.3619 199.849 41.3435 199.745 41.3435C199.655 41.3435 199.571 41.3585 199.494 41.3886C199.42 41.4188 199.355 41.4606 199.298 41.5142C199.245 41.5644 199.203 41.6263 199.173 41.6999C199.143 41.7735 199.128 41.8539 199.128 41.9409C199.128 42.0547 199.151 42.1534 199.198 42.2371C199.248 42.3174 199.313 42.3894 199.394 42.453C199.474 42.5132 199.564 42.5668 199.665 42.6136C199.769 42.6605 199.874 42.704 199.981 42.7442ZM199.745 44.3005C199.859 44.3005 199.961 44.2838 200.051 44.2503C200.145 44.2168 200.224 44.17 200.287 44.1097C200.354 44.0495 200.404 43.9792 200.438 43.8989C200.475 43.8185 200.493 43.7332 200.493 43.6428C200.493 43.519 200.465 43.4152 200.408 43.3316C200.354 43.2445 200.281 43.1692 200.187 43.1056C200.097 43.0387 199.993 42.9818 199.876 42.9349C199.758 42.8847 199.638 42.8345 199.514 42.7843C199.35 42.8814 199.215 42.9969 199.107 43.1307C199 43.2613 198.947 43.4152 198.947 43.5926C198.947 43.693 198.967 43.7868 199.007 43.8738C199.047 43.9574 199.102 44.0311 199.173 44.0947C199.243 44.1583 199.327 44.2085 199.424 44.2453C199.521 44.2821 199.628 44.3005 199.745 44.3005ZM201.871 44.426C201.885 44.1014 201.912 43.8052 201.952 43.5374C201.995 43.2663 202.055 43.0119 202.132 42.7743C202.209 42.5333 202.306 42.304 202.424 42.0865C202.541 41.8656 202.68 41.6413 202.84 41.4137H201.148V41.2179H203.121V41.3485C202.931 41.6029 202.772 41.8472 202.644 42.0815C202.521 42.3158 202.42 42.5551 202.343 42.7994C202.27 43.0404 202.216 43.2931 202.183 43.5575C202.149 43.8219 202.126 44.1114 202.112 44.426H201.871ZM203.752 44.426V44.2302H204.505V41.5694H203.932V41.4188C204.063 41.3953 204.178 41.3669 204.279 41.3334C204.382 41.3 204.473 41.2615 204.55 41.2179H204.731V44.2302H205.428V44.426H203.752ZM206.932 44.4863C206.624 44.4863 206.387 44.3424 206.219 44.0545C206.055 43.7633 205.973 43.3483 205.973 42.8094C205.973 42.2739 206.055 41.8656 206.219 41.5844C206.387 41.3 206.624 41.1577 206.932 41.1577C207.24 41.1577 207.476 41.3 207.64 41.5844C207.807 41.8656 207.891 42.2739 207.891 42.8094C207.891 43.3483 207.807 43.7633 207.64 44.0545C207.476 44.3424 207.24 44.4863 206.932 44.4863ZM206.932 44.2955C207.156 44.2955 207.334 44.1717 207.464 43.924C207.598 43.673 207.665 43.3014 207.665 42.8094C207.665 42.3174 207.598 41.9509 207.464 41.71C207.334 41.469 207.156 41.3485 206.932 41.3485C206.711 41.3485 206.534 41.469 206.4 41.71C206.266 41.9509 206.199 42.3174 206.199 42.8094C206.199 43.3014 206.266 43.673 206.4 43.924C206.534 44.1717 206.711 44.2955 206.932 44.2955Z" fill="#737372"/>
</svg>
