<svg width="201" height="48" viewBox="0 0 201 48" fill="none" xmlns="http://www.w3.org/2000/svg">
<g clip-path="url(#clip0_3216_133)">
<path d="M24.0374 39.7745C19.7704 39.7745 15.5033 39.76 11.2363 39.789C10.5191 39.789 10.0337 39.5644 9.5628 39.0646C6.59254 35.9132 3.60054 32.7835 0.601298 29.6611C0.173869 29.2192 0 28.7556 0 28.1398C0.0289782 25.4593 0.0289782 22.7788 0 20.0983C0 19.4753 0.202847 19.0479 0.630276 18.5987C3.65125 15.4546 6.65774 12.2815 9.64249 9.10111C10.0699 8.65194 10.5118 8.4491 11.1421 8.4491C19.7124 8.46359 28.2827 8.47083 36.8603 8.4491C37.6861 8.4491 37.889 8.7099 37.8745 9.49231C37.831 12.4191 37.8238 15.3532 37.8745 18.2799C37.889 19.1493 37.6065 19.3449 36.7733 19.3449C28.5218 19.3159 20.2775 19.3449 12.026 19.3014C11.0262 19.3014 10.7726 19.5767 10.8016 20.5475C10.8741 23.0106 10.8596 25.481 10.8016 27.9442C10.7799 28.7918 11.0262 29.0236 11.8811 29.0164C20.0964 28.9874 28.3045 29.0164 36.5198 28.9729C37.5992 28.9729 37.918 29.212 37.8817 30.3204C37.7948 33.1385 37.8238 35.9639 37.8745 38.7893C37.889 39.6079 37.6354 39.8107 36.8385 39.8035C32.5715 39.7673 28.3045 39.789 24.0374 39.789V39.7745Z" fill="white"/>
<path d="M124.135 13.7739C125.744 13.6797 127.403 13.9985 129.069 14.2086C129.735 14.2955 130.011 14.578 129.851 15.2663C129.75 15.7154 129.721 16.1863 129.663 16.6427C129.46 18.2945 129.467 18.2583 127.779 18.012C126.12 17.7656 124.454 17.4976 122.766 17.7512C121.882 17.8888 121.44 18.3524 121.44 19.2508C121.44 20.1853 121.303 21.1706 122.534 21.5038C124.048 21.9168 125.577 22.279 127.069 22.7571C129.612 23.5685 130.264 24.4668 130.395 27.0894C130.409 27.4081 130.395 27.7341 130.395 28.0529C130.395 32.1678 129.214 33.5877 125.092 34.0731C122.44 34.3846 119.81 34.0949 117.268 33.1893C116.71 32.9937 116.434 32.7836 116.659 32.1171C116.884 31.4433 117.014 30.7334 117.115 30.0307C117.202 29.4294 117.434 29.3859 117.985 29.5453C119.883 30.0959 121.824 30.3712 123.809 30.2842C125.128 30.2263 125.664 29.8351 125.794 28.8063C126.012 27.0314 125.729 26.4229 124.367 26.0389C122.925 25.6332 121.448 25.3579 120.02 24.916C117.854 24.2495 117.043 23.1846 116.942 20.946C116.884 19.6637 116.804 18.3814 117.101 17.1064C117.449 15.5995 118.376 14.665 119.818 14.2158C121.201 13.7811 122.628 13.7087 124.143 13.7667L124.135 13.7739Z" fill="white"/>
<path d="M61.854 23.9379C61.854 22.7571 61.854 21.5762 61.854 20.4026C61.854 16.3674 63.8462 14.1578 67.8887 13.8028C70.0765 13.6144 72.2499 13.8608 74.416 14.2302C74.8797 14.3099 75.097 14.4983 74.9883 15.0199C74.8145 15.824 74.6406 16.6354 74.5971 17.4468C74.5537 18.2727 74.148 18.3524 73.4815 18.2437C72.105 18.0046 70.714 17.8597 69.3158 17.867C67.3236 17.8742 66.5991 18.4538 66.476 20.3953C66.3238 22.815 66.3021 25.2492 66.4905 27.6761C66.6281 29.4293 67.3381 30.0233 69.1347 30.0596C70.5692 30.0813 71.9963 29.9147 73.409 29.6901C74.0972 29.5814 74.5609 29.6176 74.6044 30.516C74.6406 31.3274 74.8217 32.146 74.9956 32.9429C75.097 33.4138 74.9014 33.6166 74.4885 33.6818C71.8659 34.0875 69.2362 34.4425 66.5919 33.9064C63.6361 33.3051 61.8974 31.1607 61.8757 28.1253C61.8612 26.7343 61.8757 25.3361 61.8757 23.9452L61.854 23.9379Z" fill="white"/>
<path d="M169.66 23.9452C169.66 22.7281 169.66 21.5183 169.66 20.3012C169.66 16.237 171.848 13.9695 175.977 13.7811C178.028 13.6869 180.049 13.897 182.077 14.2085C182.751 14.31 182.874 14.6287 182.736 15.2373C182.57 15.969 182.41 16.7079 182.374 17.4541C182.331 18.28 181.918 18.3597 181.244 18.2437C179.795 17.9974 178.332 17.838 176.861 17.867C175.014 17.9105 174.239 18.6422 174.21 20.4896C174.166 22.8078 174.166 25.1333 174.21 27.4588C174.246 29.2917 175.036 30.0234 176.883 30.0596C178.354 30.0886 179.817 29.9292 181.266 29.6756C181.969 29.5525 182.324 29.7046 182.374 30.4943C182.425 31.2767 182.606 32.0446 182.751 32.8198C182.838 33.2689 182.78 33.5949 182.251 33.6746C179.455 34.0876 176.651 34.5585 173.847 33.7471C171.102 32.9502 169.682 31.0594 169.66 28.2412C169.646 26.814 169.66 25.3796 169.66 23.9524V23.9452Z" fill="white"/>
<path d="M95.686 23.8872C95.686 20.888 95.7005 17.8815 95.6715 14.8822C95.6715 14.2012 95.8309 13.9187 96.5698 13.9767C97.4971 14.0419 98.4389 14.0491 99.3662 13.9767C100.17 13.9187 100.301 14.252 100.294 14.9619C100.265 19.5695 100.308 24.177 100.257 28.7918C100.25 29.7046 100.525 29.9219 101.402 29.9002C103.409 29.835 105.415 29.9002 107.422 29.864C108.067 29.8495 108.328 30.0233 108.284 30.6971C108.212 31.7258 108.603 33.0516 108.089 33.7036C107.538 34.399 106.147 33.9137 105.126 33.9281C102.293 33.9644 99.4604 33.9137 96.6278 33.9571C95.8744 33.9716 95.657 33.7543 95.6643 33.0008C95.7077 29.9654 95.6788 26.9299 95.6788 23.8872H95.686Z" fill="white"/>
<path d="M27.4858 0.849609C30.5358 0.849609 33.5785 0.849609 36.6284 0.849609C37.2877 0.849609 37.918 0.856854 37.8455 1.75518C37.7803 2.5231 38.273 3.55183 36.8603 3.7257C36.1213 3.81263 35.3969 4.06619 34.6941 4.32699C33.5857 4.73269 32.8106 5.50785 32.5063 6.65974C32.3469 7.26828 32.0716 7.52184 31.3979 7.50735C28.7464 7.47113 26.0949 7.49286 23.4361 7.49286C23.0159 7.49286 22.574 7.57979 22.4291 6.97125C21.9944 5.12389 20.618 4.33424 18.9155 3.9213C18.7054 3.87059 18.4953 3.81987 18.2925 3.76916C17.1551 3.50836 16.561 2.24056 17.0899 1.21908C17.329 0.762675 17.7491 0.864098 18.1259 0.856854C21.2483 0.849609 24.3634 0.856854 27.4858 0.856854V0.849609Z" fill="white"/>
<path d="M27.3916 47.4175C24.3489 47.4175 21.3062 47.4175 18.2635 47.4175C17.6405 47.4175 16.9522 47.49 17.0247 46.5554C17.0826 45.7585 16.59 44.6863 18.0607 44.5414C18.8286 44.469 19.5965 44.2154 20.3354 43.9619C21.4583 43.5779 22.2335 42.81 22.4653 41.6219C22.5885 40.9988 22.8493 40.7525 23.5303 40.767C26.1456 40.8105 28.7609 40.7888 31.3689 40.7815C31.7673 40.7815 32.1875 40.7308 32.2745 41.2814C32.6005 43.404 34.2015 44.0271 35.9982 44.4255C36.2082 44.469 36.4183 44.498 36.6284 44.5414C37.7296 44.7588 38.3019 46.0193 37.7658 47.0408C37.505 47.5334 37.0414 47.4175 36.6284 47.4175C33.5495 47.4175 30.4706 47.4175 27.3916 47.4175Z" fill="white"/>
<path d="M58.2172 23.9524C58.2172 26.9879 58.1955 30.0233 58.2317 33.0516C58.2389 33.7615 58.0216 33.9861 57.3261 33.9426C56.3626 33.8919 55.3918 33.9064 54.4283 33.9426C53.8922 33.9571 53.6676 33.8122 53.6749 33.2327C53.6893 27.0603 53.6893 20.8807 53.6749 14.7084C53.6749 14.1433 53.8632 13.9622 54.4138 13.9839C55.4135 14.0201 56.4205 14.0419 57.4203 13.9839C58.1375 13.9404 58.2317 14.2592 58.2317 14.8605C58.2099 17.896 58.2172 20.9314 58.2244 23.9597L58.2172 23.9524Z" fill="white"/>
<path d="M44.9959 24.1046C44.9959 19.2145 44.9959 14.3244 44.9959 9.43437C44.9959 8.97072 44.8148 8.40564 45.6696 8.42013C46.452 8.43462 46.2854 8.94899 46.2854 9.38366C46.2854 19.2 46.2854 29.0164 46.2854 38.84C46.2854 39.2747 46.4376 39.7745 45.6624 39.7963C44.8003 39.818 45.0031 39.2384 45.0031 38.782C44.9959 33.892 45.0031 29.0019 45.0031 24.1118L44.9959 24.1046Z" fill="white"/>
<path d="M201 20.1346C200.993 17.1498 199.486 15.0779 196.653 14.2375C194.487 13.5927 192.278 13.5565 190.082 14.1506C186.888 15.0199 185.381 17.0049 185.374 20.2939C185.374 21.4748 185.374 22.6484 185.374 23.8293C185.374 25.2202 185.374 26.6184 185.374 28.0094C185.381 30.6247 186.735 32.5952 189.206 33.508C191.488 34.3484 193.835 34.4063 196.175 33.8123C199.471 32.9791 200.993 30.9434 200.993 27.5312C200.993 25.0681 200.993 22.605 200.993 20.1346H201ZM196.414 27.7776C196.4 28.9367 195.769 29.6394 194.676 29.9292C193.69 30.19 192.683 30.1972 191.705 29.9292C190.495 29.6032 189.938 28.9367 189.923 27.6979C189.887 25.1985 189.894 22.6919 189.923 20.1925C189.938 19.0624 190.517 18.3089 191.626 18.0047C192.647 17.7221 193.676 17.7294 194.697 17.9974C195.798 18.2872 196.407 19.0044 196.414 20.1563C196.429 21.4458 196.414 22.7281 196.414 24.0176C196.414 25.2709 196.421 26.517 196.414 27.7703V27.7776Z" fill="white"/>
<path d="M167.646 33.0951C165.719 26.9662 163.821 20.8228 161.952 14.6794C161.778 14.1216 161.524 13.9622 160.974 13.9767C159.467 14.0129 157.96 14.0274 156.453 13.9767C155.78 13.9477 155.54 14.2013 155.359 14.8171C154.345 18.2365 153.273 21.6414 152.222 25.0536C151.324 27.9804 150.426 30.9145 149.491 33.9427C150.962 33.9427 152.317 33.9209 153.679 33.9572C154.2 33.9717 154.338 33.7326 154.447 33.2907C154.649 32.4213 154.946 31.5737 155.149 30.7116C155.265 30.2045 155.482 30.0161 156.019 30.0234C157.808 30.0524 159.605 30.0451 161.394 30.0234C161.865 30.0234 162.061 30.1828 162.213 30.6392C162.589 31.7331 162.408 33.3269 163.357 33.8195C164.321 34.3194 165.741 33.9137 166.958 33.9644C167.653 33.9934 167.885 33.8992 167.639 33.1096L167.646 33.0951ZM160.112 26.2272C158.909 26.1693 157.699 26.2127 156.381 26.2127C157.127 23.554 157.844 20.9894 158.561 18.4249C158.989 18.5118 158.887 18.8668 158.96 19.1131C159.547 21.1995 160.097 23.2932 160.713 25.3724C160.901 26.0027 160.88 26.2635 160.112 26.2272Z" fill="white"/>
<path d="M92.8461 17.9539C92.5346 16.1138 91.4407 14.9546 89.6658 14.4113C88.8399 14.1577 87.9995 13.9911 87.1374 13.9911C84.4135 13.9911 81.6823 14.0201 78.9583 13.9694C78.1832 13.9549 78.0021 14.2157 78.0165 14.9401C78.0528 17.9394 78.031 20.9459 78.031 23.9451C78.031 26.0533 78.0021 28.1614 78.0383 30.2696C78.06 31.4722 77.5022 33.1167 78.2846 33.747C79.0308 34.3483 80.6173 33.8846 81.8344 33.9426C82.443 33.9716 82.6458 33.7615 82.6313 33.1529C82.5951 31.6533 82.6386 30.1537 82.6096 28.6541C82.6023 28.1035 82.7762 27.9006 83.3413 27.9151C84.6308 27.9441 85.9276 27.9514 87.2171 27.9151C90.5061 27.821 92.5491 26.3068 92.9113 23.5032C93.1432 21.6703 93.1576 19.8012 92.8461 17.9539ZM84.725 24.0538C82.6241 24.0393 82.6241 24.0538 82.6241 21.9094V20.9459C82.6241 20.9459 82.6023 20.9459 82.5878 20.9459C82.6313 20.0258 82.327 18.8087 82.7979 18.2654C83.3558 17.6351 84.6163 18.1133 85.5654 18.0553C85.9566 18.0263 86.355 18.0336 86.7462 18.0553C87.6808 18.1205 88.2748 18.5842 88.4052 19.5477C88.4125 19.6201 88.4342 19.6853 88.4414 19.7578C88.6153 23.5539 88.4777 24.0755 84.725 24.0465V24.0538Z" fill="white"/>
<path d="M148.361 18.2365C148.108 16.2732 147.021 14.9837 145.108 14.4041C144.282 14.1578 143.442 13.9912 142.58 13.9839C139.856 13.9839 137.132 14.0057 134.415 13.9622C133.727 13.9549 133.503 14.1288 133.51 14.846C133.553 17.8453 133.524 20.8445 133.524 23.8365C133.524 26.0171 133.495 28.1905 133.539 30.3638C133.561 31.523 133.01 33.1168 133.763 33.7326C134.481 34.3194 136.016 33.8992 137.197 33.9209C137.27 33.9209 137.342 33.9137 137.415 33.9209C137.951 34.0006 138.074 33.7398 138.067 33.2472C138.038 31.7838 138.096 30.3204 138.038 28.857C138.009 28.118 138.204 27.8862 138.979 27.8935C140.725 27.9079 142.486 28.0456 144.224 27.6979C146.767 27.1907 148.202 25.7128 148.419 23.1338C148.557 21.5038 148.578 19.852 148.368 18.222L148.361 18.2365ZM143.884 22.1485C143.884 23.2135 143.355 23.7858 142.297 23.9452C141.051 24.1335 139.798 24.0104 138.545 24.0538C138.074 24.0683 138.038 23.7858 138.045 23.4308C138.052 22.6484 138.045 21.8587 138.045 20.9025C138.146 20.0911 137.603 18.7798 138.262 18.2147C138.827 17.7294 140.102 18.0626 141.066 18.0481C141.493 18.0409 141.928 18.0191 142.355 18.0698C143.232 18.1858 143.826 18.6422 143.862 19.584C143.898 20.4388 143.877 21.2937 143.884 22.1485Z" fill="white"/>
<path d="M54.3317 36.8328L54.1833 37.2672H55.0098L54.8615 36.8328C54.8144 36.6938 54.7697 36.5608 54.7273 36.4336C54.6849 36.3065 54.6437 36.1711 54.6036 36.0274H54.5895C54.5495 36.1711 54.5083 36.3065 54.4659 36.4336C54.4235 36.5608 54.3788 36.6938 54.3317 36.8328ZM53.6959 38.2032L54.5153 35.8755H54.6778L55.4973 38.2032H55.3277L55.0558 37.405H54.1339L53.8584 38.2032H53.6959ZM56.9686 38.2456C56.8415 38.2456 56.7249 38.2233 56.619 38.1785C56.513 38.1314 56.4223 38.0761 56.347 38.0125L56.4388 37.8959C56.5118 37.9572 56.5895 38.009 56.6719 38.0514C56.7544 38.0914 56.8568 38.1114 56.9792 38.1114C57.1135 38.1114 57.2135 38.0784 57.2795 38.0125C57.3478 37.9442 57.3819 37.8653 57.3819 37.7759C57.3819 37.724 57.369 37.6781 57.3431 37.6381C57.3195 37.5981 57.2877 37.5639 57.2477 37.5357C57.2077 37.5074 57.1629 37.4827 57.1135 37.4615C57.0664 37.4403 57.0181 37.4203 56.9686 37.4014C56.9051 37.3779 56.8403 37.3532 56.7744 37.3273C56.7108 37.3014 56.6531 37.2708 56.6013 37.2354C56.5495 37.1978 56.5071 37.1542 56.4741 37.1047C56.4435 37.0529 56.4282 36.9905 56.4282 36.9175C56.4282 36.8563 56.44 36.7986 56.4635 36.7445C56.4871 36.6879 56.5224 36.6397 56.5695 36.5996C56.6166 36.5573 56.6731 36.5243 56.7391 36.5007C56.8073 36.4772 56.8862 36.4654 56.9757 36.4654C57.0652 36.4654 57.1523 36.4819 57.2371 36.5149C57.3242 36.5478 57.3984 36.5902 57.4596 36.642L57.3748 36.7515C57.3183 36.7091 57.2583 36.6738 57.1947 36.6456C57.1311 36.6149 57.0558 36.5996 56.9686 36.5996C56.9027 36.5996 56.8462 36.6091 56.7991 36.6279C56.752 36.6444 56.712 36.6668 56.679 36.695C56.6484 36.7233 56.6249 36.7562 56.6084 36.7939C56.5942 36.8316 56.5872 36.8693 56.5872 36.9069C56.5872 36.9564 56.5978 36.9988 56.619 37.0341C56.6425 37.0671 56.6731 37.0965 56.7108 37.1224C56.7485 37.1483 56.7909 37.1719 56.838 37.193C56.8874 37.2119 56.9369 37.2307 56.9863 37.2496C57.0522 37.2755 57.1182 37.3014 57.1841 37.3273C57.25 37.3532 57.3089 37.385 57.3607 37.4226C57.4149 37.4603 57.4584 37.5074 57.4914 37.5639C57.5244 37.6181 57.5409 37.6864 57.5409 37.7688C57.5409 37.8324 57.5279 37.8936 57.502 37.9525C57.4785 38.009 57.442 38.0596 57.3925 38.1043C57.3431 38.1467 57.283 38.1809 57.2124 38.2068C57.1417 38.2327 57.0605 38.2456 56.9686 38.2456ZM58.4779 38.2456C58.3012 38.2456 58.1717 38.1927 58.0893 38.0867C58.0069 37.9807 57.9657 37.8171 57.9657 37.5957V36.5078H58.1211V37.5745C58.1211 37.7558 58.1505 37.8901 58.2094 37.9772C58.2706 38.062 58.3695 38.1043 58.5061 38.1043C58.6074 38.1043 58.6992 38.0773 58.7816 38.0231C58.864 37.9666 58.9547 37.8783 59.0536 37.7582V36.5078H59.209V38.2032H59.0783L59.0607 37.9207H59.0536C58.9712 38.0196 58.8841 38.0985 58.7922 38.1573C58.7004 38.2162 58.5956 38.2456 58.4779 38.2456ZM60.524 38.2456C60.4416 38.2456 60.3557 38.2268 60.2662 38.1891C60.179 38.1491 60.0955 38.0961 60.0154 38.0302H60.0083L59.9907 38.2032H59.86V35.6636H60.0154V36.3983L60.0083 36.7303C60.0955 36.6573 60.1885 36.5949 60.2874 36.5431C60.3863 36.4913 60.4887 36.4654 60.5947 36.4654C60.8207 36.4654 60.9903 36.5443 61.1033 36.7021C61.2163 36.8575 61.2728 37.0671 61.2728 37.3308C61.2728 37.4744 61.2528 37.6028 61.2128 37.7158C61.1728 37.8288 61.1174 37.9254 61.0468 38.0054C60.9785 38.0832 60.8984 38.1432 60.8066 38.1856C60.7171 38.2256 60.6229 38.2456 60.524 38.2456ZM60.517 38.1079C60.6017 38.1079 60.6806 38.089 60.7536 38.0514C60.8266 38.0137 60.889 37.9607 60.9408 37.8924C60.9926 37.8241 61.0327 37.7429 61.0609 37.6487C61.0915 37.5522 61.1068 37.4462 61.1068 37.3308C61.1068 37.2272 61.0962 37.1306 61.075 37.0412C61.0562 36.9517 61.0256 36.8752 60.9832 36.8116C60.9408 36.7456 60.8855 36.695 60.8172 36.6597C60.7489 36.622 60.6665 36.6032 60.5699 36.6032C60.4852 36.6032 60.3969 36.6279 60.305 36.6774C60.2132 36.7244 60.1166 36.7927 60.0154 36.8822V37.8889C60.1096 37.9689 60.2002 38.0255 60.2874 38.0584C60.3745 38.0914 60.451 38.1079 60.517 38.1079ZM62.1841 38.2456C62.057 38.2456 61.9404 38.2233 61.8344 38.1785C61.7285 38.1314 61.6378 38.0761 61.5625 38.0125L61.6543 37.8959C61.7273 37.9572 61.805 38.009 61.8874 38.0514C61.9698 38.0914 62.0723 38.1114 62.1947 38.1114C62.3289 38.1114 62.429 38.0784 62.4949 38.0125C62.5632 37.9442 62.5974 37.8653 62.5974 37.7759C62.5974 37.724 62.5844 37.6781 62.5585 37.6381C62.535 37.5981 62.5032 37.5639 62.4632 37.5357C62.4231 37.5074 62.3784 37.4827 62.3289 37.4615C62.2818 37.4403 62.2336 37.4203 62.1841 37.4014C62.1205 37.3779 62.0558 37.3532 61.9898 37.3273C61.9263 37.3014 61.8686 37.2708 61.8168 37.2354C61.765 37.1978 61.7226 37.1542 61.6896 37.1047C61.659 37.0529 61.6437 36.9905 61.6437 36.9175C61.6437 36.8563 61.6555 36.7986 61.679 36.7445C61.7026 36.6879 61.7379 36.6397 61.785 36.5996C61.8321 36.5573 61.8886 36.5243 61.9545 36.5007C62.0228 36.4772 62.1017 36.4654 62.1912 36.4654C62.2807 36.4654 62.3678 36.4819 62.4526 36.5149C62.5397 36.5478 62.6139 36.5902 62.6751 36.642L62.5903 36.7515C62.5338 36.7091 62.4738 36.6738 62.4102 36.6456C62.3466 36.6149 62.2712 36.5996 62.1841 36.5996C62.1182 36.5996 62.0617 36.6091 62.0146 36.6279C61.9675 36.6444 61.9274 36.6668 61.8945 36.695C61.8639 36.7233 61.8403 36.7562 61.8238 36.7939C61.8097 36.8316 61.8026 36.8693 61.8026 36.9069C61.8026 36.9564 61.8132 36.9988 61.8344 37.0341C61.858 37.0671 61.8886 37.0965 61.9263 37.1224C61.9639 37.1483 62.0063 37.1719 62.0534 37.193C62.1029 37.2119 62.1523 37.2307 62.2018 37.2496C62.2677 37.2755 62.3336 37.3014 62.3996 37.3273C62.4655 37.3532 62.5244 37.385 62.5762 37.4226C62.6303 37.4603 62.6739 37.5074 62.7069 37.5639C62.7398 37.6181 62.7563 37.6864 62.7563 37.7688C62.7563 37.8324 62.7434 37.8936 62.7175 37.9525C62.6939 38.009 62.6574 38.0596 62.608 38.1043C62.5585 38.1467 62.4985 38.1809 62.4278 38.2068C62.3572 38.2327 62.276 38.2456 62.1841 38.2456ZM63.2059 38.2032V36.5078H63.3613V38.2032H63.2059ZM63.2871 36.0981C63.2471 36.0981 63.2129 36.0851 63.1847 36.0592C63.1588 36.0333 63.1458 36.0004 63.1458 35.9603C63.1458 35.9156 63.1588 35.8814 63.1847 35.8579C63.2129 35.832 63.2471 35.819 63.2871 35.819C63.3272 35.819 63.3601 35.832 63.386 35.8579C63.4143 35.8814 63.4284 35.9156 63.4284 35.9603C63.4284 36.0004 63.4143 36.0333 63.386 36.0592C63.3601 36.0851 63.3272 36.0981 63.2871 36.0981ZM64.5746 38.2456C64.3604 38.2456 64.1896 38.1703 64.0625 38.0196C63.9353 37.8665 63.8717 37.6463 63.8717 37.3591C63.8717 37.2225 63.8918 37.0989 63.9318 36.9882C63.9718 36.8775 64.026 36.7833 64.0943 36.7056C64.1649 36.6279 64.245 36.569 64.3345 36.529C64.4263 36.4866 64.5228 36.4654 64.6241 36.4654C64.7277 36.4654 64.8172 36.4843 64.8925 36.5219C64.9703 36.5573 65.0515 36.6079 65.1363 36.6738L65.1292 36.363V35.6636H65.2846V38.2032H65.1504L65.1363 37.9843H65.1257C65.0574 38.0525 64.9761 38.1138 64.8819 38.1679C64.7901 38.2197 64.6877 38.2456 64.5746 38.2456ZM64.5958 38.1079C64.69 38.1079 64.7795 38.0843 64.8643 38.0372C64.9514 37.9878 65.0397 37.9183 65.1292 37.8288V36.8222C65.0397 36.7421 64.9549 36.6856 64.8749 36.6526C64.7972 36.6197 64.7171 36.6032 64.6347 36.6032C64.5499 36.6032 64.471 36.6232 64.398 36.6632C64.325 36.7009 64.2615 36.7539 64.2073 36.8222C64.1555 36.8881 64.1143 36.9682 64.0837 37.0624C64.0531 37.1542 64.0378 37.2531 64.0378 37.3591C64.0378 37.4721 64.0495 37.5745 64.0731 37.6664C64.099 37.7582 64.1355 37.8371 64.1826 37.903C64.2297 37.9666 64.2874 38.0172 64.3557 38.0549C64.4263 38.0902 64.5064 38.1079 64.5958 38.1079ZM65.9343 38.2032V36.5078H66.0898V38.2032H65.9343ZM66.0156 36.0981C65.9755 36.0981 65.9414 36.0851 65.9131 36.0592C65.8872 36.0333 65.8743 36.0004 65.8743 35.9603C65.8743 35.9156 65.8872 35.8814 65.9131 35.8579C65.9414 35.832 65.9755 35.819 66.0156 35.819C66.0556 35.819 66.0886 35.832 66.1145 35.8579C66.1427 35.8814 66.1569 35.9156 66.1569 35.9603C66.1569 36.0004 66.1427 36.0333 66.1145 36.0592C66.0886 36.0851 66.0556 36.0981 66.0156 36.0981ZM67.1124 38.2456C67.0441 38.2456 66.9805 38.2362 66.9216 38.2174C66.8628 38.1985 66.811 38.1703 66.7662 38.1326C66.7215 38.0949 66.6862 38.0467 66.6603 37.9878C66.6344 37.9289 66.6214 37.8594 66.6214 37.7794C66.6214 37.591 66.7085 37.4485 66.8828 37.352C67.0594 37.2531 67.3373 37.1825 67.7164 37.1401C67.7164 37.0765 67.7117 37.0129 67.7022 36.9493C67.6928 36.8834 67.6728 36.8257 67.6422 36.7763C67.6116 36.7244 67.5704 36.6832 67.5186 36.6526C67.4668 36.6197 67.3985 36.6032 67.3137 36.6032C67.2007 36.6032 67.0971 36.6255 67.0029 36.6703C66.9087 36.715 66.8322 36.7586 66.7733 36.801L66.7026 36.6844C66.7333 36.6632 66.7698 36.6397 66.8121 36.6138C66.8569 36.5879 66.9063 36.5643 66.9605 36.5431C67.0147 36.5219 67.0735 36.5043 67.1371 36.4901C67.2007 36.4737 67.2666 36.4654 67.3349 36.4654C67.4338 36.4654 67.5174 36.4831 67.5857 36.5184C67.654 36.5514 67.7093 36.5973 67.7517 36.6562C67.7941 36.715 67.8247 36.7845 67.8435 36.8646C67.8624 36.9423 67.8718 37.027 67.8718 37.1189V38.2032H67.7376L67.7234 37.9843H67.7128C67.6257 38.0525 67.5315 38.1138 67.4303 38.1679C67.3314 38.2197 67.2254 38.2456 67.1124 38.2456ZM67.1406 38.1114C67.2395 38.1114 67.3337 38.0879 67.4232 38.0408C67.5127 37.9937 67.6104 37.9254 67.7164 37.8359V37.2602C67.5421 37.2814 67.3949 37.3073 67.2749 37.3379C67.1548 37.3685 67.0582 37.405 66.9852 37.4474C66.9122 37.4897 66.8592 37.538 66.8263 37.5922C66.7957 37.6463 66.7803 37.7064 66.7803 37.7723C66.7803 37.8335 66.7898 37.8854 66.8086 37.9277C66.8274 37.9701 66.8533 38.0054 66.8863 38.0337C66.9193 38.0596 66.957 38.0796 66.9993 38.0937C67.0441 38.1055 67.0912 38.1114 67.1406 38.1114ZM68.4765 38.2032V36.5078H68.6108L68.6249 36.8222H68.6355C68.692 36.7162 68.7603 36.6303 68.8403 36.5643C68.9228 36.4984 69.0146 36.4654 69.1159 36.4654C69.1488 36.4654 69.1783 36.4678 69.2042 36.4725C69.2301 36.4772 69.2571 36.4866 69.2854 36.5007L69.2501 36.642C69.2218 36.6303 69.1971 36.6232 69.1759 36.6208C69.1547 36.6161 69.1276 36.6138 69.0947 36.6138C69.0193 36.6138 68.9392 36.6467 68.8545 36.7127C68.7721 36.7763 68.6979 36.8881 68.632 37.0482V38.2032H68.4765ZM69.6581 38.9768C69.5945 38.9768 69.5368 38.965 69.485 38.9415L69.5203 38.8037C69.5392 38.8108 69.5604 38.8167 69.5839 38.8214C69.6075 38.8284 69.6322 38.832 69.6581 38.832C69.7641 38.832 69.8524 38.7896 69.923 38.7048C69.9937 38.62 70.0502 38.5129 70.0926 38.3834L70.1385 38.235L69.4426 36.5078H69.6122L70.0219 37.5745C70.0478 37.6452 70.0761 37.7229 70.1067 37.8076C70.1397 37.8924 70.1726 37.9725 70.2056 38.0478H70.2197C70.2456 37.9725 70.2715 37.8924 70.2974 37.8076C70.3257 37.7229 70.3516 37.6452 70.3751 37.5745L70.7389 36.5078H70.8979L70.2268 38.4152C70.2032 38.4858 70.1738 38.5553 70.1385 38.6236C70.1055 38.6919 70.0655 38.7519 70.0184 38.8037C69.9736 38.8555 69.9207 38.8967 69.8594 38.9273C69.8006 38.9603 69.7335 38.9768 69.6581 38.9768ZM72.5889 38.2456C72.4876 38.2456 72.3911 38.2256 72.2993 38.1856C72.2074 38.1456 72.1262 38.0879 72.0555 38.0125C71.9872 37.9372 71.9319 37.8453 71.8895 37.737C71.8495 37.6263 71.8295 37.5003 71.8295 37.3591C71.8295 37.2178 71.8495 37.0918 71.8895 36.9811C71.9319 36.8681 71.9872 36.7739 72.0555 36.6985C72.1262 36.6232 72.2074 36.5655 72.2993 36.5255C72.3911 36.4854 72.4876 36.4654 72.5889 36.4654C72.6901 36.4654 72.7867 36.4854 72.8785 36.5255C72.9727 36.5655 73.054 36.6232 73.1222 36.6985C73.1929 36.7739 73.2482 36.8681 73.2883 36.9811C73.3306 37.0918 73.3518 37.2178 73.3518 37.3591C73.3518 37.5003 73.3306 37.6263 73.2883 37.737C73.2482 37.8453 73.1929 37.9372 73.1222 38.0125C73.054 38.0879 72.9727 38.1456 72.8785 38.1856C72.7867 38.2256 72.6901 38.2456 72.5889 38.2456ZM72.5889 38.1079C72.6737 38.1079 72.7525 38.0902 72.8255 38.0549C72.9009 38.0172 72.9645 37.9654 73.0163 37.8995C73.0704 37.8335 73.1128 37.7547 73.1434 37.6628C73.1741 37.571 73.1894 37.4697 73.1894 37.3591C73.1894 37.246 73.1741 37.1436 73.1434 37.0518C73.1128 36.9599 73.0704 36.881 73.0163 36.8151C72.9645 36.7468 72.9009 36.695 72.8255 36.6597C72.7525 36.622 72.6737 36.6032 72.5889 36.6032C72.5041 36.6032 72.4252 36.622 72.3522 36.6597C72.2792 36.695 72.2157 36.7468 72.1615 36.8151C72.1097 36.881 72.0685 36.9599 72.0379 37.0518C72.0073 37.1436 71.992 37.246 71.992 37.3591C71.992 37.4697 72.0073 37.571 72.0379 37.6628C72.0685 37.7547 72.1097 37.8335 72.1615 37.8995C72.2157 37.9654 72.2792 38.0172 72.3522 38.0549C72.4252 38.0902 72.5041 38.1079 72.5889 38.1079ZM73.8857 38.2032V36.642H73.6526V36.5219L73.8857 36.5078V36.1299C73.8857 35.9603 73.9222 35.8332 73.9952 35.7484C74.0682 35.6636 74.1719 35.6212 74.3061 35.6212C74.3885 35.6212 74.4709 35.6401 74.5533 35.6777L74.5109 35.8049C74.4756 35.7861 74.4403 35.7731 74.405 35.7661C74.372 35.759 74.339 35.7555 74.3061 35.7555C74.2166 35.7555 74.1495 35.7884 74.1047 35.8544C74.0624 35.9203 74.0412 36.0157 74.0412 36.1405V36.5078H74.4332V36.642H74.0412V38.2032H73.8857ZM75.5137 38.2032V35.8755H75.6762V38.2032H75.5137ZM76.3446 38.2032V36.5078H76.4788L76.4929 36.8222H76.5035C76.56 36.7162 76.6283 36.6303 76.7084 36.5643C76.7908 36.4984 76.8826 36.4654 76.9839 36.4654C77.0169 36.4654 77.0463 36.4678 77.0722 36.4725C77.0981 36.4772 77.1252 36.4866 77.1534 36.5007L77.1181 36.642C77.0899 36.6303 77.0651 36.6232 77.0439 36.6208C77.0228 36.6161 76.9957 36.6138 76.9627 36.6138C76.8874 36.6138 76.8073 36.6467 76.7225 36.7127C76.6401 36.7763 76.5659 36.8881 76.5 37.0482V38.2032H76.3446ZM78.0493 38.2456C77.948 38.2456 77.8515 38.2256 77.7596 38.1856C77.6678 38.1456 77.5865 38.0879 77.5159 38.0125C77.4476 37.9372 77.3923 37.8453 77.3499 37.737C77.3099 37.6263 77.2898 37.5003 77.2898 37.3591C77.2898 37.2178 77.3099 37.0918 77.3499 36.9811C77.3923 36.8681 77.4476 36.7739 77.5159 36.6985C77.5865 36.6232 77.6678 36.5655 77.7596 36.5255C77.8515 36.4854 77.948 36.4654 78.0493 36.4654C78.1505 36.4654 78.2471 36.4854 78.3389 36.5255C78.4331 36.5655 78.5143 36.6232 78.5826 36.6985C78.6533 36.7739 78.7086 36.8681 78.7486 36.9811C78.791 37.0918 78.8122 37.2178 78.8122 37.3591C78.8122 37.5003 78.791 37.6263 78.7486 37.737C78.7086 37.8453 78.6533 37.9372 78.5826 38.0125C78.5143 38.0879 78.4331 38.1456 78.3389 38.1856C78.2471 38.2256 78.1505 38.2456 78.0493 38.2456ZM78.0493 38.1079C78.134 38.1079 78.2129 38.0902 78.2859 38.0549C78.3613 38.0172 78.4249 37.9654 78.4767 37.8995C78.5308 37.8335 78.5732 37.7547 78.6038 37.6628C78.6344 37.571 78.6497 37.4697 78.6497 37.3591C78.6497 37.246 78.6344 37.1436 78.6038 37.0518C78.5732 36.9599 78.5308 36.881 78.4767 36.8151C78.4249 36.7468 78.3613 36.695 78.2859 36.6597C78.2129 36.622 78.134 36.6032 78.0493 36.6032C77.9645 36.6032 77.8856 36.622 77.8126 36.6597C77.7396 36.695 77.676 36.7468 77.6219 36.8151C77.5701 36.881 77.5289 36.9599 77.4982 37.0518C77.4676 37.1436 77.4523 37.246 77.4523 37.3591C77.4523 37.4697 77.4676 37.571 77.4982 37.6628C77.5289 37.7547 77.5701 37.8335 77.6219 37.8995C77.676 37.9654 77.7396 38.0172 77.8126 38.0549C77.8856 38.0902 77.9645 38.1079 78.0493 38.1079ZM79.3214 38.2032V36.5078H79.4556L79.4697 36.7692H79.4803C79.5675 36.6821 79.657 36.6102 79.7488 36.5537C79.8406 36.4949 79.9454 36.4654 80.0631 36.4654C80.2398 36.4654 80.3693 36.5184 80.4517 36.6244C80.5341 36.7303 80.5753 36.894 80.5753 37.1153V38.2032H80.4199V37.1365C80.4199 36.9552 80.3893 36.8222 80.3281 36.7374C80.2692 36.6503 80.1703 36.6067 80.0314 36.6067C79.9301 36.6067 79.8383 36.6338 79.7559 36.6879C79.6734 36.7398 79.5804 36.8186 79.4768 36.9246V38.2032H79.3214ZM82.7526 38.2456C82.609 38.2456 82.4771 38.2174 82.357 38.1609C82.2369 38.1043 82.1333 38.0243 82.0462 37.9207C81.9614 37.8147 81.8955 37.6876 81.8484 37.5392C81.8013 37.3885 81.7777 37.2201 81.7777 37.0341C81.7777 36.8504 81.8013 36.6844 81.8484 36.5361C81.8978 36.3877 81.9661 36.2617 82.0533 36.1581C82.1404 36.0522 82.244 35.9721 82.3641 35.9179C82.4865 35.8614 82.6219 35.8332 82.7703 35.8332C82.9069 35.8332 83.027 35.8614 83.1306 35.9179C83.2342 35.9744 83.3166 36.0392 83.3778 36.1122L83.2824 36.2217C83.2189 36.1487 83.1447 36.091 83.0599 36.0486C82.9751 36.0039 82.8798 35.9815 82.7738 35.9815C82.6467 35.9815 82.5313 36.0062 82.4277 36.0557C82.3264 36.1051 82.2393 36.1758 82.1663 36.2676C82.0956 36.3571 82.0415 36.4666 82.0038 36.5961C81.9661 36.7256 81.9473 36.8716 81.9473 37.0341C81.9473 37.1966 81.9661 37.3438 82.0038 37.4756C82.0415 37.6051 82.0956 37.7158 82.1663 37.8076C82.2369 37.8995 82.3217 37.9713 82.4206 38.0231C82.5219 38.0726 82.6349 38.0973 82.7597 38.0973C82.8798 38.0973 82.9869 38.0737 83.0811 38.0266C83.1753 37.9772 83.2648 37.9054 83.3496 37.8112L83.4449 37.9136C83.3554 38.0172 83.2554 38.0985 83.1447 38.1573C83.034 38.2162 82.9033 38.2456 82.7526 38.2456ZM84.2731 38.2456C84.2048 38.2456 84.1412 38.2362 84.0823 38.2174C84.0234 38.1985 83.9716 38.1703 83.9269 38.1326C83.8822 38.0949 83.8468 38.0467 83.8209 37.9878C83.795 37.9289 83.7821 37.8594 83.7821 37.7794C83.7821 37.591 83.8692 37.4485 84.0435 37.352C84.2201 37.2531 84.4979 37.1825 84.8771 37.1401C84.8771 37.0765 84.8723 37.0129 84.8629 36.9493C84.8535 36.8834 84.8335 36.8257 84.8029 36.7763C84.7723 36.7244 84.7311 36.6832 84.6793 36.6526C84.6274 36.6197 84.5592 36.6032 84.4744 36.6032C84.3614 36.6032 84.2577 36.6255 84.1636 36.6703C84.0694 36.715 83.9928 36.7586 83.934 36.801L83.8633 36.6844C83.8939 36.6632 83.9304 36.6397 83.9728 36.6138C84.0176 36.5879 84.067 36.5643 84.1212 36.5431C84.1753 36.5219 84.2342 36.5043 84.2978 36.4901C84.3614 36.4737 84.4273 36.4654 84.4956 36.4654C84.5945 36.4654 84.6781 36.4831 84.7464 36.5184C84.8147 36.5514 84.87 36.5973 84.9124 36.6562C84.9548 36.715 84.9854 36.7845 85.0042 36.8646C85.023 36.9423 85.0325 37.027 85.0325 37.1189V38.2032H84.8982L84.8841 37.9843H84.8735C84.7864 38.0525 84.6922 38.1138 84.5909 38.1679C84.492 38.2197 84.3861 38.2456 84.2731 38.2456ZM84.3013 38.1114C84.4002 38.1114 84.4944 38.0879 84.5839 38.0408C84.6734 37.9937 84.7711 37.9254 84.8771 37.8359V37.2602C84.7028 37.2814 84.5556 37.3073 84.4355 37.3379C84.3154 37.3685 84.2189 37.405 84.1459 37.4474C84.0729 37.4897 84.0199 37.538 83.9869 37.5922C83.9563 37.6463 83.941 37.7064 83.941 37.7723C83.941 37.8335 83.9504 37.8854 83.9693 37.9277C83.9881 37.9701 84.014 38.0054 84.047 38.0337C84.08 38.0596 84.1176 38.0796 84.16 38.0937C84.2048 38.1055 84.2519 38.1114 84.3013 38.1114ZM85.6372 38.9697V36.5078H85.7714L85.7856 36.7197H85.7962C85.8786 36.6538 85.9681 36.5949 86.0646 36.5431C86.1635 36.4913 86.2659 36.4654 86.3719 36.4654C86.598 36.4654 86.7675 36.5443 86.8805 36.7021C86.9936 36.8575 87.0501 37.0671 87.0501 37.3308C87.0501 37.4744 87.0301 37.6028 86.99 37.7158C86.95 37.8288 86.8947 37.9254 86.824 38.0054C86.7557 38.0832 86.6757 38.1432 86.5838 38.1856C86.4944 38.2256 86.4002 38.2456 86.3013 38.2456C86.2212 38.2456 86.1388 38.228 86.054 38.1927C85.9692 38.155 85.8821 38.1032 85.7926 38.0372V38.9697H85.6372ZM86.2942 38.1079C86.379 38.1079 86.4579 38.089 86.5309 38.0514C86.6039 38.0137 86.6663 37.9607 86.7181 37.8924C86.7699 37.8241 86.8099 37.7429 86.8382 37.6487C86.8688 37.5522 86.8841 37.4462 86.8841 37.3308C86.8841 37.2272 86.8735 37.1306 86.8523 37.0412C86.8334 36.9517 86.8028 36.8752 86.7604 36.8116C86.7181 36.7456 86.6627 36.695 86.5944 36.6597C86.5261 36.622 86.4437 36.6032 86.3472 36.6032C86.2624 36.6032 86.1741 36.6279 86.0823 36.6774C85.9928 36.7244 85.8962 36.7927 85.7926 36.8822V37.8889C85.8915 37.9689 85.9834 38.0255 86.0681 38.0584C86.1529 38.0914 86.2283 38.1079 86.2942 38.1079ZM87.5585 38.2032V36.5078H87.7139V38.2032H87.5585ZM87.6398 36.0981C87.5997 36.0981 87.5656 36.0851 87.5373 36.0592C87.5114 36.0333 87.4985 36.0004 87.4985 35.9603C87.4985 35.9156 87.5114 35.8814 87.5373 35.8579C87.5656 35.832 87.5997 35.819 87.6398 35.819C87.6798 35.819 87.7128 35.832 87.7387 35.8579C87.7669 35.8814 87.781 35.9156 87.781 35.9603C87.781 36.0004 87.7669 36.0333 87.7387 36.0592C87.7128 36.0851 87.6798 36.0981 87.6398 36.0981ZM88.8284 38.2456C88.746 38.2456 88.6777 38.2327 88.6235 38.2068C88.5694 38.1832 88.5258 38.1491 88.4928 38.1043C88.4599 38.0596 88.4363 38.0054 88.4222 37.9419C88.4104 37.8783 88.4045 37.8088 88.4045 37.7335V36.642H88.1396V36.5219L88.4081 36.5078L88.4293 36.0168H88.5635V36.5078H89.0545V36.642H88.5635V37.7476C88.5635 37.8018 88.567 37.8512 88.5741 37.8959C88.5835 37.9383 88.5988 37.976 88.62 38.009C88.6412 38.0396 88.6694 38.0643 88.7048 38.0832C88.7424 38.0996 88.7907 38.1079 88.8496 38.1079C88.8826 38.1079 88.9179 38.1032 88.9555 38.0937C88.9956 38.082 89.0309 38.069 89.0615 38.0549L89.1039 38.1821C89.0545 38.2009 89.005 38.2162 88.9555 38.228C88.9061 38.2397 88.8637 38.2456 88.8284 38.2456ZM89.7576 38.2456C89.6893 38.2456 89.6257 38.2362 89.5668 38.2174C89.508 38.1985 89.4562 38.1703 89.4114 38.1326C89.3667 38.0949 89.3314 38.0467 89.3055 37.9878C89.2796 37.9289 89.2666 37.8594 89.2666 37.7794C89.2666 37.591 89.3537 37.4485 89.528 37.352C89.7046 37.2531 89.9825 37.1825 90.3616 37.1401C90.3616 37.0765 90.3569 37.0129 90.3474 36.9493C90.338 36.8834 90.318 36.8257 90.2874 36.7763C90.2568 36.7244 90.2156 36.6832 90.1638 36.6526C90.112 36.6197 90.0437 36.6032 89.9589 36.6032C89.8459 36.6032 89.7423 36.6255 89.6481 36.6703C89.5539 36.715 89.4774 36.7586 89.4185 36.801L89.3478 36.6844C89.3785 36.6632 89.415 36.6397 89.4573 36.6138C89.5021 36.5879 89.5515 36.5643 89.6057 36.5431C89.6598 36.5219 89.7187 36.5043 89.7823 36.4901C89.8459 36.4737 89.9118 36.4654 89.9801 36.4654C90.079 36.4654 90.1626 36.4831 90.2309 36.5184C90.2992 36.5514 90.3545 36.5973 90.3969 36.6562C90.4393 36.715 90.4699 36.7845 90.4887 36.8646C90.5076 36.9423 90.517 37.027 90.517 37.1189V38.2032H90.3828L90.3686 37.9843H90.358C90.2709 38.0525 90.1767 38.1138 90.0755 38.1679C89.9766 38.2197 89.8706 38.2456 89.7576 38.2456ZM89.7858 38.1114C89.8847 38.1114 89.9789 38.0879 90.0684 38.0408C90.1579 37.9937 90.2556 37.9254 90.3616 37.8359V37.2602C90.1873 37.2814 90.0401 37.3073 89.9201 37.3379C89.8 37.3685 89.7034 37.405 89.6304 37.4474C89.5574 37.4897 89.5044 37.538 89.4715 37.5922C89.4409 37.6463 89.4255 37.7064 89.4255 37.7723C89.4255 37.8335 89.435 37.8854 89.4538 37.9277C89.4726 37.9701 89.4985 38.0054 89.5315 38.0337C89.5645 38.0596 89.6022 38.0796 89.6445 38.0937C89.6893 38.1055 89.7364 38.1114 89.7858 38.1114ZM91.3301 38.2456C91.1912 38.2456 91.1217 38.1562 91.1217 37.9772V35.6636H91.2771V37.9984C91.2771 38.0361 91.2842 38.0643 91.2983 38.0832C91.3125 38.0996 91.3301 38.1079 91.3513 38.1079C91.3584 38.1079 91.3655 38.1079 91.3725 38.1079C91.3819 38.1079 91.3961 38.1055 91.4149 38.1008L91.4432 38.228C91.4267 38.2327 91.4102 38.2362 91.3937 38.2386C91.3772 38.2433 91.356 38.2456 91.3301 38.2456ZM92.6847 38.2032V35.8755H93.2711C93.4029 35.8755 93.5207 35.8873 93.6243 35.9109C93.7302 35.9321 93.8185 35.9686 93.8892 36.0204C93.9622 36.0722 94.0175 36.1393 94.0552 36.2217C94.0952 36.3041 94.1152 36.4054 94.1152 36.5255C94.1152 36.7539 94.0422 36.9246 93.8963 37.0376C93.7503 37.1483 93.5466 37.2036 93.2852 37.2036H92.8472V38.2032H92.6847ZM92.8472 37.0659H93.2463C93.4842 37.0659 93.6608 37.0235 93.7762 36.9387C93.8915 36.854 93.9492 36.7162 93.9492 36.5255C93.9492 36.33 93.8892 36.1958 93.7691 36.1228C93.6514 36.0498 93.4724 36.0133 93.2322 36.0133H92.8472V37.0659ZM94.8075 38.2456C94.7392 38.2456 94.6756 38.2362 94.6167 38.2174C94.5579 38.1985 94.5061 38.1703 94.4613 38.1326C94.4166 38.0949 94.3813 38.0467 94.3553 37.9878C94.3294 37.9289 94.3165 37.8594 94.3165 37.7794C94.3165 37.591 94.4036 37.4485 94.5779 37.352C94.7545 37.2531 95.0323 37.1825 95.4115 37.1401C95.4115 37.0765 95.4068 37.0129 95.3973 36.9493C95.3879 36.8834 95.3679 36.8257 95.3373 36.7763C95.3067 36.7244 95.2655 36.6832 95.2137 36.6526C95.1619 36.6197 95.0936 36.6032 95.0088 36.6032C94.8958 36.6032 94.7922 36.6255 94.698 36.6703C94.6038 36.715 94.5272 36.7586 94.4684 36.801L94.3977 36.6844C94.4283 36.6632 94.4648 36.6397 94.5072 36.6138C94.552 36.5879 94.6014 36.5643 94.6556 36.5431C94.7097 36.5219 94.7686 36.5043 94.8322 36.4901C94.8958 36.4737 94.9617 36.4654 95.03 36.4654C95.1289 36.4654 95.2125 36.4831 95.2808 36.5184C95.3491 36.5514 95.4044 36.5973 95.4468 36.6562C95.4892 36.715 95.5198 36.7845 95.5386 36.8646C95.5575 36.9423 95.5669 37.027 95.5669 37.1189V38.2032H95.4327L95.4185 37.9843H95.4079C95.3208 38.0525 95.2266 38.1138 95.1254 38.1679C95.0265 38.2197 94.9205 38.2456 94.8075 38.2456ZM94.8357 38.1114C94.9346 38.1114 95.0288 38.0879 95.1183 38.0408C95.2078 37.9937 95.3055 37.9254 95.4115 37.8359V37.2602C95.2372 37.2814 95.09 37.3073 94.9699 37.3379C94.8499 37.3685 94.7533 37.405 94.6803 37.4474C94.6073 37.4897 94.5543 37.538 94.5214 37.5922C94.4907 37.6463 94.4754 37.7064 94.4754 37.7723C94.4754 37.8335 94.4849 37.8854 94.5037 37.9277C94.5225 37.9701 94.5484 38.0054 94.5814 38.0337C94.6144 38.0596 94.6521 38.0796 94.6944 38.0937C94.7392 38.1055 94.7863 38.1114 94.8357 38.1114ZM96.1716 38.2032V36.5078H96.3059L96.32 36.8222H96.3306C96.3871 36.7162 96.4554 36.6303 96.5354 36.5643C96.6179 36.4984 96.7097 36.4654 96.811 36.4654C96.8439 36.4654 96.8734 36.4678 96.8993 36.4725C96.9252 36.4772 96.9522 36.4866 96.9805 36.5007L96.9452 36.642C96.9169 36.6303 96.8922 36.6232 96.871 36.6208C96.8498 36.6161 96.8227 36.6138 96.7898 36.6138C96.7144 36.6138 96.6343 36.6467 96.5496 36.7127C96.4672 36.7763 96.393 36.8881 96.327 37.0482V38.2032H96.1716ZM97.7554 38.2456C97.673 38.2456 97.6047 38.2327 97.5505 38.2068C97.4964 38.1832 97.4528 38.1491 97.4198 38.1043C97.3869 38.0596 97.3633 38.0054 97.3492 37.9419C97.3374 37.8783 97.3315 37.8088 97.3315 37.7335V36.642H97.0666V36.5219L97.3351 36.5078L97.3563 36.0168H97.4905V36.5078H97.9815V36.642H97.4905V37.7476C97.4905 37.8018 97.494 37.8512 97.5011 37.8959C97.5105 37.9383 97.5258 37.976 97.547 38.009C97.5682 38.0396 97.5964 38.0643 97.6318 38.0832C97.6694 38.0996 97.7177 38.1079 97.7766 38.1079C97.8096 38.1079 97.8449 38.1032 97.8826 38.0937C97.9226 38.082 97.9579 38.069 97.9885 38.0549L98.0309 38.1821C97.9815 38.2009 97.932 38.2162 97.8826 38.228C97.8331 38.2397 97.7907 38.2456 97.7554 38.2456ZM98.393 38.2032V36.5078H98.5273L98.5414 36.7692H98.552C98.6391 36.6821 98.7286 36.6102 98.8204 36.5537C98.9123 36.4949 99.017 36.4654 99.1348 36.4654C99.3114 36.4654 99.4409 36.5184 99.5233 36.6244C99.6057 36.7303 99.647 36.894 99.647 37.1153V38.2032H99.4915V37.1365C99.4915 36.9552 99.4609 36.8222 99.3997 36.7374C99.3408 36.6503 99.2419 36.6067 99.103 36.6067C99.0017 36.6067 98.9099 36.6338 98.8275 36.6879C98.7451 36.7398 98.6521 36.8186 98.5484 36.9246V38.2032H98.393ZM100.916 38.2456C100.807 38.2456 100.705 38.2256 100.609 38.1856C100.514 38.1456 100.432 38.0879 100.361 38.0125C100.291 37.9348 100.234 37.8418 100.192 37.7335C100.152 37.6228 100.132 37.498 100.132 37.3591C100.132 37.2201 100.152 37.0953 100.192 36.9846C100.234 36.874 100.289 36.781 100.358 36.7056C100.428 36.6279 100.507 36.569 100.594 36.529C100.684 36.4866 100.776 36.4654 100.87 36.4654C101.072 36.4654 101.231 36.5337 101.347 36.6703C101.462 36.8069 101.52 37 101.52 37.2496C101.52 37.2708 101.52 37.2919 101.52 37.3131C101.52 37.3343 101.517 37.3555 101.513 37.3767H100.291C100.293 37.4827 100.309 37.5816 100.34 37.6734C100.371 37.7629 100.413 37.8406 100.467 37.9065C100.524 37.9701 100.591 38.0208 100.669 38.0584C100.746 38.0937 100.833 38.1114 100.93 38.1114C101.022 38.1114 101.104 38.0985 101.177 38.0726C101.253 38.0443 101.322 38.0066 101.386 37.9595L101.449 38.0796C101.381 38.1197 101.306 38.1573 101.223 38.1927C101.143 38.228 101.041 38.2456 100.916 38.2456ZM100.291 37.2496H101.371C101.371 37.0306 101.327 36.8681 101.237 36.7621C101.148 36.6538 101.026 36.5996 100.873 36.5996C100.8 36.5996 100.731 36.6149 100.665 36.6456C100.599 36.6738 100.539 36.7162 100.485 36.7727C100.433 36.8292 100.39 36.8975 100.354 36.9776C100.321 37.0576 100.3 37.1483 100.291 37.2496ZM101.98 38.2032V36.5078H102.115L102.129 36.8222H102.139C102.196 36.7162 102.264 36.6303 102.344 36.5643C102.427 36.4984 102.518 36.4654 102.62 36.4654C102.653 36.4654 102.682 36.4678 102.708 36.4725C102.734 36.4772 102.761 36.4866 102.789 36.5007L102.754 36.642C102.726 36.6303 102.701 36.6232 102.68 36.6208C102.659 36.6161 102.631 36.6138 102.599 36.6138C102.523 36.6138 102.443 36.6467 102.358 36.7127C102.276 36.7763 102.202 36.8881 102.136 37.0482V38.2032H101.98ZM103.511 38.2456C103.384 38.2456 103.267 38.2233 103.161 38.1785C103.056 38.1314 102.965 38.0761 102.89 38.0125L102.981 37.8959C103.054 37.9572 103.132 38.009 103.214 38.0514C103.297 38.0914 103.399 38.1114 103.522 38.1114C103.656 38.1114 103.756 38.0784 103.822 38.0125C103.89 37.9442 103.924 37.8653 103.924 37.7759C103.924 37.724 103.911 37.6781 103.886 37.6381C103.862 37.5981 103.83 37.5639 103.79 37.5357C103.75 37.5074 103.705 37.4827 103.656 37.4615C103.609 37.4403 103.561 37.4203 103.511 37.4014C103.448 37.3779 103.383 37.3532 103.317 37.3273C103.253 37.3014 103.196 37.2708 103.144 37.2354C103.092 37.1978 103.05 37.1542 103.017 37.1047C102.986 37.0529 102.971 36.9905 102.971 36.9175C102.971 36.8563 102.983 36.7986 103.006 36.7445C103.03 36.6879 103.065 36.6397 103.112 36.5996C103.159 36.5573 103.216 36.5243 103.282 36.5007C103.35 36.4772 103.429 36.4654 103.518 36.4654C103.608 36.4654 103.695 36.4819 103.78 36.5149C103.867 36.5478 103.941 36.5902 104.002 36.642L103.917 36.7515C103.861 36.7091 103.801 36.6738 103.737 36.6456C103.674 36.6149 103.598 36.5996 103.511 36.5996C103.445 36.5996 103.389 36.6091 103.342 36.6279C103.295 36.6444 103.255 36.6668 103.222 36.695C103.191 36.7233 103.167 36.7562 103.151 36.7939C103.137 36.8316 103.13 36.8693 103.13 36.9069C103.13 36.9564 103.14 36.9988 103.161 37.0341C103.185 37.0671 103.216 37.0965 103.253 37.1224C103.291 37.1483 103.333 37.1719 103.38 37.193C103.43 37.2119 103.479 37.2307 103.529 37.2496C103.595 37.2755 103.661 37.3014 103.727 37.3273C103.793 37.3532 103.851 37.385 103.903 37.4226C103.957 37.4603 104.001 37.5074 104.034 37.5639C104.067 37.6181 104.083 37.6864 104.083 37.7688C104.083 37.8324 104.07 37.8936 104.045 37.9525C104.021 38.009 103.984 38.0596 103.935 38.1043C103.886 38.1467 103.826 38.1809 103.755 38.2068C103.684 38.2327 103.603 38.2456 103.511 38.2456ZM105.258 38.2032V35.8755H105.42V38.062H106.494V38.2032H105.258ZM106.889 38.2032V36.5078H107.044V38.2032H106.889ZM106.97 36.0981C106.93 36.0981 106.896 36.0851 106.868 36.0592C106.842 36.0333 106.829 36.0004 106.829 35.9603C106.829 35.9156 106.842 35.8814 106.868 35.8579C106.896 35.832 106.93 35.819 106.97 35.819C107.01 35.819 107.043 35.832 107.069 35.8579C107.097 35.8814 107.111 35.9156 107.111 35.9603C107.111 36.0004 107.097 36.0333 107.069 36.0592C107.043 36.0851 107.01 36.0981 106.97 36.0981ZM107.696 38.2032V36.5078H107.83L107.844 36.7692H107.855C107.93 36.6821 108.014 36.6102 108.106 36.5537C108.2 36.4949 108.294 36.4654 108.388 36.4654C108.525 36.4654 108.63 36.4972 108.703 36.5608C108.776 36.622 108.827 36.7056 108.858 36.8116C108.957 36.7056 109.052 36.622 109.144 36.5608C109.238 36.4972 109.335 36.4654 109.434 36.4654C109.773 36.4654 109.942 36.6821 109.942 37.1153V38.2032H109.784V37.1365C109.784 36.9552 109.753 36.8222 109.692 36.7374C109.63 36.6503 109.535 36.6067 109.406 36.6067C109.253 36.6067 109.083 36.7127 108.897 36.9246V38.2032H108.742V37.1365C108.742 36.9552 108.711 36.8222 108.65 36.7374C108.588 36.6503 108.492 36.6067 108.36 36.6067C108.207 36.6067 108.037 36.7127 107.851 36.9246V38.2032H107.696ZM110.562 38.2032V36.5078H110.718V38.2032H110.562ZM110.644 36.0981C110.604 36.0981 110.57 36.0851 110.541 36.0592C110.515 36.0333 110.502 36.0004 110.502 35.9603C110.502 35.9156 110.515 35.8814 110.541 35.8579C110.57 35.832 110.604 35.819 110.644 35.819C110.684 35.819 110.717 35.832 110.743 35.8579C110.771 35.8814 110.785 35.9156 110.785 35.9603C110.785 36.0004 110.771 36.0333 110.743 36.0592C110.717 36.0851 110.684 36.0981 110.644 36.0981ZM111.832 38.2456C111.75 38.2456 111.682 38.2327 111.627 38.2068C111.573 38.1832 111.53 38.1491 111.497 38.1043C111.464 38.0596 111.44 38.0054 111.426 37.9419C111.414 37.8783 111.408 37.8088 111.408 37.7335V36.642H111.144V36.5219L111.412 36.5078L111.433 36.0168H111.567V36.5078H112.058V36.642H111.567V37.7476C111.567 37.8018 111.571 37.8512 111.578 37.8959C111.587 37.9383 111.603 37.976 111.624 38.009C111.645 38.0396 111.673 38.0643 111.709 38.0832C111.746 38.0996 111.795 38.1079 111.854 38.1079C111.886 38.1079 111.922 38.1032 111.959 38.0937C112 38.082 112.035 38.069 112.065 38.0549L112.108 38.1821C112.058 38.2009 112.009 38.2162 111.959 38.228C111.91 38.2397 111.868 38.2456 111.832 38.2456ZM113.075 38.2456C112.967 38.2456 112.864 38.2256 112.768 38.1856C112.673 38.1456 112.591 38.0879 112.52 38.0125C112.45 37.9348 112.393 37.8418 112.351 37.7335C112.311 37.6228 112.291 37.498 112.291 37.3591C112.291 37.2201 112.311 37.0953 112.351 36.9846C112.393 36.874 112.449 36.781 112.517 36.7056C112.587 36.6279 112.666 36.569 112.753 36.529C112.843 36.4866 112.935 36.4654 113.029 36.4654C113.231 36.4654 113.39 36.5337 113.506 36.6703C113.621 36.8069 113.679 37 113.679 37.2496C113.679 37.2708 113.679 37.2919 113.679 37.3131C113.679 37.3343 113.677 37.3555 113.672 37.3767H112.45C112.452 37.4827 112.469 37.5816 112.499 37.6734C112.53 37.7629 112.572 37.8406 112.626 37.9065C112.683 37.9701 112.75 38.0208 112.828 38.0584C112.905 38.0937 112.992 38.1114 113.089 38.1114C113.181 38.1114 113.263 38.0985 113.336 38.0726C113.412 38.0443 113.481 38.0066 113.545 37.9595L113.608 38.0796C113.54 38.1197 113.465 38.1573 113.382 38.1927C113.302 38.228 113.2 38.2456 113.075 38.2456ZM112.45 37.2496H113.531C113.531 37.0306 113.486 36.8681 113.396 36.7621C113.307 36.6538 113.186 36.5996 113.032 36.5996C112.959 36.5996 112.89 36.6149 112.824 36.6456C112.758 36.6738 112.698 36.7162 112.644 36.7727C112.592 36.8292 112.549 36.8975 112.513 36.9776C112.48 37.0576 112.459 37.1483 112.45 37.2496ZM114.701 38.2456C114.487 38.2456 114.316 38.1703 114.189 38.0196C114.062 37.8665 113.998 37.6463 113.998 37.3591C113.998 37.2225 114.018 37.0989 114.058 36.9882C114.098 36.8775 114.152 36.7833 114.221 36.7056C114.291 36.6279 114.371 36.569 114.461 36.529C114.553 36.4866 114.649 36.4654 114.751 36.4654C114.854 36.4654 114.944 36.4843 115.019 36.5219C115.097 36.5573 115.178 36.6079 115.263 36.6738L115.256 36.363V35.6636H115.411V38.2032H115.277L115.263 37.9843H115.252C115.184 38.0525 115.103 38.1138 115.008 38.1679C114.917 38.2197 114.814 38.2456 114.701 38.2456ZM114.722 38.1079C114.816 38.1079 114.906 38.0843 114.991 38.0372C115.078 37.9878 115.166 37.9183 115.256 37.8288V36.8222C115.166 36.7421 115.081 36.6856 115.001 36.6526C114.924 36.6197 114.844 36.6032 114.761 36.6032C114.676 36.6032 114.597 36.6232 114.524 36.6632C114.451 36.7009 114.388 36.7539 114.334 36.8222C114.282 36.8881 114.241 36.9682 114.21 37.0624C114.179 37.1542 114.164 37.2531 114.164 37.3591C114.164 37.4721 114.176 37.5745 114.2 37.6664C114.225 37.7582 114.262 37.8371 114.309 37.903C114.356 37.9666 114.414 38.0172 114.482 38.0549C114.553 38.0902 114.633 38.1079 114.722 38.1079Z" fill="white"/>
<path d="M179.283 37.899V35.5713H179.951C180.066 35.5713 180.171 35.5831 180.265 35.6066C180.359 35.6278 180.439 35.6631 180.505 35.7126C180.571 35.762 180.622 35.8256 180.657 35.9033C180.695 35.981 180.713 36.0752 180.713 36.1859C180.713 36.3719 180.659 36.5179 180.551 36.6239C180.445 36.7298 180.3 36.7946 180.117 36.8181L180.759 37.899H180.572L179.94 36.8287H179.445V37.899H179.283ZM179.445 36.6945H179.908C180.115 36.6945 180.273 36.6533 180.381 36.5709C180.492 36.4861 180.547 36.3578 180.547 36.1859C180.547 36.0116 180.492 35.8892 180.381 35.8185C180.271 35.7455 180.113 35.709 179.908 35.709H179.445V36.6945ZM182.031 37.9414C181.887 37.9414 181.755 37.9131 181.635 37.8566C181.515 37.8001 181.411 37.72 181.324 37.6164C181.24 37.5104 181.174 37.3833 181.127 37.2349C181.079 37.0842 181.056 36.9159 181.056 36.7298C181.056 36.5462 181.079 36.3802 181.127 36.2318C181.176 36.0835 181.244 35.9575 181.331 35.8539C181.419 35.7479 181.522 35.6678 181.642 35.6137C181.765 35.5572 181.9 35.5289 182.048 35.5289C182.185 35.5289 182.305 35.5572 182.409 35.6137C182.512 35.6702 182.595 35.7349 182.656 35.8079L182.561 35.9174C182.497 35.8444 182.423 35.7868 182.338 35.7444C182.253 35.6996 182.158 35.6773 182.052 35.6773C181.925 35.6773 181.809 35.702 181.706 35.7514C181.605 35.8009 181.517 35.8715 181.444 35.9634C181.374 36.0528 181.32 36.1623 181.282 36.2919C181.244 36.4214 181.225 36.5674 181.225 36.7298C181.225 36.8923 181.244 37.0395 181.282 37.1714C181.32 37.3009 181.374 37.4115 181.444 37.5034C181.515 37.5952 181.6 37.667 181.699 37.7188C181.8 37.7683 181.913 37.793 182.038 37.793C182.158 37.793 182.265 37.7695 182.359 37.7224C182.453 37.6729 182.543 37.6011 182.628 37.5069L182.723 37.6093C182.634 37.713 182.534 37.7942 182.423 37.8531C182.312 37.9119 182.181 37.9414 182.031 37.9414ZM184.657 37.899V37.2243H183.619V37.1325L184.668 35.6419H184.809V37.0901H185.145V37.2243H184.809V37.899H184.657ZM183.81 37.0901H184.657V36.2636C184.657 36.2118 184.659 36.147 184.661 36.0693C184.663 35.9916 184.667 35.9269 184.672 35.8751H184.657C184.629 35.9222 184.6 35.9681 184.569 36.0128C184.539 36.0575 184.507 36.1058 184.474 36.1576L183.81 37.0901ZM186.175 37.9414C185.946 37.9414 185.766 37.8495 185.634 37.6659C185.502 37.4822 185.436 37.2185 185.436 36.8747C185.436 36.6392 185.459 36.4402 185.503 36.2777C185.551 36.1152 185.612 35.9834 185.687 35.8821C185.765 35.7809 185.853 35.709 185.952 35.6667C186.053 35.6219 186.158 35.5995 186.266 35.5995C186.372 35.5995 186.463 35.6196 186.538 35.6596C186.616 35.6996 186.684 35.7526 186.743 35.8185L186.648 35.9245C186.598 35.8633 186.541 35.8174 186.475 35.7868C186.409 35.7538 186.339 35.7373 186.266 35.7373C186.177 35.7373 186.091 35.7573 186.009 35.7973C185.929 35.835 185.858 35.8974 185.797 35.9846C185.735 36.0717 185.686 36.1871 185.648 36.3307C185.613 36.472 185.595 36.6451 185.595 36.8499C185.673 36.7534 185.76 36.6769 185.857 36.6203C185.956 36.5638 186.058 36.5356 186.164 36.5356C186.364 36.5356 186.518 36.5956 186.627 36.7157C186.737 36.8334 186.793 37.0065 186.793 37.2349C186.793 37.3385 186.776 37.4339 186.743 37.521C186.71 37.6058 186.666 37.68 186.609 37.7436C186.553 37.8048 186.487 37.8531 186.411 37.8884C186.338 37.9237 186.259 37.9414 186.175 37.9414ZM186.178 37.8072C186.244 37.8072 186.304 37.793 186.358 37.7648C186.415 37.7342 186.463 37.6929 186.503 37.6411C186.543 37.5893 186.575 37.5293 186.598 37.461C186.622 37.3904 186.634 37.315 186.634 37.2349C186.634 37.1549 186.624 37.0807 186.606 37.0124C186.587 36.9418 186.557 36.8817 186.517 36.8323C186.48 36.7805 186.429 36.7404 186.365 36.7122C186.304 36.6839 186.231 36.6698 186.146 36.6698C186.066 36.6698 185.978 36.6957 185.881 36.7475C185.785 36.797 185.691 36.8841 185.599 37.0089C185.606 37.129 185.622 37.2385 185.648 37.3374C185.677 37.4339 185.714 37.5175 185.761 37.5882C185.808 37.6564 185.866 37.7106 185.934 37.7506C186.005 37.7883 186.086 37.8072 186.178 37.8072ZM187.801 37.9414C187.698 37.9414 187.602 37.9261 187.515 37.8955C187.428 37.8625 187.353 37.8189 187.289 37.7648C187.225 37.7082 187.175 37.6423 187.137 37.567C187.102 37.4916 187.084 37.4092 187.084 37.3197C187.084 37.2444 187.097 37.1737 187.123 37.1078C187.151 37.0418 187.187 36.983 187.229 36.9312C187.274 36.877 187.322 36.8299 187.374 36.7899C187.428 36.7475 187.482 36.7122 187.536 36.6839V36.6698C187.494 36.6415 187.453 36.6109 187.413 36.578C187.375 36.5426 187.341 36.5038 187.31 36.4614C187.282 36.4167 187.258 36.3696 187.24 36.3201C187.221 36.2683 187.211 36.2118 187.211 36.1506C187.211 36.0705 187.227 35.9963 187.257 35.928C187.288 35.8597 187.329 35.8021 187.381 35.755C187.435 35.7055 187.497 35.6678 187.568 35.6419C187.641 35.6137 187.719 35.5995 187.801 35.5995C187.898 35.5995 187.984 35.6149 188.059 35.6455C188.134 35.6737 188.198 35.7149 188.25 35.7691C188.304 35.8209 188.344 35.8833 188.37 35.9563C188.398 36.0269 188.412 36.1046 188.412 36.1894C188.412 36.2506 188.402 36.3107 188.38 36.3696C188.359 36.4261 188.332 36.4791 188.299 36.5285C188.269 36.578 188.235 36.6227 188.197 36.6627C188.159 36.7028 188.124 36.7357 188.091 36.7616V36.7758C188.14 36.8064 188.189 36.8393 188.236 36.8747C188.283 36.91 188.324 36.95 188.359 36.9948C188.397 37.0395 188.428 37.0913 188.451 37.1502C188.475 37.209 188.486 37.2761 188.486 37.3515C188.486 37.4339 188.47 37.5116 188.437 37.5846C188.404 37.6553 188.357 37.7177 188.296 37.7718C188.237 37.8236 188.165 37.8648 188.08 37.8955C187.995 37.9261 187.902 37.9414 187.801 37.9414ZM187.967 36.7157C188.064 36.638 188.137 36.5568 188.186 36.472C188.238 36.3849 188.264 36.2919 188.264 36.1929C188.264 36.1294 188.253 36.0705 188.232 36.0163C188.211 35.9598 188.18 35.9104 188.14 35.868C188.103 35.8256 188.054 35.7926 187.995 35.7691C187.939 35.7432 187.874 35.7302 187.801 35.7302C187.738 35.7302 187.679 35.7408 187.625 35.762C187.573 35.7832 187.527 35.8127 187.487 35.8503C187.449 35.8857 187.42 35.9292 187.399 35.981C187.377 36.0328 187.367 36.0893 187.367 36.1506C187.367 36.2306 187.383 36.3001 187.416 36.359C187.452 36.4155 187.497 36.4661 187.554 36.5108C187.61 36.5532 187.674 36.5909 187.745 36.6239C187.818 36.6568 187.892 36.6875 187.967 36.7157ZM187.801 37.8107C187.881 37.8107 187.953 37.7989 188.017 37.7754C188.083 37.7518 188.138 37.7188 188.183 37.6765C188.23 37.6341 188.265 37.5846 188.289 37.5281C188.315 37.4716 188.328 37.4115 188.328 37.348C188.328 37.2608 188.308 37.1878 188.267 37.129C188.23 37.0677 188.178 37.0148 188.112 36.97C188.048 36.9229 187.975 36.8829 187.893 36.8499C187.811 36.8146 187.726 36.7793 187.639 36.744C187.523 36.8123 187.428 36.8935 187.353 36.9877C187.277 37.0795 187.24 37.1878 187.24 37.3126C187.24 37.3833 187.254 37.4492 187.282 37.5104C187.31 37.5693 187.349 37.6211 187.399 37.6659C187.448 37.7106 187.507 37.7459 187.575 37.7718C187.643 37.7977 187.719 37.8107 187.801 37.8107ZM189.297 37.899C189.307 37.6706 189.325 37.4622 189.354 37.2738C189.384 37.0831 189.427 36.9041 189.481 36.7369C189.535 36.5674 189.603 36.4061 189.686 36.253C189.768 36.0976 189.866 35.9398 189.979 35.7797H188.789V35.6419H190.177V35.7338C190.042 35.9127 189.931 36.0846 189.841 36.2495C189.754 36.4143 189.683 36.5827 189.629 36.7546C189.577 36.9241 189.54 37.1019 189.516 37.2879C189.493 37.4739 189.476 37.6776 189.467 37.899H189.297ZM190.62 37.899V37.7612H191.15V35.8892H190.747V35.7832C190.839 35.7667 190.92 35.7467 190.991 35.7232C191.064 35.6996 191.127 35.6725 191.182 35.6419H191.309V37.7612H191.8V37.899H190.62ZM192.858 37.9414C192.641 37.9414 192.474 37.8401 192.356 37.6376C192.241 37.4327 192.183 37.1407 192.183 36.7616C192.183 36.3849 192.241 36.0976 192.356 35.8998C192.474 35.6996 192.641 35.5995 192.858 35.5995C193.074 35.5995 193.24 35.6996 193.356 35.8998C193.473 36.0976 193.532 36.3849 193.532 36.7616C193.532 37.1407 193.473 37.4327 193.356 37.6376C193.24 37.8401 193.074 37.9414 192.858 37.9414ZM192.858 37.8072C193.015 37.8072 193.14 37.72 193.232 37.5458C193.326 37.3692 193.373 37.1078 193.373 36.7616C193.373 36.4155 193.326 36.1576 193.232 35.9881C193.14 35.8185 193.015 35.7338 192.858 35.7338C192.702 35.7338 192.577 35.8185 192.483 35.9881C192.389 36.1576 192.342 36.4155 192.342 36.7616C192.342 37.1078 192.389 37.3692 192.483 37.5458C192.577 37.72 192.702 37.8072 192.858 37.8072Z" fill="white"/>
</g>
<defs>
<clipPath id="clip0_3216_133">
<rect width="201" height="46.5752" fill="white" transform="translate(0 0.849548)"/>
</clipPath>
</defs>
</svg>
