<svg width="199" height="47" viewBox="0 0 199 47" fill="none" xmlns="http://www.w3.org/2000/svg">
<path d="M23.797 38.5356C19.5726 38.5356 15.3483 38.5213 11.1239 38.55C10.4139 38.55 9.93335 38.3277 9.46716 37.8328C6.5266 34.7129 3.56453 31.6146 0.595283 28.5234C0.17213 28.0859 0 27.6269 0 27.0173C0.0286884 24.3636 0.0286884 21.7099 0 19.0563C0 18.4395 0.200819 18.0163 0.623972 17.5716C3.61473 14.4589 6.59115 11.3176 9.54605 8.16902C9.96921 7.72435 10.4067 7.52353 11.0307 7.52353C19.5153 7.53787 27.9998 7.54505 36.4916 7.52353C37.3092 7.52353 37.51 7.78172 37.4957 8.55631C37.4527 11.4538 37.4455 14.3585 37.4957 17.2561C37.51 18.1167 37.2303 18.3104 36.4055 18.3104C28.2365 18.2817 20.0747 18.3104 11.9057 18.2673C10.9159 18.2673 10.6649 18.5399 10.6936 19.5009C10.7653 21.9394 10.751 24.3851 10.6936 26.8236C10.6721 27.6628 10.9159 27.8923 11.7622 27.8851C19.8954 27.8564 28.0214 27.8851 36.1545 27.8421C37.2231 27.8421 37.5387 28.0787 37.5029 29.1761C37.4168 31.966 37.4455 34.7631 37.4957 37.5602C37.51 38.3707 37.259 38.5715 36.4701 38.5643C32.2457 38.5285 28.0214 38.55 23.797 38.55V38.5356Z" fill="#737372"/>
<path d="M183.527 22.7427C183.527 21.5737 183.527 20.4118 183.527 19.2427C183.527 15.9866 185.018 14.0215 188.188 13.1608C190.362 12.5727 192.542 12.6157 194.694 13.2469C197.505 14.0788 198.99 16.13 198.997 19.0849C199.004 21.5235 198.997 23.962 198.997 26.4077C198.997 29.7857 197.483 31.7939 194.227 32.6259C191.911 33.214 189.587 33.1638 187.328 32.3246C184.882 31.4209 183.541 29.4701 183.534 26.881C183.534 25.504 183.534 24.1198 183.534 22.7427H183.527Z" fill="#922D27"/>
<path d="M147.996 32.7549C148.914 29.757 149.803 26.8595 150.7 23.9548C151.74 20.5767 152.794 17.2059 153.805 13.8206C153.985 13.211 154.221 12.9672 154.888 12.9887C156.38 13.046 157.872 13.0245 159.364 12.9887C159.909 12.9743 160.16 13.1321 160.332 13.6844C162.19 19.7663 164.062 25.8482 165.969 31.9158C166.213 32.6904 165.977 32.7908 165.295 32.7621C164.09 32.7119 162.685 33.1136 161.731 32.6187C160.791 32.131 160.97 30.5531 160.597 29.4701C160.44 29.0183 160.253 28.8533 159.787 28.8605C158.015 28.882 156.237 28.8892 154.465 28.8605C153.935 28.8533 153.719 29.0398 153.605 29.5418C153.411 30.4025 153.117 31.2416 152.909 32.0951C152.809 32.5326 152.665 32.7693 152.149 32.7549C150.808 32.7191 149.459 32.7406 148.003 32.7406L147.996 32.7549Z" fill="#922D27"/>
<path d="M77.2506 22.8646C77.2506 19.8954 77.2721 16.919 77.2362 13.9497C77.2291 13.2253 77.4012 12.9743 78.1686 12.9886C80.8653 13.0317 83.562 13.0102 86.2659 13.0102C87.1265 13.0102 87.9585 13.1823 88.769 13.4261C90.5189 13.964 91.6019 15.1116 91.9175 16.9333C92.2259 18.7622 92.2187 20.6126 91.9821 22.4271C91.6234 25.2099 89.6009 26.7017 86.3448 26.7949C85.0682 26.8308 83.7844 26.8308 82.5077 26.7949C81.9483 26.7806 81.769 26.9742 81.7833 27.5265C81.812 29.0111 81.769 30.4957 81.8049 31.9803C81.8192 32.5828 81.6184 32.7908 81.0159 32.7621C79.811 32.7047 78.2403 33.1637 77.5016 32.5684C76.727 31.9445 77.2793 30.3164 77.2578 29.1258C77.2219 27.0388 77.2506 24.9517 77.2506 22.8646Z" fill="#737372"/>
<path d="M132.189 22.7642C132.189 19.795 132.21 16.8257 132.174 13.8637C132.167 13.1536 132.39 12.9815 133.071 12.9887C135.768 13.0245 138.457 13.003 141.154 13.0102C142.007 13.0102 142.839 13.1752 143.657 13.4262C145.55 13.9928 146.626 15.2694 146.877 17.2202C147.085 18.8339 147.071 20.4692 146.927 22.0829C146.712 24.6362 145.292 26.0993 142.775 26.6013C141.046 26.9456 139.311 26.8021 137.582 26.7949C136.822 26.7949 136.621 27.0173 136.65 27.7488C136.707 29.1976 136.65 30.6464 136.679 32.0951C136.686 32.5828 136.564 32.841 136.033 32.7621C135.961 32.755 135.89 32.7621 135.818 32.7621C134.656 32.7406 133.128 33.1494 132.418 32.5757C131.672 31.966 132.217 30.3953 132.196 29.2406C132.153 27.089 132.182 24.9302 132.182 22.7786L132.189 22.7642Z" fill="#922D27"/>
<path d="M122.894 12.795C124.486 12.7018 126.128 13.0173 127.778 13.2253C128.438 13.3114 128.71 13.5911 128.553 14.2725C128.452 14.7171 128.423 15.1833 128.366 15.6352C128.165 17.2704 128.172 17.2345 126.501 16.9907C124.859 16.7468 123.209 16.4815 121.538 16.7325C120.663 16.8688 120.226 17.3278 120.226 18.2171C120.226 19.1423 120.089 20.1177 121.309 20.4476C122.808 20.8564 124.321 21.215 125.798 21.6884C128.316 22.4917 128.961 23.381 129.09 25.9773C129.105 26.2929 129.09 26.6156 129.09 26.9312C129.09 31.0049 127.921 32.4107 123.84 32.8912C121.215 33.1996 118.612 32.9127 116.095 32.0162C115.542 31.8226 115.27 31.6146 115.492 30.9547C115.715 30.2877 115.844 29.5849 115.944 28.8892C116.03 28.2939 116.26 28.2509 116.805 28.4087C118.684 28.9537 120.606 29.2263 122.571 29.1402C123.876 29.0828 124.407 28.6955 124.536 27.6771C124.751 25.9199 124.472 25.3175 123.123 24.9374C121.696 24.5357 120.233 24.2632 118.82 23.8257C116.676 23.1659 115.872 22.1116 115.772 19.8954C115.715 18.6259 115.636 17.3565 115.93 16.0942C116.274 14.6024 117.192 13.6772 118.619 13.2325C119.989 12.8022 121.402 12.7305 122.901 12.7878L122.894 12.795Z" fill="#922D27"/>
<path d="M61.2353 22.8575C61.2353 21.6884 61.2353 20.5194 61.2353 19.3575C61.2353 15.3626 63.2076 13.1751 67.2096 12.8237C69.3756 12.6372 71.5272 12.8811 73.6717 13.2469C74.1307 13.3257 74.3459 13.5122 74.2383 14.0286C74.0662 14.8247 73.894 15.628 73.851 16.4313C73.808 17.2489 73.4063 17.3278 72.7465 17.2202C71.3838 16.9835 70.0068 16.8401 68.6225 16.8472C66.6502 16.8544 65.933 17.4282 65.8111 19.3503C65.6605 21.7458 65.639 24.1556 65.8254 26.5582C65.9617 28.2939 66.6646 28.882 68.4432 28.9179C69.8633 28.9394 71.2762 28.7744 72.6748 28.5521C73.3561 28.4445 73.8151 28.4804 73.8582 29.3697C73.894 30.173 74.0733 30.9834 74.2455 31.7724C74.3459 32.2385 74.1522 32.4394 73.7434 32.5039C71.1471 32.9056 68.5437 33.257 65.9258 32.7262C62.9996 32.131 61.2783 30.008 61.2568 27.0029C61.2425 25.6259 61.2568 24.2417 61.2568 22.8646L61.2353 22.8575Z" fill="#737372"/>
<path d="M167.963 22.8646C167.963 21.6597 167.963 20.462 167.963 19.2571C167.963 15.2335 170.129 12.9887 174.217 12.8022C176.247 12.7089 178.248 12.9169 180.256 13.2253C180.923 13.3257 181.045 13.6413 180.909 14.2438C180.744 14.9681 180.586 15.6997 180.55 16.4384C180.507 17.256 180.098 17.3349 179.431 17.2202C177.997 16.9763 176.548 16.8185 175.092 16.8472C173.263 16.8903 172.496 17.6146 172.467 19.4435C172.424 21.7386 172.424 24.0408 172.467 26.3431C172.503 28.1576 173.285 28.882 175.114 28.9179C176.57 28.9466 178.018 28.7888 179.453 28.5377C180.149 28.4158 180.5 28.5664 180.55 29.3482C180.6 30.1228 180.78 30.883 180.923 31.6504C181.009 32.0951 180.952 32.4178 180.428 32.4967C177.66 32.9055 174.884 33.3717 172.109 32.5685C169.39 31.7795 167.985 29.9076 167.963 27.1177C167.949 25.7048 167.963 24.2847 167.963 22.8718V22.8646Z" fill="#922D27"/>
<path d="M94.729 22.8073C94.729 19.838 94.7433 16.8616 94.7146 13.8924C94.7146 13.2182 94.8724 12.9385 95.604 12.9958C96.522 13.0604 97.4544 13.0676 98.3724 12.9958C99.1685 12.9385 99.2976 13.2684 99.2904 13.9712C99.2617 18.5327 99.3048 23.0941 99.2546 27.6628C99.2474 28.5665 99.5199 28.7816 100.388 28.7601C102.374 28.6955 104.361 28.7601 106.348 28.7242C106.986 28.7099 107.244 28.882 107.201 29.549C107.13 30.5675 107.517 31.88 107.008 32.5254C106.462 33.214 105.085 32.7334 104.074 32.7478C101.27 32.7836 98.4656 32.7334 95.6613 32.7765C94.9154 32.7908 94.7003 32.5757 94.7074 31.8298C94.7505 28.8246 94.7218 25.8195 94.7218 22.8073H94.729Z" fill="#737372"/>
<path d="M27.2109 0C30.2303 0 33.2426 0 36.2621 0C36.9147 0 37.5387 0.00717208 37.467 0.896511C37.4024 1.65675 37.8901 2.67519 36.4916 2.84732C35.76 2.93338 35.0428 3.18441 34.3471 3.4426C33.2498 3.84424 32.4824 4.61165 32.1812 5.75202C32.0234 6.35447 31.7508 6.60549 31.0838 6.59115C28.4588 6.55529 25.8339 6.57681 23.2017 6.57681C22.7857 6.57681 22.3482 6.66287 22.2048 6.06042C21.7745 4.23153 20.4118 3.44978 18.7263 3.04097C18.5183 2.99076 18.3103 2.94056 18.1095 2.89035C16.9835 2.63216 16.3954 1.37704 16.9189 0.365777C17.1556 -0.0860651 17.5716 0.0143442 17.9446 0.00717209C21.0357 0 24.1197 0.00717209 27.2109 0.00717209V0Z" fill="#737372"/>
<path d="M27.1177 46.1022C24.1054 46.1022 21.0931 46.1022 18.0808 46.1022C17.464 46.1022 16.7827 46.1739 16.8544 45.2487C16.9118 44.4598 16.4241 43.3983 17.88 43.2549C18.6403 43.1832 19.4005 42.9321 20.1321 42.6811C21.2437 42.301 22.0112 41.5408 22.2407 40.3645C22.3626 39.7477 22.6208 39.5039 23.295 39.5182C25.8841 39.5613 28.4732 39.5398 31.0552 39.5326C31.4496 39.5326 31.8656 39.4824 31.9517 40.0275C32.2744 42.1289 33.8594 42.7457 35.6381 43.1401C35.8461 43.1832 36.0541 43.2119 36.2621 43.2549C37.3523 43.4701 37.9188 44.718 37.3881 45.7293C37.1299 46.217 36.6709 46.1022 36.2621 46.1022C33.214 46.1022 30.1658 46.1022 27.1177 46.1022Z" fill="#737372"/>
<path d="M57.6349 22.8718C57.6349 25.8769 57.6134 28.882 57.6492 31.8799C57.6564 32.5828 57.4412 32.8051 56.7527 32.7621C55.7988 32.7119 54.8378 32.7262 53.8839 32.7621C53.3531 32.7764 53.1308 32.633 53.138 32.0592C53.1523 25.9486 53.1523 19.8308 53.138 13.7202C53.138 13.1608 53.3245 12.9815 53.8695 13.003C54.8593 13.0388 55.8562 13.0604 56.846 13.003C57.556 12.9599 57.6492 13.2755 57.6492 13.8708C57.6277 16.8759 57.6349 19.881 57.6421 22.8789L57.6349 22.8718Z" fill="#737372"/>
<path d="M44.5459 23.0224C44.5459 18.1813 44.5459 13.3401 44.5459 8.49893C44.5459 8.03992 44.3665 7.48049 45.2129 7.49484C45.9874 7.50918 45.8225 8.0184 45.8225 8.44873C45.8225 18.1669 45.8225 27.8851 45.8225 37.6104C45.8225 38.0408 45.9731 38.5356 45.2057 38.5572C44.3522 38.5787 44.553 38.0049 44.553 37.5531C44.5458 32.7119 44.553 27.8707 44.553 23.0296L44.5459 23.0224Z" fill="#747573"/>
<path d="M194.457 22.9435C194.457 24.1843 194.464 25.4179 194.457 26.6587C194.443 27.8062 193.819 28.5019 192.736 28.7888C191.76 29.047 190.763 29.0541 189.795 28.7888C188.597 28.466 188.045 27.8062 188.031 26.5798C187.995 24.1054 188.002 21.6239 188.031 19.1495C188.045 18.0306 188.619 17.2847 189.716 16.9835C190.727 16.711 191.746 16.711 192.757 16.9763C193.847 17.2632 194.45 17.9733 194.457 19.1136C194.471 20.3903 194.457 21.6597 194.457 22.9363V22.9435Z" fill="white"/>
<path d="M154.817 25.1095C155.555 22.4773 156.265 19.9384 156.976 17.3995C157.399 17.4856 157.298 17.837 157.37 18.0809C157.951 20.1464 158.496 22.2191 159.106 24.2775C159.292 24.9015 159.271 25.1597 158.51 25.1238C157.32 25.0665 156.122 25.1095 154.817 25.1095Z" fill="white"/>
<path d="M81.7618 19.8954C81.8048 18.9845 81.5036 17.7796 81.9698 17.2417C82.5221 16.6178 83.77 17.0911 84.7095 17.0337C85.0968 17.005 85.4913 17.0122 85.8786 17.0337C86.8038 17.0983 87.3919 17.5573 87.521 18.5112C87.5282 18.5829 87.5497 18.6475 87.5569 18.7192C87.729 22.4773 87.5927 22.9937 83.8776 22.9651C81.7977 22.9507 81.7977 22.9651 81.7977 20.8421V19.8882C81.7977 19.8882 81.7762 19.8882 81.7618 19.8882V19.8954Z" fill="white"/>
<path d="M136.671 19.8523C136.772 19.0491 136.234 17.7509 136.887 17.1915C137.446 16.7109 138.708 17.0409 139.662 17.0265C140.085 17.0193 140.516 16.9978 140.939 17.048C141.807 17.1628 142.395 17.6146 142.431 18.547C142.466 19.3933 142.445 20.2396 142.452 21.0859C142.452 22.1402 141.929 22.7068 140.881 22.8646C139.648 23.0511 138.407 22.9292 137.166 22.9722C136.7 22.9865 136.664 22.7068 136.671 22.3554C136.679 21.5808 136.671 20.799 136.671 19.8523Z" fill="white"/>
<path d="M54.0747 37.0621L53.8638 37.6796H55.0386L54.8278 37.0621C54.7608 36.8646 54.6972 36.6755 54.637 36.4948C54.5768 36.3141 54.5182 36.1216 54.4613 35.9174H54.4412C54.3843 36.1216 54.3257 36.3141 54.2655 36.4948C54.2052 36.6755 54.1416 36.8646 54.0747 37.0621ZM53.171 39.01L54.3358 35.7016H54.5667L55.7315 39.01H55.4905L55.1039 37.8754H53.7936L53.402 39.01H53.171ZM57.8228 39.0703C57.6421 39.0703 57.4764 39.0385 57.3258 38.9749C57.1752 38.908 57.0463 38.8293 56.9392 38.7389L57.0697 38.5733C57.1735 38.6603 57.2839 38.7339 57.4011 38.7942C57.5182 38.8511 57.6638 38.8795 57.8379 38.8795C58.0286 38.8795 58.1709 38.8327 58.2646 38.7389C58.3617 38.6419 58.4102 38.5297 58.4102 38.4026C58.4102 38.3289 58.3918 38.2637 58.355 38.2068C58.3215 38.1499 58.2763 38.1013 58.2194 38.0612C58.1625 38.021 58.0989 37.9859 58.0286 37.9557C57.9617 37.9256 57.8931 37.8972 57.8228 37.8704C57.7324 37.8369 57.6404 37.8018 57.5467 37.765C57.4563 37.7281 57.3743 37.6846 57.3007 37.6344C57.227 37.5809 57.1668 37.519 57.1199 37.4487C57.0764 37.375 57.0547 37.2863 57.0547 37.1826C57.0547 37.0956 57.0714 37.0136 57.1049 36.9366C57.1383 36.8563 57.1885 36.7876 57.2555 36.7307C57.3224 36.6705 57.4028 36.6236 57.4965 36.5902C57.5935 36.5567 57.7057 36.54 57.8328 36.54C57.96 36.54 58.0839 36.5634 58.2044 36.6103C58.3282 36.6571 58.4336 36.7174 58.5206 36.791L58.4001 36.9466C58.3198 36.8864 58.2345 36.8362 58.1441 36.796C58.0537 36.7525 57.9466 36.7307 57.8228 36.7307C57.7291 36.7307 57.6488 36.7441 57.5818 36.7709C57.5149 36.7943 57.458 36.8261 57.4111 36.8663C57.3676 36.9065 57.3341 36.9533 57.3107 37.0069C57.2906 37.0604 57.2806 37.114 57.2806 37.1675C57.2806 37.2378 57.2956 37.2981 57.3258 37.3483C57.3592 37.3951 57.4028 37.437 57.4563 37.4738C57.5099 37.5106 57.5701 37.5441 57.637 37.5742C57.7073 37.601 57.7776 37.6277 57.8479 37.6545C57.9416 37.6913 58.0353 37.7281 58.129 37.765C58.2228 37.8018 58.3064 37.847 58.3801 37.9005C58.457 37.9541 58.519 38.021 58.5658 38.1013C58.6127 38.1783 58.6361 38.2754 58.6361 38.3925C58.6361 38.4829 58.6177 38.5699 58.5809 38.6536C58.5474 38.7339 58.4955 38.8059 58.4253 38.8695C58.355 38.9297 58.2696 38.9782 58.1692 39.0151C58.0688 39.0519 57.9533 39.0703 57.8228 39.0703ZM59.9679 39.0703C59.7169 39.0703 59.5328 38.995 59.4157 38.8444C59.2985 38.6938 59.2399 38.4611 59.2399 38.1465V36.6002H59.4608V38.1164C59.4608 38.3741 59.5027 38.5649 59.5864 38.6887C59.6734 38.8092 59.8139 38.8695 60.0081 38.8695C60.152 38.8695 60.2825 38.831 60.3997 38.754C60.5168 38.6737 60.6457 38.5482 60.7862 38.3775V36.6002H61.0071V39.01H60.8214L60.7963 38.6084H60.7862C60.6691 38.749 60.5453 38.8611 60.4147 38.9448C60.2842 39.0284 60.1353 39.0703 59.9679 39.0703ZM62.8762 39.0703C62.7591 39.0703 62.6369 39.0435 62.5098 38.99C62.3859 38.9331 62.2671 38.8578 62.1533 38.764H62.1433L62.1182 39.01H61.9324V35.4003H62.1533V36.4446L62.1433 36.9165C62.2671 36.8128 62.3993 36.7241 62.5399 36.6504C62.6804 36.5768 62.826 36.54 62.9767 36.54C63.298 36.54 63.5389 36.6521 63.6996 36.8763C63.8603 37.0972 63.9406 37.3951 63.9406 37.77C63.9406 37.9742 63.9121 38.1566 63.8552 38.3172C63.7983 38.4779 63.7197 38.6151 63.6193 38.7289C63.5222 38.8393 63.4084 38.9247 63.2779 38.9849C63.1507 39.0418 63.0168 39.0703 62.8762 39.0703ZM62.8662 38.8745C62.9867 38.8745 63.0988 38.8477 63.2026 38.7942C63.3063 38.7406 63.395 38.6653 63.4687 38.5682C63.5423 38.4712 63.5992 38.3557 63.6394 38.2218C63.6829 38.0846 63.7046 37.934 63.7046 37.77C63.7046 37.6227 63.6896 37.4855 63.6594 37.3583C63.6327 37.2311 63.5892 37.1223 63.5289 37.032C63.4687 36.9383 63.39 36.8663 63.2929 36.8161C63.1959 36.7625 63.0787 36.7358 62.9415 36.7358C62.821 36.7358 62.6955 36.7709 62.565 36.8412C62.4344 36.9081 62.2972 37.0052 62.1533 37.1324V38.5632C62.2872 38.677 62.416 38.7573 62.5399 38.8042C62.6637 38.8511 62.7725 38.8745 62.8662 38.8745ZM65.2358 39.0703C65.0551 39.0703 64.8894 39.0385 64.7388 38.9749C64.5882 38.908 64.4593 38.8293 64.3522 38.7389L64.4828 38.5733C64.5865 38.6603 64.697 38.7339 64.8141 38.7942C64.9312 38.8511 65.0768 38.8795 65.2509 38.8795C65.4417 38.8795 65.5839 38.8327 65.6776 38.7389C65.7747 38.6419 65.8232 38.5297 65.8232 38.4026C65.8232 38.3289 65.8048 38.2637 65.768 38.2068C65.7345 38.1499 65.6893 38.1013 65.6324 38.0612C65.5755 38.021 65.5119 37.9859 65.4417 37.9557C65.3747 37.9256 65.3061 37.8972 65.2358 37.8704C65.1455 37.8369 65.0534 37.8018 64.9597 37.765C64.8693 37.7281 64.7873 37.6846 64.7137 37.6344C64.6401 37.5809 64.5798 37.519 64.533 37.4487C64.4894 37.375 64.4677 37.2863 64.4677 37.1826C64.4677 37.0956 64.4844 37.0136 64.5179 36.9366C64.5514 36.8563 64.6016 36.7876 64.6685 36.7307C64.7354 36.6705 64.8158 36.6236 64.9095 36.5902C65.0066 36.5567 65.1187 36.54 65.2459 36.54C65.373 36.54 65.4969 36.5634 65.6174 36.6103C65.7412 36.6571 65.8466 36.7174 65.9337 36.791L65.8132 36.9466C65.7328 36.8864 65.6475 36.8362 65.5571 36.796C65.4668 36.7525 65.3597 36.7307 65.2358 36.7307C65.1421 36.7307 65.0618 36.7441 64.9948 36.7709C64.9279 36.7943 64.871 36.8261 64.8241 36.8663C64.7806 36.9065 64.7472 36.9533 64.7237 37.0069C64.7037 37.0604 64.6936 37.114 64.6936 37.1675C64.6936 37.2378 64.7087 37.2981 64.7388 37.3483C64.7723 37.3951 64.8158 37.437 64.8693 37.4738C64.9229 37.5106 64.9831 37.5441 65.0501 37.5742C65.1204 37.601 65.1906 37.6277 65.2609 37.6545C65.3546 37.6913 65.4484 37.7281 65.5421 37.765C65.6358 37.8018 65.7195 37.847 65.7931 37.9005C65.8701 37.9541 65.932 38.021 65.9789 38.1013C66.0257 38.1783 66.0491 38.2754 66.0491 38.3925C66.0491 38.4829 66.0307 38.5699 65.9939 38.6536C65.9604 38.7339 65.9086 38.8059 65.8383 38.8695C65.768 38.9297 65.6826 38.9782 65.5822 39.0151C65.4818 39.0519 65.3664 39.0703 65.2358 39.0703ZM66.6881 39.01V36.6002H66.909V39.01H66.6881ZM66.8036 36.0178C66.7467 36.0178 66.6982 35.9994 66.658 35.9626C66.6212 35.9258 66.6028 35.8789 66.6028 35.822C66.6028 35.7585 66.6212 35.7099 66.658 35.6765C66.6982 35.6396 66.7467 35.6212 66.8036 35.6212C66.8605 35.6212 66.9073 35.6396 66.9442 35.6765C66.9843 35.7099 67.0044 35.7585 67.0044 35.822C67.0044 35.8789 66.9843 35.9258 66.9442 35.9626C66.9073 35.9994 66.8605 36.0178 66.8036 36.0178ZM68.6336 39.0703C68.329 39.0703 68.0864 38.9632 67.9057 38.749C67.7249 38.5314 67.6345 38.2185 67.6345 37.8101C67.6345 37.616 67.663 37.4403 67.7199 37.283C67.7768 37.1257 67.8538 36.9918 67.9508 36.8814C68.0512 36.7709 68.165 36.6872 68.2922 36.6303C68.4228 36.5701 68.56 36.54 68.7039 36.54C68.8512 36.54 68.9784 36.5667 69.0855 36.6203C69.1959 36.6705 69.3114 36.7425 69.4319 36.8362L69.4218 36.3944V35.4003H69.6427V39.01H69.452L69.4319 38.6988H69.4168C69.3197 38.7958 69.2043 38.8829 69.0704 38.9598C68.9399 39.0335 68.7943 39.0703 68.6336 39.0703ZM68.6637 38.8745C68.7976 38.8745 68.9248 38.841 69.0453 38.7741C69.1691 38.7038 69.2946 38.6051 69.4218 38.4779V37.047C69.2946 36.9332 69.1742 36.8529 69.0604 36.8061C68.9499 36.7592 68.8361 36.7358 68.719 36.7358C68.5985 36.7358 68.4864 36.7642 68.3826 36.8211C68.2788 36.8747 68.1885 36.95 68.1115 37.047C68.0379 37.1408 67.9793 37.2546 67.9358 37.3884C67.8923 37.519 67.8705 37.6595 67.8705 37.8101C67.8705 37.9708 67.8872 38.1164 67.9207 38.2469C67.9575 38.3775 68.0094 38.4896 68.0763 38.5833C68.1433 38.6737 68.2253 38.7456 68.3223 38.7992C68.4228 38.8494 68.5366 38.8745 68.6637 38.8745ZM70.5662 39.01V36.6002H70.7871V39.01H70.5662ZM70.6817 36.0178C70.6248 36.0178 70.5763 35.9994 70.5361 35.9626C70.4993 35.9258 70.4809 35.8789 70.4809 35.822C70.4809 35.7585 70.4993 35.7099 70.5361 35.6765C70.5763 35.6396 70.6248 35.6212 70.6817 35.6212C70.7386 35.6212 70.7854 35.6396 70.8223 35.6765C70.8624 35.7099 70.8825 35.7585 70.8825 35.822C70.8825 35.8789 70.8624 35.9258 70.8223 35.9626C70.7854 35.9994 70.7386 36.0178 70.6817 36.0178ZM72.2406 39.0703C72.1436 39.0703 72.0532 39.0569 71.9695 39.0301C71.8858 39.0033 71.8122 38.9632 71.7486 38.9096C71.685 38.8561 71.6348 38.7875 71.598 38.7038C71.5612 38.6201 71.5428 38.5214 71.5428 38.4076C71.5428 38.1398 71.6666 37.9373 71.9143 37.8001C72.1653 37.6595 72.5603 37.5591 73.0991 37.4989C73.0991 37.4085 73.0924 37.3181 73.079 37.2278C73.0657 37.1341 73.0372 37.0521 72.9937 36.9818C72.9502 36.9081 72.8916 36.8496 72.818 36.8061C72.7443 36.7592 72.6473 36.7358 72.5268 36.7358C72.3661 36.7358 72.2189 36.7676 72.085 36.8312C71.9511 36.8948 71.8423 36.9567 71.7587 37.0169L71.6583 36.8512C71.7018 36.8211 71.7536 36.7876 71.8139 36.7508C71.8775 36.714 71.9478 36.6805 72.0247 36.6504C72.1017 36.6203 72.1854 36.5952 72.2758 36.5751C72.3661 36.5517 72.4599 36.54 72.5569 36.54C72.6975 36.54 72.8163 36.5651 72.9134 36.6153C73.0104 36.6621 73.0891 36.7274 73.1493 36.8111C73.2096 36.8948 73.2531 36.9935 73.2799 37.1073C73.3066 37.2177 73.32 37.3382 73.32 37.4688V39.01H73.1292L73.1092 38.6988H73.0941C72.9703 38.7958 72.8364 38.8829 72.6925 38.9598C72.5519 39.0335 72.4013 39.0703 72.2406 39.0703ZM72.2808 38.8795C72.4214 38.8795 72.5552 38.846 72.6824 38.7791C72.8096 38.7122 72.9485 38.6151 73.0991 38.4879V37.6696C72.8514 37.6997 72.6423 37.7365 72.4716 37.78C72.3009 37.8235 72.1636 37.8754 72.0599 37.9357C71.9561 37.9959 71.8808 38.0645 71.834 38.1415C71.7905 38.2185 71.7687 38.3038 71.7687 38.3975C71.7687 38.4846 71.7821 38.5582 71.8089 38.6184C71.8356 38.6787 71.8725 38.7289 71.9193 38.7691C71.9662 38.8059 72.0197 38.8343 72.08 38.8544C72.1436 38.8711 72.2105 38.8795 72.2808 38.8795ZM74.1796 39.01V36.6002H74.3704L74.3904 37.047H74.4055C74.4858 36.8964 74.5829 36.7743 74.6967 36.6805C74.8138 36.5868 74.9444 36.54 75.0883 36.54C75.1351 36.54 75.177 36.5433 75.2138 36.55C75.2506 36.5567 75.2891 36.5701 75.3293 36.5902L75.2791 36.791C75.2389 36.7743 75.2038 36.7642 75.1736 36.7609C75.1435 36.7542 75.105 36.7508 75.0582 36.7508C74.9511 36.7508 74.8373 36.7977 74.7168 36.8914C74.5996 36.9818 74.4942 37.1408 74.4005 37.3683V39.01H74.1796ZM75.859 40.1095C75.7686 40.1095 75.6866 40.0928 75.613 40.0593L75.6632 39.8635C75.69 39.8736 75.7201 39.8819 75.7536 39.8886C75.787 39.8987 75.8222 39.9037 75.859 39.9037C76.0096 39.9037 76.1351 39.8434 76.2355 39.7229C76.3359 39.6025 76.4163 39.4502 76.4765 39.2661L76.5418 39.0552L75.5528 36.6002H75.7937L76.3761 38.1164C76.4129 38.2168 76.4531 38.3273 76.4966 38.4477C76.5435 38.5682 76.5903 38.682 76.6372 38.7891H76.6573C76.6941 38.682 76.7309 38.5682 76.7677 38.4477C76.8079 38.3273 76.8447 38.2168 76.8782 38.1164L77.3953 36.6002H77.6212L76.6673 39.3113C76.6338 39.4117 76.592 39.5104 76.5418 39.6075C76.4949 39.7045 76.438 39.7899 76.3711 39.8635C76.3075 39.9372 76.2322 39.9957 76.1452 40.0392C76.0615 40.0861 75.9661 40.1095 75.859 40.1095ZM80.0247 39.0703C79.8808 39.0703 79.7435 39.0418 79.613 38.9849C79.4825 38.928 79.367 38.846 79.2666 38.7389C79.1695 38.6318 79.0909 38.5013 79.0306 38.3473C78.9737 38.19 78.9453 38.011 78.9453 37.8101C78.9453 37.6093 78.9737 37.4303 79.0306 37.273C79.0909 37.1123 79.1695 36.9784 79.2666 36.8713C79.367 36.7642 79.4825 36.6822 79.613 36.6253C79.7435 36.5684 79.8808 36.54 80.0247 36.54C80.1686 36.54 80.3058 36.5684 80.4364 36.6253C80.5703 36.6822 80.6857 36.7642 80.7828 36.8713C80.8832 36.9784 80.9618 37.1123 81.0187 37.273C81.079 37.4303 81.1091 37.6093 81.1091 37.8101C81.1091 38.011 81.079 38.19 81.0187 38.3473C80.9618 38.5013 80.8832 38.6318 80.7828 38.7389C80.6857 38.846 80.5703 38.928 80.4364 38.9849C80.3058 39.0418 80.1686 39.0703 80.0247 39.0703ZM80.0247 38.8745C80.1452 38.8745 80.2573 38.8494 80.3611 38.7992C80.4682 38.7456 80.5585 38.672 80.6322 38.5783C80.7092 38.4846 80.7694 38.3724 80.8129 38.2419C80.8564 38.1114 80.8782 37.9675 80.8782 37.8101C80.8782 37.6495 80.8564 37.5039 80.8129 37.3734C80.7694 37.2428 80.7092 37.1307 80.6322 37.037C80.5585 36.9399 80.4682 36.8663 80.3611 36.8161C80.2573 36.7625 80.1452 36.7358 80.0247 36.7358C79.9042 36.7358 79.7921 36.7625 79.6883 36.8161C79.5846 36.8663 79.4942 36.9399 79.4172 37.037C79.3436 37.1307 79.285 37.2428 79.2415 37.3734C79.198 37.5039 79.1762 37.6495 79.1762 37.8101C79.1762 37.9675 79.198 38.1114 79.2415 38.2419C79.285 38.3724 79.3436 38.4846 79.4172 38.5783C79.4942 38.672 79.5846 38.7456 79.6883 38.7992C79.7921 38.8494 79.9042 38.8745 80.0247 38.8745ZM81.868 39.01V36.791H81.5366V36.6203L81.868 36.6002V36.063C81.868 35.822 81.9199 35.6413 82.0236 35.5208C82.1274 35.4003 82.2746 35.3401 82.4654 35.3401C82.5826 35.3401 82.6997 35.3669 82.8169 35.4204L82.7566 35.6011C82.7064 35.5744 82.6562 35.556 82.606 35.5459C82.5591 35.5359 82.5123 35.5309 82.4654 35.5309C82.3382 35.5309 82.2429 35.5777 82.1793 35.6714C82.119 35.7651 82.0889 35.9007 82.0889 36.0781V36.6002H82.6462V36.791H82.0889V39.01H81.868ZM84.1819 39.01V35.7016H84.4128V39.01H84.1819ZM85.3629 39.01V36.6002H85.5536L85.5737 37.047H85.5888C85.6691 36.8964 85.7662 36.7743 85.88 36.6805C85.9971 36.5868 86.1276 36.54 86.2716 36.54C86.3184 36.54 86.3603 36.5433 86.3971 36.55C86.4339 36.5567 86.4724 36.5701 86.5125 36.5902L86.4623 36.791C86.4222 36.7743 86.387 36.7642 86.3569 36.7609C86.3268 36.7542 86.2883 36.7508 86.2414 36.7508C86.1343 36.7508 86.0205 36.7977 85.9 36.8914C85.7829 36.9818 85.6775 37.1408 85.5838 37.3683V39.01H85.3629ZM87.7858 39.0703C87.6419 39.0703 87.5047 39.0418 87.3741 38.9849C87.2436 38.928 87.1281 38.846 87.0277 38.7389C86.9307 38.6318 86.852 38.5013 86.7918 38.3473C86.7349 38.19 86.7064 38.011 86.7064 37.8101C86.7064 37.6093 86.7349 37.4303 86.7918 37.273C86.852 37.1123 86.9307 36.9784 87.0277 36.8713C87.1281 36.7642 87.2436 36.6822 87.3741 36.6253C87.5047 36.5684 87.6419 36.54 87.7858 36.54C87.9297 36.54 88.067 36.5684 88.1975 36.6253C88.3314 36.6822 88.4468 36.7642 88.5439 36.8713C88.6443 36.9784 88.723 37.1123 88.7799 37.273C88.8401 37.4303 88.8702 37.6093 88.8702 37.8101C88.8702 38.011 88.8401 38.19 88.7799 38.3473C88.723 38.5013 88.6443 38.6318 88.5439 38.7389C88.4468 38.846 88.3314 38.928 88.1975 38.9849C88.067 39.0418 87.9297 39.0703 87.7858 39.0703ZM87.7858 38.8745C87.9063 38.8745 88.0184 38.8494 88.1222 38.7992C88.2293 38.7456 88.3197 38.672 88.3933 38.5783C88.4703 38.4846 88.5305 38.3724 88.574 38.2419C88.6175 38.1114 88.6393 37.9675 88.6393 37.8101C88.6393 37.6495 88.6175 37.5039 88.574 37.3734C88.5305 37.2428 88.4703 37.1307 88.3933 37.037C88.3197 36.9399 88.2293 36.8663 88.1222 36.8161C88.0184 36.7625 87.9063 36.7358 87.7858 36.7358C87.6653 36.7358 87.5532 36.7625 87.4495 36.8161C87.3457 36.8663 87.2553 36.9399 87.1783 37.037C87.1047 37.1307 87.0461 37.2428 87.0026 37.3734C86.9591 37.5039 86.9374 37.6495 86.9374 37.8101C86.9374 37.9675 86.9591 38.1114 87.0026 38.2419C87.0461 38.3724 87.1047 38.4846 87.1783 38.5783C87.2553 38.672 87.3457 38.7456 87.4495 38.7992C87.5532 38.8494 87.6653 38.8745 87.7858 38.8745ZM89.594 39.01V36.6002H89.7847L89.8048 36.9717H89.8199C89.9437 36.8479 90.0709 36.7458 90.2014 36.6655C90.332 36.5818 90.4809 36.54 90.6483 36.54C90.8993 36.54 91.0834 36.6153 91.2005 36.7659C91.3177 36.9165 91.3762 37.1491 91.3762 37.4637V39.01H91.1553V37.4939C91.1553 37.2361 91.1118 37.047 91.0248 36.9265C90.9411 36.8027 90.8006 36.7408 90.6031 36.7408C90.4592 36.7408 90.3286 36.7793 90.2115 36.8563C90.0943 36.9299 89.9621 37.042 89.8149 37.1926V39.01H89.594ZM94.471 39.0703C94.2668 39.0703 94.0794 39.0301 93.9087 38.9498C93.738 38.8695 93.5907 38.7557 93.4669 38.6084C93.3464 38.4578 93.2527 38.2771 93.1857 38.0662C93.1188 37.852 93.0853 37.6127 93.0853 37.3483C93.0853 37.0872 93.1188 36.8512 93.1857 36.6404C93.256 36.4295 93.3531 36.2505 93.4769 36.1032C93.6007 35.9526 93.748 35.8388 93.9187 35.7618C94.0928 35.6815 94.2852 35.6413 94.4961 35.6413C94.6902 35.6413 94.8609 35.6815 95.0081 35.7618C95.1554 35.8421 95.2726 35.9342 95.3596 36.0379L95.224 36.1936C95.1337 36.0898 95.0282 36.0078 94.9077 35.9476C94.7872 35.884 94.6517 35.8522 94.5011 35.8522C94.3203 35.8522 94.1563 35.8873 94.0091 35.9576C93.8652 36.0279 93.7413 36.1283 93.6376 36.2588C93.5372 36.386 93.4602 36.5416 93.4066 36.7257C93.3531 36.9098 93.3263 37.1173 93.3263 37.3483C93.3263 37.5792 93.3531 37.7884 93.4066 37.9758C93.4602 38.1599 93.5372 38.3172 93.6376 38.4477C93.738 38.5783 93.8585 38.6804 93.999 38.754C94.143 38.8243 94.3036 38.8594 94.481 38.8594C94.6517 38.8594 94.804 38.826 94.9379 38.759C95.0717 38.6887 95.1989 38.5866 95.3194 38.4528L95.455 38.5984C95.3278 38.7456 95.1855 38.8611 95.0282 38.9448C94.8709 39.0284 94.6852 39.0703 94.471 39.0703ZM96.632 39.0703C96.535 39.0703 96.4446 39.0569 96.3609 39.0301C96.2773 39.0033 96.2036 38.9632 96.14 38.9096C96.0764 38.8561 96.0262 38.7875 95.9894 38.7038C95.9526 38.6201 95.9342 38.5214 95.9342 38.4076C95.9342 38.1398 96.058 37.9373 96.3057 37.8001C96.5567 37.6595 96.9517 37.5591 97.4905 37.4989C97.4905 37.4085 97.4838 37.3181 97.4705 37.2278C97.4571 37.1341 97.4286 37.0521 97.3851 36.9818C97.3416 36.9081 97.283 36.8496 97.2094 36.8061C97.1358 36.7592 97.0387 36.7358 96.9182 36.7358C96.7575 36.7358 96.6103 36.7676 96.4764 36.8312C96.3425 36.8948 96.2337 36.9567 96.1501 37.0169L96.0497 36.8512C96.0932 36.8211 96.145 36.7876 96.2053 36.7508C96.2689 36.714 96.3392 36.6805 96.4162 36.6504C96.4931 36.6203 96.5768 36.5952 96.6672 36.5751C96.7575 36.5517 96.8513 36.54 96.9483 36.54C97.0889 36.54 97.2077 36.5651 97.3048 36.6153C97.4018 36.6621 97.4805 36.7274 97.5407 36.8111C97.601 36.8948 97.6445 36.9935 97.6713 37.1073C97.698 37.2177 97.7114 37.3382 97.7114 37.4688V39.01H97.5207L97.5006 38.6988H97.4855C97.3617 38.7958 97.2278 38.8829 97.0839 38.9598C96.9433 39.0335 96.7927 39.0703 96.632 39.0703ZM96.6722 38.8795C96.8128 38.8795 96.9466 38.846 97.0738 38.7791C97.201 38.7122 97.3399 38.6151 97.4905 38.4879V37.6696C97.2429 37.6997 97.0337 37.7365 96.863 37.78C96.6923 37.8235 96.5551 37.8754 96.4513 37.9357C96.3475 37.9959 96.2722 38.0645 96.2254 38.1415C96.1819 38.2185 96.1601 38.3038 96.1601 38.3975C96.1601 38.4846 96.1735 38.5582 96.2003 38.6184C96.227 38.6787 96.2639 38.7289 96.3107 38.7691C96.3576 38.8059 96.4111 38.8343 96.4714 38.8544C96.535 38.8711 96.6019 38.8795 96.6722 38.8795ZM98.571 40.0995V36.6002H98.7618L98.7819 36.9014H98.7969C98.9141 36.8077 99.0412 36.7241 99.1785 36.6504C99.319 36.5768 99.4646 36.54 99.6152 36.54C99.9366 36.54 100.178 36.6521 100.338 36.8763C100.499 37.0972 100.579 37.3951 100.579 37.77C100.579 37.9742 100.551 38.1566 100.494 38.3172C100.437 38.4779 100.358 38.6151 100.258 38.7289C100.161 38.8393 100.047 38.9247 99.9165 38.9849C99.7893 39.0418 99.6554 39.0703 99.5148 39.0703C99.401 39.0703 99.2839 39.0452 99.1634 38.995C99.0429 38.9414 98.9191 38.8678 98.7919 38.7741V40.0995H98.571ZM99.5048 38.8745C99.6253 38.8745 99.7374 38.8477 99.8412 38.7942C99.9449 38.7406 100.034 38.6653 100.107 38.5682C100.181 38.4712 100.238 38.3557 100.278 38.2218C100.321 38.0846 100.343 37.934 100.343 37.77C100.343 37.6227 100.328 37.4855 100.298 37.3583C100.271 37.2311 100.228 37.1223 100.167 37.032C100.107 36.9383 100.029 36.8663 99.9315 36.8161C99.8345 36.7625 99.7173 36.7358 99.5801 36.7358C99.4596 36.7358 99.3341 36.7709 99.2036 36.8412C99.0764 36.9081 98.9392 37.0052 98.7919 37.1324V38.5632C98.9325 38.677 99.063 38.7573 99.1835 38.8042C99.304 38.8511 99.4111 38.8745 99.5048 38.8745ZM101.302 39.01V36.6002H101.523V39.01H101.302ZM101.417 36.0178C101.36 36.0178 101.312 35.9994 101.272 35.9626C101.235 35.9258 101.217 35.8789 101.217 35.822C101.217 35.7585 101.235 35.7099 101.272 35.6765C101.312 35.6396 101.36 35.6212 101.417 35.6212C101.474 35.6212 101.521 35.6396 101.558 35.6765C101.598 35.7099 101.618 35.7585 101.618 35.822C101.618 35.8789 101.598 35.9258 101.558 35.9626C101.521 35.9994 101.474 36.0178 101.417 36.0178ZM103.107 39.0703C102.99 39.0703 102.893 39.0519 102.816 39.0151C102.739 38.9816 102.677 38.9331 102.63 38.8695C102.583 38.8059 102.55 38.7289 102.529 38.6385C102.513 38.5482 102.504 38.4494 102.504 38.3423V36.791H102.128V36.6203L102.509 36.6002L102.539 35.9024H102.73V36.6002H103.428V36.791H102.73V38.3624C102.73 38.4394 102.735 38.5097 102.745 38.5733C102.759 38.6335 102.78 38.6871 102.811 38.7339C102.841 38.7774 102.881 38.8126 102.931 38.8393C102.985 38.8628 103.053 38.8745 103.137 38.8745C103.184 38.8745 103.234 38.8678 103.288 38.8544C103.344 38.8377 103.395 38.8193 103.438 38.7992L103.498 38.9799C103.428 39.0067 103.358 39.0284 103.288 39.0452C103.217 39.0619 103.157 39.0703 103.107 39.0703ZM104.427 39.0703C104.33 39.0703 104.24 39.0569 104.156 39.0301C104.073 39.0033 103.999 38.9632 103.935 38.9096C103.872 38.8561 103.822 38.7875 103.785 38.7038C103.748 38.6201 103.73 38.5214 103.73 38.4076C103.73 38.1398 103.853 37.9373 104.101 37.8001C104.352 37.6595 104.747 37.5591 105.286 37.4989C105.286 37.4085 105.279 37.3181 105.266 37.2278C105.253 37.1341 105.224 37.0521 105.181 36.9818C105.137 36.9081 105.078 36.8496 105.005 36.8061C104.931 36.7592 104.834 36.7358 104.714 36.7358C104.553 36.7358 104.406 36.7676 104.272 36.8312C104.138 36.8948 104.029 36.9567 103.946 37.0169L103.845 36.8512C103.889 36.8211 103.94 36.7876 104.001 36.7508C104.064 36.714 104.135 36.6805 104.212 36.6504C104.289 36.6203 104.372 36.5952 104.463 36.5751C104.553 36.5517 104.647 36.54 104.744 36.54C104.884 36.54 105.003 36.5651 105.1 36.6153C105.197 36.6621 105.276 36.7274 105.336 36.8111C105.396 36.8948 105.44 36.9935 105.467 37.1073C105.493 37.2177 105.507 37.3382 105.507 37.4688V39.01H105.316L105.296 38.6988H105.281C105.157 38.7958 105.023 38.8829 104.879 38.9598C104.739 39.0335 104.588 39.0703 104.427 39.0703ZM104.468 38.8795C104.608 38.8795 104.742 38.846 104.869 38.7791C104.996 38.7122 105.135 38.6151 105.286 38.4879V37.6696C105.038 37.6997 104.829 37.7365 104.658 37.78C104.488 37.8235 104.351 37.8754 104.247 37.9357C104.143 37.9959 104.068 38.0645 104.021 38.1415C103.977 38.2185 103.956 38.3038 103.956 38.3975C103.956 38.4846 103.969 38.5582 103.996 38.6184C104.022 38.6787 104.059 38.7289 104.106 38.7691C104.153 38.8059 104.207 38.8343 104.267 38.8544C104.33 38.8711 104.397 38.8795 104.468 38.8795ZM106.663 39.0703C106.465 39.0703 106.366 38.9431 106.366 38.6887V35.4003H106.587V38.7189C106.587 38.7724 106.597 38.8126 106.617 38.8393C106.638 38.8628 106.663 38.8745 106.693 38.8745C106.703 38.8745 106.713 38.8745 106.723 38.8745C106.736 38.8745 106.756 38.8711 106.783 38.8644L106.823 39.0452C106.8 39.0519 106.776 39.0569 106.753 39.0602C106.73 39.0669 106.699 39.0703 106.663 39.0703ZM108.588 39.01V35.7016H109.421C109.609 35.7016 109.776 35.7183 109.923 35.7518C110.074 35.7819 110.2 35.8338 110.3 35.9074C110.404 35.981 110.482 36.0764 110.536 36.1936C110.593 36.3107 110.621 36.4546 110.621 36.6253C110.621 36.95 110.518 37.1926 110.31 37.3533C110.102 37.5106 109.813 37.5892 109.441 37.5892H108.819V39.01H108.588ZM108.819 37.3935H109.386C109.724 37.3935 109.975 37.3332 110.139 37.2127C110.303 37.0922 110.385 36.8964 110.385 36.6253C110.385 36.3475 110.3 36.1567 110.129 36.053C109.962 35.9492 109.708 35.8974 109.366 35.8974H108.819V37.3935ZM111.605 39.0703C111.508 39.0703 111.418 39.0569 111.334 39.0301C111.25 39.0033 111.177 38.9632 111.113 38.9096C111.05 38.8561 110.999 38.7875 110.963 38.7038C110.926 38.6201 110.907 38.5214 110.907 38.4076C110.907 38.1398 111.031 37.9373 111.279 37.8001C111.53 37.6595 111.925 37.5591 112.464 37.4989C112.464 37.4085 112.457 37.3181 112.444 37.2278C112.43 37.1341 112.402 37.0521 112.358 36.9818C112.315 36.9081 112.256 36.8496 112.183 36.8061C112.109 36.7592 112.012 36.7358 111.891 36.7358C111.731 36.7358 111.583 36.7676 111.45 36.8312C111.316 36.8948 111.207 36.9567 111.123 37.0169L111.023 36.8512C111.066 36.8211 111.118 36.7876 111.178 36.7508C111.242 36.714 111.312 36.6805 111.389 36.6504C111.466 36.6203 111.55 36.5952 111.64 36.5751C111.731 36.5517 111.824 36.54 111.921 36.54C112.062 36.54 112.181 36.5651 112.278 36.6153C112.375 36.6621 112.454 36.7274 112.514 36.8111C112.574 36.8948 112.618 36.9935 112.644 37.1073C112.671 37.2177 112.685 37.3382 112.685 37.4688V39.01H112.494L112.474 38.6988H112.459C112.335 38.7958 112.201 38.8829 112.057 38.9598C111.916 39.0335 111.766 39.0703 111.605 39.0703ZM111.645 38.8795C111.786 38.8795 111.92 38.846 112.047 38.7791C112.174 38.7122 112.313 38.6151 112.464 38.4879V37.6696C112.216 37.6997 112.007 37.7365 111.836 37.78C111.665 37.8235 111.528 37.8754 111.424 37.9357C111.321 37.9959 111.245 38.0645 111.199 38.1415C111.155 38.2185 111.133 38.3038 111.133 38.3975C111.133 38.4846 111.147 38.5582 111.173 38.6184C111.2 38.6787 111.237 38.7289 111.284 38.7691C111.331 38.8059 111.384 38.8343 111.445 38.8544C111.508 38.8711 111.575 38.8795 111.645 38.8795ZM113.544 39.01V36.6002H113.735L113.755 37.047H113.77C113.85 36.8964 113.947 36.7743 114.061 36.6805C114.178 36.5868 114.309 36.54 114.453 36.54C114.5 36.54 114.542 36.5433 114.578 36.55C114.615 36.5567 114.654 36.5701 114.694 36.5902L114.644 36.791C114.603 36.7743 114.568 36.7642 114.538 36.7609C114.508 36.7542 114.47 36.7508 114.423 36.7508C114.316 36.7508 114.202 36.7977 114.081 36.8914C113.964 36.9818 113.859 37.1408 113.765 37.3683V39.01H113.544ZM115.795 39.0703C115.678 39.0703 115.581 39.0519 115.504 39.0151C115.427 38.9816 115.365 38.9331 115.318 38.8695C115.271 38.8059 115.238 38.7289 115.218 38.6385C115.201 38.5482 115.193 38.4494 115.193 38.3423V36.791H114.816V36.6203L115.198 36.6002L115.228 35.9024H115.419V36.6002H116.117V36.791H115.419V38.3624C115.419 38.4394 115.424 38.5097 115.434 38.5733C115.447 38.6335 115.469 38.6871 115.499 38.7339C115.529 38.7774 115.569 38.8126 115.62 38.8393C115.673 38.8628 115.742 38.8745 115.825 38.8745C115.872 38.8745 115.922 38.8678 115.976 38.8544C116.033 38.8377 116.083 38.8193 116.127 38.7992L116.187 38.9799C116.117 39.0067 116.046 39.0284 115.976 39.0452C115.906 39.0619 115.845 39.0703 115.795 39.0703ZM116.702 39.01V36.6002H116.892L116.912 36.9717H116.927C117.051 36.8479 117.178 36.7458 117.309 36.6655C117.44 36.5818 117.588 36.54 117.756 36.54C118.007 36.54 118.191 36.6153 118.308 36.7659C118.425 36.9165 118.484 37.1491 118.484 37.4637V39.01H118.263V37.4939C118.263 37.2361 118.219 37.047 118.132 36.9265C118.049 36.8027 117.908 36.7408 117.711 36.7408C117.567 36.7408 117.436 36.7793 117.319 36.8563C117.202 36.9299 117.07 37.042 116.922 37.1926V39.01H116.702ZM120.287 39.0703C120.133 39.0703 119.988 39.0418 119.851 38.9849C119.717 38.928 119.599 38.846 119.499 38.7389C119.399 38.6285 119.318 38.4963 119.258 38.3423C119.201 38.185 119.173 38.0076 119.173 37.8101C119.173 37.6127 119.201 37.4353 119.258 37.278C119.318 37.1207 119.397 36.9885 119.494 36.8814C119.594 36.7709 119.707 36.6872 119.83 36.6303C119.958 36.5701 120.088 36.54 120.222 36.54C120.51 36.54 120.736 36.637 120.9 36.8312C121.064 37.0253 121.146 37.2997 121.146 37.6545C121.146 37.6846 121.146 37.7148 121.146 37.7449C121.146 37.775 121.142 37.8051 121.136 37.8353H119.399C119.402 37.9859 119.425 38.1264 119.469 38.257C119.512 38.3842 119.573 38.4946 119.65 38.5883C119.73 38.6787 119.825 38.7506 119.936 38.8042C120.046 38.8544 120.17 38.8795 120.307 38.8795C120.438 38.8795 120.555 38.8611 120.659 38.8243C120.766 38.7841 120.865 38.7306 120.955 38.6636L121.045 38.8343C120.948 38.8912 120.841 38.9448 120.724 38.995C120.61 39.0452 120.465 39.0703 120.287 39.0703ZM119.399 37.6545H120.935C120.935 37.3432 120.871 37.1123 120.744 36.9617C120.617 36.8077 120.445 36.7307 120.227 36.7307C120.123 36.7307 120.025 36.7525 119.931 36.796C119.837 36.8362 119.752 36.8964 119.675 36.9768C119.601 37.0571 119.539 37.1541 119.489 37.2679C119.442 37.3817 119.412 37.5106 119.399 37.6545ZM121.8 39.01V36.6002H121.991L122.011 37.047H122.026C122.107 36.8964 122.204 36.7743 122.318 36.6805C122.435 36.5868 122.565 36.54 122.709 36.54C122.756 36.54 122.798 36.5433 122.835 36.55C122.871 36.5567 122.91 36.5701 122.95 36.5902L122.9 36.791C122.86 36.7743 122.825 36.7642 122.794 36.7609C122.764 36.7542 122.726 36.7508 122.679 36.7508C122.572 36.7508 122.458 36.7977 122.338 36.8914C122.22 36.9818 122.115 37.1408 122.021 37.3683V39.01H121.8ZM123.976 39.0703C123.795 39.0703 123.63 39.0385 123.479 38.9749C123.329 38.908 123.2 38.8293 123.093 38.7389L123.223 38.5733C123.327 38.6603 123.437 38.7339 123.554 38.7942C123.672 38.8511 123.817 38.8795 123.991 38.8795C124.182 38.8795 124.324 38.8327 124.418 38.7389C124.515 38.6419 124.564 38.5297 124.564 38.4026C124.564 38.3289 124.545 38.2637 124.508 38.2068C124.475 38.1499 124.43 38.1013 124.373 38.0612C124.316 38.021 124.252 37.9859 124.182 37.9557C124.115 37.9256 124.047 37.8972 123.976 37.8704C123.886 37.8369 123.794 37.8018 123.7 37.765C123.61 37.7281 123.528 37.6846 123.454 37.6344C123.38 37.5809 123.32 37.519 123.273 37.4487C123.23 37.375 123.208 37.2863 123.208 37.1826C123.208 37.0956 123.225 37.0136 123.258 36.9366C123.292 36.8563 123.342 36.7876 123.409 36.7307C123.476 36.6705 123.556 36.6236 123.65 36.5902C123.747 36.5567 123.859 36.54 123.986 36.54C124.113 36.54 124.237 36.5634 124.358 36.6103C124.482 36.6571 124.587 36.7174 124.674 36.791L124.554 36.9466C124.473 36.8864 124.388 36.8362 124.298 36.796C124.207 36.7525 124.1 36.7307 123.976 36.7307C123.883 36.7307 123.802 36.7441 123.735 36.7709C123.668 36.7943 123.611 36.8261 123.565 36.8663C123.521 36.9065 123.488 36.9533 123.464 37.0069C123.444 37.0604 123.434 37.114 123.434 37.1675C123.434 37.2378 123.449 37.2981 123.479 37.3483C123.513 37.3951 123.556 37.437 123.61 37.4738C123.663 37.5106 123.724 37.5441 123.79 37.5742C123.861 37.601 123.931 37.6277 124.001 37.6545C124.095 37.6913 124.189 37.7281 124.282 37.765C124.376 37.8018 124.46 37.847 124.533 37.9005C124.61 37.9541 124.672 38.021 124.719 38.1013C124.766 38.1783 124.79 38.2754 124.79 38.3925C124.79 38.4829 124.771 38.5699 124.734 38.6536C124.701 38.7339 124.649 38.8059 124.579 38.8695C124.508 38.9297 124.423 38.9782 124.323 39.0151C124.222 39.0519 124.107 39.0703 123.976 39.0703ZM126.459 39.01V35.7016H126.69V38.8092H128.216V39.01H126.459ZM128.777 39.01V36.6002H128.998V39.01H128.777ZM128.893 36.0178C128.836 36.0178 128.787 35.9994 128.747 35.9626C128.71 35.9258 128.692 35.8789 128.692 35.822C128.692 35.7585 128.71 35.7099 128.747 35.6765C128.787 35.6396 128.836 35.6212 128.893 35.6212C128.949 35.6212 128.996 35.6396 129.033 35.6765C129.073 35.7099 129.093 35.7585 129.093 35.822C129.093 35.8789 129.073 35.9258 129.033 35.9626C128.996 35.9994 128.949 36.0178 128.893 36.0178ZM129.924 39.01V36.6002H130.115L130.135 36.9717H130.15C130.257 36.8479 130.376 36.7458 130.507 36.6655C130.641 36.5818 130.775 36.54 130.908 36.54C131.103 36.54 131.251 36.5852 131.355 36.6755C131.459 36.7625 131.533 36.8814 131.576 37.032C131.717 36.8814 131.852 36.7625 131.983 36.6755C132.117 36.5852 132.254 36.54 132.394 36.54C132.876 36.54 133.117 36.8479 133.117 37.4637V39.01H132.891V37.4939C132.891 37.2361 132.848 37.047 132.761 36.9265C132.674 36.8027 132.538 36.7408 132.354 36.7408C132.137 36.7408 131.896 36.8914 131.631 37.1926V39.01H131.41V37.4939C131.41 37.2361 131.367 37.047 131.28 36.9265C131.193 36.8027 131.056 36.7408 130.868 36.7408C130.651 36.7408 130.41 36.8914 130.145 37.1926V39.01H129.924ZM133.999 39.01V36.6002H134.219V39.01H133.999ZM134.114 36.0178C134.057 36.0178 134.009 35.9994 133.968 35.9626C133.932 35.9258 133.913 35.8789 133.913 35.822C133.913 35.7585 133.932 35.7099 133.968 35.6765C134.009 35.6396 134.057 35.6212 134.114 35.6212C134.171 35.6212 134.218 35.6396 134.255 35.6765C134.295 35.7099 134.315 35.7585 134.315 35.822C134.315 35.8789 134.295 35.9258 134.255 35.9626C134.218 35.9994 134.171 36.0178 134.114 36.0178ZM135.804 39.0703C135.686 39.0703 135.589 39.0519 135.512 39.0151C135.435 38.9816 135.373 38.9331 135.327 38.8695C135.28 38.8059 135.246 38.7289 135.226 38.6385C135.209 38.5482 135.201 38.4494 135.201 38.3423V36.791H134.825V36.6203L135.206 36.6002L135.236 35.9024H135.427V36.6002H136.125V36.791H135.427V38.3624C135.427 38.4394 135.432 38.5097 135.442 38.5733C135.455 38.6335 135.477 38.6871 135.507 38.7339C135.537 38.7774 135.578 38.8126 135.628 38.8393C135.681 38.8628 135.75 38.8745 135.834 38.8745C135.881 38.8745 135.931 38.8678 135.984 38.8544C136.041 38.8377 136.091 38.8193 136.135 38.7992L136.195 38.9799C136.125 39.0067 136.055 39.0284 135.984 39.0452C135.914 39.0619 135.854 39.0703 135.804 39.0703ZM137.57 39.0703C137.416 39.0703 137.27 39.0418 137.133 38.9849C136.999 38.928 136.882 38.846 136.781 38.7389C136.681 38.6285 136.601 38.4963 136.54 38.3423C136.484 38.185 136.455 38.0076 136.455 37.8101C136.455 37.6127 136.484 37.4353 136.54 37.278C136.601 37.1207 136.679 36.9885 136.776 36.8814C136.877 36.7709 136.989 36.6872 137.113 36.6303C137.24 36.5701 137.37 36.54 137.504 36.54C137.792 36.54 138.018 36.637 138.182 36.8312C138.346 37.0253 138.428 37.2997 138.428 37.6545C138.428 37.6846 138.428 37.7148 138.428 37.7449C138.428 37.775 138.425 37.8051 138.418 37.8353H136.681C136.684 37.9859 136.708 38.1264 136.751 38.257C136.795 38.3842 136.855 38.4946 136.932 38.5883C137.012 38.6787 137.108 38.7506 137.218 38.8042C137.329 38.8544 137.452 38.8795 137.59 38.8795C137.72 38.8795 137.837 38.8611 137.941 38.8243C138.048 38.7841 138.147 38.7306 138.237 38.6636L138.328 38.8343C138.231 38.8912 138.124 38.9448 138.006 38.995C137.893 39.0452 137.747 39.0703 137.57 39.0703ZM136.681 37.6545H138.217C138.217 37.3432 138.154 37.1123 138.026 36.9617C137.899 36.8077 137.727 36.7307 137.509 36.7307C137.406 36.7307 137.307 36.7525 137.213 36.796C137.119 36.8362 137.034 36.8964 136.957 36.9768C136.884 37.0571 136.822 37.1541 136.771 37.2679C136.725 37.3817 136.694 37.5106 136.681 37.6545ZM139.881 39.0703C139.576 39.0703 139.334 38.9632 139.153 38.749C138.972 38.5314 138.882 38.2185 138.882 37.8101C138.882 37.616 138.91 37.4403 138.967 37.283C139.024 37.1257 139.101 36.9918 139.198 36.8814C139.299 36.7709 139.412 36.6872 139.54 36.6303C139.67 36.5701 139.807 36.54 139.951 36.54C140.099 36.54 140.226 36.5667 140.333 36.6203C140.443 36.6705 140.559 36.7425 140.679 36.8362L140.669 36.3944V35.4003H140.89V39.01H140.699L140.679 38.6988H140.664C140.567 38.7958 140.452 38.8829 140.318 38.9598C140.187 39.0335 140.042 39.0703 139.881 39.0703ZM139.911 38.8745C140.045 38.8745 140.172 38.841 140.293 38.7741C140.417 38.7038 140.542 38.6051 140.669 38.4779V37.047C140.542 36.9332 140.422 36.8529 140.308 36.8061C140.197 36.7592 140.084 36.7358 139.966 36.7358C139.846 36.7358 139.734 36.7642 139.63 36.8211C139.526 36.8747 139.436 36.95 139.359 37.047C139.285 37.1408 139.227 37.2546 139.183 37.3884C139.14 37.519 139.118 37.6595 139.118 37.8101C139.118 37.9708 139.135 38.1164 139.168 38.2469C139.205 38.3775 139.257 38.4896 139.324 38.5833C139.391 38.6737 139.473 38.7456 139.57 38.7992C139.67 38.8494 139.784 38.8745 139.911 38.8745Z" fill="#737372"/>
<path d="M177.638 39.426V36.1175H178.586C178.75 36.1175 178.899 36.1343 179.033 36.1677C179.167 36.1979 179.281 36.2481 179.375 36.3184C179.468 36.3886 179.54 36.479 179.591 36.5895C179.644 36.6999 179.671 36.8338 179.671 36.9911C179.671 37.2555 179.594 37.463 179.44 37.6136C179.289 37.7643 179.084 37.8563 178.822 37.8898L179.736 39.426H179.47L178.571 37.9048H177.869V39.426H177.638ZM177.869 37.714H178.526C178.821 37.714 179.045 37.6555 179.199 37.5383C179.356 37.4178 179.435 37.2354 179.435 36.9911C179.435 36.7434 179.356 36.5694 179.199 36.469C179.042 36.3652 178.817 36.3133 178.526 36.3133H177.869V37.714ZM181.543 39.4863C181.339 39.4863 181.152 39.4461 180.981 39.3658C180.81 39.2855 180.663 39.1717 180.539 39.0244C180.419 38.8738 180.325 38.693 180.258 38.4822C180.191 38.268 180.158 38.0287 180.158 37.7643C180.158 37.5032 180.191 37.2672 180.258 37.0564C180.328 36.8455 180.425 36.6664 180.549 36.5192C180.673 36.3686 180.82 36.2548 180.991 36.1778C181.165 36.0975 181.358 36.0573 181.568 36.0573C181.762 36.0573 181.933 36.0975 182.08 36.1778C182.228 36.2581 182.345 36.3502 182.432 36.4539L182.296 36.6095C182.206 36.5058 182.101 36.4238 181.98 36.3635C181.86 36.3 181.724 36.2682 181.573 36.2682C181.393 36.2682 181.229 36.3033 181.081 36.3736C180.937 36.4439 180.814 36.5443 180.71 36.6748C180.609 36.802 180.532 36.9576 180.479 37.1417C180.425 37.3258 180.399 37.5333 180.399 37.7643C180.399 37.9952 180.425 38.2044 180.479 38.3918C180.532 38.5759 180.609 38.7332 180.71 38.8637C180.81 38.9943 180.931 39.0963 181.071 39.17C181.215 39.2403 181.376 39.2754 181.553 39.2754C181.724 39.2754 181.876 39.2419 182.01 39.175C182.144 39.1047 182.271 39.0026 182.392 38.8688L182.527 39.0143C182.4 39.1616 182.258 39.2771 182.101 39.3608C181.943 39.4444 181.757 39.4863 181.543 39.4863ZM185.277 39.426V38.4671H183.801V38.3366L185.292 36.2179H185.493V38.2763H185.97V38.4671H185.493V39.426H185.277ZM184.072 38.2763H185.277V37.1016C185.277 37.0279 185.278 36.9359 185.282 36.8254C185.285 36.715 185.29 36.6229 185.297 36.5493H185.277C185.237 36.6162 185.195 36.6815 185.151 36.7451C185.108 36.8087 185.063 36.8773 185.016 36.9509L184.072 38.2763ZM187.433 39.4863C187.108 39.4863 186.852 39.3557 186.665 39.0947C186.478 38.8336 186.384 38.4587 186.384 37.9701C186.384 37.6354 186.416 37.3526 186.479 37.1216C186.546 36.8907 186.633 36.7033 186.74 36.5593C186.851 36.4154 186.976 36.3133 187.117 36.2531C187.261 36.1895 187.41 36.1577 187.564 36.1577C187.714 36.1577 187.843 36.1862 187.95 36.2431C188.061 36.3 188.158 36.3753 188.241 36.469L188.106 36.6196C188.036 36.5326 187.954 36.4673 187.86 36.4238C187.766 36.3769 187.667 36.3535 187.564 36.3535C187.436 36.3535 187.314 36.382 187.197 36.4388C187.083 36.4924 186.983 36.5811 186.896 36.7049C186.809 36.8288 186.739 36.9928 186.685 37.1969C186.635 37.3978 186.61 37.6438 186.61 37.9349C186.72 37.7977 186.844 37.6889 186.981 37.6086C187.122 37.5283 187.267 37.4881 187.418 37.4881C187.703 37.4881 187.922 37.5735 188.076 37.7442C188.233 37.9115 188.312 38.1575 188.312 38.4822C188.312 38.6294 188.288 38.765 188.241 38.8888C188.195 39.0093 188.131 39.1148 188.051 39.2051C187.97 39.2921 187.877 39.3608 187.769 39.411C187.666 39.4612 187.554 39.4863 187.433 39.4863ZM187.438 39.2955C187.532 39.2955 187.617 39.2754 187.694 39.2352C187.774 39.1917 187.843 39.1332 187.9 39.0595C187.957 38.9859 188.002 38.9006 188.036 38.8035C188.069 38.7031 188.086 38.596 188.086 38.4822C188.086 38.3684 188.072 38.263 188.046 38.1659C188.019 38.0655 187.977 37.9801 187.92 37.9098C187.867 37.8362 187.795 37.7793 187.704 37.7391C187.617 37.699 187.513 37.6789 187.393 37.6789C187.279 37.6789 187.154 37.7157 187.016 37.7894C186.879 37.8596 186.745 37.9835 186.615 38.1609C186.625 38.3316 186.648 38.4872 186.685 38.6278C186.725 38.765 186.779 38.8838 186.846 38.9842C186.913 39.0813 186.995 39.1583 187.092 39.2152C187.192 39.2687 187.308 39.2955 187.438 39.2955ZM189.745 39.4863C189.598 39.4863 189.462 39.4645 189.338 39.421C189.215 39.3741 189.107 39.3122 189.017 39.2352C188.927 39.1549 188.855 39.0612 188.801 38.9541C188.751 38.847 188.726 38.7299 188.726 38.6027C188.726 38.4956 188.744 38.3952 188.781 38.3014C188.821 38.2077 188.872 38.1241 188.932 38.0504C188.995 37.9734 189.064 37.9065 189.138 37.8496C189.215 37.7894 189.292 37.7391 189.369 37.699V37.6789C189.308 37.6387 189.25 37.5952 189.193 37.5484C189.139 37.4982 189.091 37.4429 189.047 37.3827C189.007 37.3191 188.974 37.2522 188.947 37.1819C188.92 37.1082 188.907 37.0279 188.907 36.9409C188.907 36.8271 188.928 36.7217 188.972 36.6246C189.015 36.5275 189.074 36.4455 189.148 36.3786C189.225 36.3083 189.313 36.2548 189.414 36.2179C189.517 36.1778 189.628 36.1577 189.745 36.1577C189.882 36.1577 190.004 36.1795 190.112 36.223C190.219 36.2631 190.309 36.3217 190.383 36.3987C190.46 36.4723 190.517 36.561 190.553 36.6648C190.594 36.7652 190.614 36.8756 190.614 36.9961C190.614 37.0831 190.599 37.1685 190.568 37.2522C190.538 37.3325 190.5 37.4078 190.453 37.4781C190.409 37.5484 190.361 37.612 190.307 37.6689C190.254 37.7258 190.204 37.7726 190.157 37.8094V37.8295C190.227 37.873 190.296 37.9199 190.363 37.9701C190.43 38.0203 190.488 38.0772 190.538 38.1408C190.592 38.2044 190.635 38.278 190.669 38.3617C190.702 38.4454 190.719 38.5408 190.719 38.6479C190.719 38.765 190.696 38.8754 190.649 38.9792C190.602 39.0796 190.535 39.1683 190.448 39.2453C190.364 39.3189 190.262 39.3775 190.142 39.421C190.021 39.4645 189.889 39.4863 189.745 39.4863ZM189.981 37.7442C190.118 37.6337 190.222 37.5182 190.292 37.3978C190.366 37.2739 190.403 37.1417 190.403 37.0011C190.403 36.9108 190.388 36.8271 190.358 36.7501C190.327 36.6698 190.284 36.5995 190.227 36.5393C190.174 36.479 190.105 36.4322 190.021 36.3987C189.941 36.3619 189.849 36.3435 189.745 36.3435C189.655 36.3435 189.571 36.3585 189.494 36.3886C189.42 36.4188 189.355 36.4606 189.298 36.5142C189.245 36.5644 189.203 36.6263 189.173 36.6999C189.143 36.7735 189.128 36.8539 189.128 36.9409C189.128 37.0547 189.151 37.1534 189.198 37.2371C189.248 37.3174 189.313 37.3894 189.394 37.453C189.474 37.5132 189.564 37.5668 189.665 37.6136C189.769 37.6605 189.874 37.704 189.981 37.7442ZM189.745 39.3005C189.859 39.3005 189.961 39.2838 190.051 39.2503C190.145 39.2168 190.224 39.17 190.287 39.1097C190.354 39.0495 190.404 38.9792 190.438 38.8989C190.475 38.8185 190.493 38.7332 190.493 38.6428C190.493 38.519 190.465 38.4152 190.408 38.3316C190.354 38.2445 190.281 38.1692 190.187 38.1056C190.097 38.0387 189.993 37.9818 189.876 37.9349C189.758 37.8847 189.638 37.8345 189.514 37.7843C189.35 37.8814 189.215 37.9969 189.107 38.1307C189 38.2613 188.947 38.4152 188.947 38.5926C188.947 38.693 188.967 38.7868 189.007 38.8738C189.047 38.9574 189.102 39.0311 189.173 39.0947C189.243 39.1583 189.327 39.2085 189.424 39.2453C189.521 39.2821 189.628 39.3005 189.745 39.3005ZM191.871 39.426C191.885 39.1014 191.912 38.8052 191.952 38.5374C191.995 38.2663 192.055 38.0119 192.132 37.7743C192.209 37.5333 192.306 37.304 192.424 37.0865C192.541 36.8656 192.68 36.6413 192.84 36.4137H191.148V36.2179H193.121V36.3485C192.931 36.6029 192.772 36.8472 192.644 37.0815C192.521 37.3158 192.42 37.5551 192.343 37.7994C192.27 38.0404 192.216 38.2931 192.183 38.5575C192.149 38.8219 192.126 39.1114 192.112 39.426H191.871ZM193.752 39.426V39.2302H194.505V36.5694H193.932V36.4188C194.063 36.3953 194.178 36.3669 194.279 36.3334C194.382 36.3 194.473 36.2615 194.55 36.2179H194.731V39.2302H195.428V39.426H193.752ZM196.932 39.4863C196.624 39.4863 196.387 39.3424 196.219 39.0545C196.055 38.7633 195.973 38.3483 195.973 37.8094C195.973 37.2739 196.055 36.8656 196.219 36.5844C196.387 36.3 196.624 36.1577 196.932 36.1577C197.24 36.1577 197.476 36.3 197.64 36.5844C197.807 36.8656 197.891 37.2739 197.891 37.8094C197.891 38.3483 197.807 38.7633 197.64 39.0545C197.476 39.3424 197.24 39.4863 196.932 39.4863ZM196.932 39.2955C197.156 39.2955 197.334 39.1717 197.464 38.924C197.598 38.673 197.665 38.3014 197.665 37.8094C197.665 37.3174 197.598 36.9509 197.464 36.71C197.334 36.469 197.156 36.3485 196.932 36.3485C196.711 36.3485 196.534 36.469 196.4 36.71C196.266 36.9509 196.199 37.3174 196.199 37.8094C196.199 38.3014 196.266 38.673 196.4 38.924C196.534 39.1717 196.711 39.2955 196.932 39.2955Z" fill="#737372"/>
</svg>
