<?xml version="1.0" encoding="UTF-8"?>
<svg id="Layer_2" data-name="Layer 2" xmlns="http://www.w3.org/2000/svg" viewBox="0 0 277.45 64.29">
  <defs>
    <style>
      .cls-1, .cls-2, .cls-3, .cls-4 {
        stroke-width: 0px;
      }

      .cls-1, .cls-5 {
        fill: #737372;
      }

      .cls-6 {
        letter-spacing: -.05em;
      }

      .cls-7 {
        letter-spacing: -.01em;
      }

      .cls-2 {
        fill: #922d27;
      }

      .cls-8 {
        letter-spacing: .04em;
      }

      .cls-9 {
        letter-spacing: -.01em;
      }

      .cls-3 {
        fill: #fff;
      }

      .cls-5 {
        font-family: SourceSansPro-Light, 'Source Sans Pro';
        font-size: 7.15px;
        font-weight: 300;
      }

      .cls-4 {
        fill: #747573;
      }

      .cls-10 {
        letter-spacing: -.02em;
      }
    </style>
  </defs>
  <g id="Layer_1-2" data-name="Layer 1">
    <g>
      <path class="cls-1" d="m33.18,53.73c-5.89,0-11.78-.02-17.67.02-.99,0-1.66-.31-2.31-1-4.1-4.35-8.23-8.67-12.37-12.98C.24,39.16,0,38.52,0,37.67c.04-3.7.04-7.4,0-11.1,0-.86.28-1.45.87-2.07,4.17-4.34,8.32-8.72,12.44-13.11.59-.62,1.2-.9,2.07-.9,11.83.02,23.66.03,35.5,0,1.14,0,1.42.36,1.4,1.44-.06,4.04-.07,8.09,0,12.13.02,1.2-.37,1.47-1.52,1.47-11.39-.04-22.77,0-34.16-.06-1.38,0-1.73.38-1.69,1.72.1,3.4.08,6.81,0,10.21-.03,1.17.31,1.49,1.49,1.48,11.34-.04,22.67,0,34.01-.06,1.49,0,1.93.33,1.88,1.86-.12,3.89-.08,7.79-.01,11.69.02,1.13-.33,1.41-1.43,1.4-5.89-.05-11.78-.02-17.67-.02Z"/>
      <path class="cls-2" d="m255.89,31.71c0-1.63,0-3.25,0-4.88,0-4.54,2.08-7.28,6.5-8.48,3.03-.82,6.07-.76,9.07.12,3.92,1.16,5.99,4.02,6,8.14.01,3.4,0,6.8,0,10.21,0,4.71-2.11,7.51-6.65,8.67-3.23.82-6.47.75-9.62-.42-3.41-1.26-5.28-3.98-5.29-7.59,0-1.92,0-3.85,0-5.77Z"/>
      <path class="cls-2" d="m206.35,45.67c1.28-4.18,2.52-8.22,3.77-12.27,1.45-4.71,2.92-9.41,4.33-14.13.25-.85.58-1.19,1.51-1.16,2.08.08,4.16.05,6.24,0,.76-.02,1.11.2,1.35.97,2.59,8.48,5.2,16.96,7.86,25.42.34,1.08.01,1.22-.94,1.18-1.68-.07-3.64.49-4.97-.2-1.31-.68-1.06-2.88-1.58-4.39-.22-.63-.48-.86-1.13-.85-2.47.03-4.95.04-7.42,0-.74-.01-1.04.25-1.2.95-.27,1.2-.68,2.37-.97,3.56-.14.61-.34.94-1.06.92-1.87-.05-3.75-.02-5.78-.02Z"/>
      <path class="cls-1" d="m107.71,31.88c0-4.14.03-8.29-.02-12.43-.01-1.01.23-1.36,1.3-1.34,3.76.06,7.52.03,11.29.03,1.2,0,2.36.24,3.49.58,2.44.75,3.95,2.35,4.39,4.89.43,2.55.42,5.13.09,7.66-.5,3.88-3.32,5.96-7.86,6.09-1.78.05-3.57.05-5.35,0-.78-.02-1.03.25-1.01,1.02.04,2.07-.02,4.14.03,6.21.02.84-.26,1.13-1.1,1.09-1.68-.08-3.87.56-4.9-.27-1.08-.87-.31-3.14-.34-4.8-.05-2.91-.01-5.82-.01-8.73Z"/>
      <path class="cls-2" d="m184.31,31.74c0-4.14.03-8.28-.02-12.41-.01-.99.3-1.23,1.25-1.22,3.76.05,7.51.02,11.27.03,1.19,0,2.35.23,3.49.58,2.64.79,4.14,2.57,4.49,5.29.29,2.25.27,4.53.07,6.78-.3,3.56-2.28,5.6-5.79,6.3-2.41.48-4.83.28-7.24.27-1.06,0-1.34.31-1.3,1.33.08,2.02,0,4.04.04,6.06.01.68-.16,1.04-.9.93-.1-.01-.2,0-.3,0-1.62-.03-3.75.54-4.74-.26-1.04-.85-.28-3.04-.31-4.65-.06-3-.02-6.01-.02-9.01Z"/>
      <path class="cls-2" d="m171.35,17.84c2.22-.13,4.51.31,6.81.6.92.12,1.3.51,1.08,1.46-.14.62-.18,1.27-.26,1.9-.28,2.28-.27,2.23-2.6,1.89-2.29-.34-4.59-.71-6.92-.36-1.22.19-1.83.83-1.83,2.07,0,1.29-.19,2.65,1.51,3.11,2.09.57,4.2,1.07,6.26,1.73,3.51,1.12,4.41,2.36,4.59,5.98.02.44,0,.89,0,1.33,0,5.68-1.63,7.64-7.32,8.31-3.66.43-7.29.03-10.8-1.22-.77-.27-1.15-.56-.84-1.48.31-.93.49-1.91.63-2.88.12-.83.44-.89,1.2-.67,2.62.76,5.3,1.14,8.04,1.02,1.82-.08,2.56-.62,2.74-2.04.3-2.45-.09-3.29-1.97-3.82-1.99-.56-4.03-.94-6-1.55-2.99-.92-4.11-2.39-4.25-5.48-.08-1.77-.19-3.54.22-5.3.48-2.08,1.76-3.37,3.75-3.99,1.91-.6,3.88-.7,5.97-.62Z"/>
      <path class="cls-1" d="m85.38,31.87c0-1.63,0-3.26,0-4.88,0-5.57,2.75-8.62,8.33-9.11,3.02-.26,6.02.08,9.01.59.64.11.94.37.79,1.09-.24,1.11-.48,2.23-.54,3.35-.06,1.14-.62,1.25-1.54,1.1-1.9-.33-3.82-.53-5.75-.52-2.75.01-3.75.81-3.92,3.49-.21,3.34-.24,6.7.02,10.05.19,2.42,1.17,3.24,3.65,3.29,1.98.03,3.95-.2,5.9-.51.95-.15,1.59-.1,1.65,1.14.05,1.12.3,2.25.54,3.35.14.65-.13.93-.7,1.02-3.62.56-7.25,1.05-10.9.31-4.08-.83-6.48-3.79-6.51-7.98-.02-1.92,0-3.85,0-5.77Z"/>
      <path class="cls-2" d="m234.19,31.88c0-1.68,0-3.35,0-5.03,0-5.61,3.02-8.74,8.72-9,2.83-.13,5.62.16,8.42.59.93.14,1.1.58.91,1.42-.23,1.01-.45,2.03-.5,3.06-.06,1.14-.63,1.25-1.56,1.09-2-.34-4.02-.56-6.05-.52-2.55.06-3.62,1.07-3.66,3.62-.06,3.2-.06,6.41,0,9.62.05,2.53,1.14,3.54,3.69,3.59,2.03.04,4.05-.18,6.05-.53.97-.17,1.46.04,1.53,1.13.07,1.08.32,2.14.52,3.21.12.62.04,1.07-.69,1.18-3.86.57-7.73,1.22-11.6.1-3.79-1.1-5.75-3.71-5.78-7.6-.02-1.97,0-3.95,0-5.92Z"/>
      <path class="cls-1" d="m132.08,31.8c0-4.14.02-8.29-.02-12.43,0-.94.22-1.33,1.24-1.25,1.28.09,2.58.1,3.86,0,1.11-.08,1.29.38,1.28,1.36-.04,6.36.02,12.72-.05,19.09-.01,1.26.37,1.56,1.58,1.53,2.77-.09,5.54,0,8.31-.05.89-.02,1.25.22,1.19,1.15-.1,1.42.44,3.25-.27,4.15-.76.96-2.68.29-4.09.31-3.91.05-7.82-.02-11.73.04-1.04.02-1.34-.28-1.33-1.32.06-4.19.02-8.38.02-12.58Z"/>
      <path class="cls-1" d="m37.94,0c4.21,0,8.41,0,12.62,0,.91,0,1.78.01,1.68,1.25-.09,1.06.59,2.48-1.36,2.72-1.02.12-2.02.47-2.99.83-1.53.56-2.6,1.63-3.02,3.22-.22.84-.6,1.19-1.53,1.17-3.66-.05-7.32-.02-10.99-.02-.58,0-1.19.12-1.39-.72-.6-2.55-2.5-3.64-4.85-4.21-.29-.07-.58-.14-.86-.21-1.57-.36-2.39-2.11-1.66-3.52.33-.63.91-.49,1.43-.5,4.31-.01,8.61,0,12.92,0Z"/>
      <path class="cls-1" d="m37.81,64.28c-4.2,0-8.4,0-12.6,0-.86,0-1.81.1-1.71-1.19.08-1.1-.6-2.58,1.43-2.78,1.06-.1,2.12-.45,3.14-.8,1.55-.53,2.62-1.59,2.94-3.23.17-.86.53-1.2,1.47-1.18,3.61.06,7.22.03,10.82.02.55,0,1.13-.07,1.25.69.45,2.93,2.66,3.79,5.14,4.34.29.06.58.1.87.16,1.52.3,2.31,2.04,1.57,3.45-.36.68-1,.52-1.57.52-4.25,0-8.5,0-12.75,0Z"/>
      <path class="cls-1" d="m80.36,31.89c0,4.19-.03,8.38.02,12.56.01.98-.29,1.29-1.25,1.23-1.33-.07-2.67-.05-4,0-.74.02-1.05-.18-1.04-.98.02-8.52.02-17.05,0-25.57,0-.78.26-1.03,1.02-1,1.38.05,2.77.08,4.15,0,.99-.06,1.12.38,1.12,1.21-.03,4.19-.02,8.38-.01,12.56Z"/>
      <path class="cls-4" d="m62.11,32.1c0-6.75,0-13.5,0-20.25,0-.64-.25-1.42.93-1.4,1.08.02.85.73.85,1.33,0,13.55,0,27.1,0,40.66,0,.6.21,1.29-.86,1.32-1.19.03-.91-.77-.91-1.4-.01-6.75,0-13.5,0-20.25Z"/>
      <path class="cls-3" d="m271.13,31.99c0,1.73.01,3.45,0,5.18-.02,1.6-.89,2.57-2.4,2.97-1.36.36-2.75.37-4.1,0-1.67-.45-2.44-1.37-2.46-3.08-.05-3.45-.04-6.91,0-10.36.02-1.56.82-2.6,2.35-3.02,1.41-.38,2.83-.38,4.24-.01,1.52.4,2.36,1.39,2.37,2.98.02,1.78,0,3.55,0,5.33Z"/>
      <path class="cls-3" d="m215.86,35.01c1.03-3.67,2.02-7.21,3.01-10.75.59.12.45.61.55.95.81,2.88,1.57,5.77,2.42,8.64.26.87.23,1.23-.83,1.18-1.66-.08-3.33-.02-5.15-.02Z"/>
      <path class="cls-3" d="m114,27.74c.06-1.27-.36-2.95.29-3.7.77-.87,2.51-.21,3.82-.29.54-.04,1.09-.03,1.63,0,1.29.09,2.11.73,2.29,2.06.01.1.04.19.05.29.24,5.24.05,5.96-5.13,5.92-2.9-.02-2.9,0-2.9-2.96v-1.33s-.03,0-.05,0Z"/>
      <path class="cls-3" d="m190.56,27.68c.14-1.12-.61-2.93.3-3.71.78-.67,2.54-.21,3.87-.23.59-.01,1.19-.04,1.78.03,1.21.16,2.03.79,2.08,2.09.05,1.18.02,2.36.03,3.54,0,1.47-.73,2.26-2.19,2.48-1.72.26-3.45.09-5.18.15-.65.02-.7-.37-.69-.86.01-1.08,0-2.17,0-3.49Z"/>
      <text class="cls-5" transform="translate(74.08 59.42)"><tspan x="0" y="0">A subsidia</tspan><tspan class="cls-8" x="29.31" y="0">r</tspan><tspan x="31.83" y="0">y of I</tspan><tspan class="cls-9" x="45.23" y="0">r</tspan><tspan x="47.42" y="0">on Capi</tspan><tspan class="cls-10" x="69.55" y="0">t</tspan><tspan x="71.62" y="0">al </tspan><tspan class="cls-6" x="78.26" y="0">P</tspan><tspan x="81.84" y="0">artners Limi</tspan><tspan class="cls-7" x="116.11" y="0">t</tspan><tspan x="118.26" y="0">ed</tspan></text>
      <text class="cls-5" transform="translate(241.69 59.75)"><tspan x="0" y="0" xml:space="preserve">RC  7468710</tspan></text>
    </g>
  </g>
</svg>