<svg width="200" height="47" viewBox="0 0 200 47" fill="none" xmlns="http://www.w3.org/2000/svg">
<g clip-path="url(#clip0_3228_125)">
<path d="M23.9178 38.7313C19.672 38.7313 15.4262 38.7169 11.1804 38.7457C10.4668 38.7457 9.98378 38.5223 9.51523 38.0249C6.55974 34.8892 3.58263 31.7751 0.598306 28.6682C0.173004 28.2285 0 27.7672 0 27.1545C0.028834 24.4873 0.028834 21.8202 0 19.153C0 18.5331 0.201838 18.1078 0.62714 17.6609C3.63309 14.5324 6.62462 11.375 9.59452 8.2105C10.0198 7.76358 10.4595 7.56174 11.0867 7.56174C19.6143 7.57615 28.142 7.58336 36.6769 7.56174C37.4986 7.56174 37.7005 7.82124 37.6861 8.59976C37.6428 11.512 37.6356 14.4314 37.6861 17.3437C37.7005 18.2087 37.4194 18.4033 36.5904 18.4033C28.3799 18.3745 20.1766 18.4033 11.9661 18.3601C10.9713 18.3601 10.719 18.634 10.7479 19.5999C10.82 22.0508 10.8056 24.5089 10.7479 26.9598C10.7263 27.8032 10.9713 28.0339 11.8219 28.0267C19.9964 27.9979 28.1636 28.0267 36.3381 27.9834C37.4121 27.9834 37.7293 28.2213 37.6933 29.3242C37.6068 32.1283 37.6356 34.9396 37.6861 37.751C37.7005 38.5655 37.4482 38.7674 36.6553 38.7601C32.4094 38.7241 28.1636 38.7457 23.9178 38.7457V38.7313Z" fill="white"/>
<path d="M123.518 12.86C125.118 12.7663 126.769 13.0834 128.427 13.2925C129.09 13.379 129.364 13.6601 129.205 14.3449C129.104 14.7919 129.075 15.2604 129.018 15.7146C128.816 17.3581 128.823 17.3221 127.144 17.077C125.493 16.8319 123.835 16.5652 122.155 16.8175C121.276 16.9544 120.836 17.4158 120.836 18.3096C120.836 19.2395 120.699 20.2199 121.925 20.5515C123.431 20.9623 124.952 21.3228 126.437 21.7985C128.967 22.6059 129.616 23.4997 129.746 26.1092C129.76 26.4264 129.746 26.7508 129.746 27.0679C129.746 31.1624 128.571 32.5752 124.469 33.0582C121.831 33.3682 119.214 33.0798 116.684 32.1788C116.129 31.9841 115.855 31.7751 116.079 31.1119C116.302 30.4415 116.432 29.7351 116.533 29.0359C116.619 28.4376 116.85 28.3943 117.398 28.5529C119.286 29.1007 121.218 29.3747 123.193 29.2882C124.505 29.2305 125.039 28.8412 125.168 27.8176C125.385 26.0515 125.104 25.446 123.748 25.064C122.314 24.6603 120.843 24.3864 119.423 23.9467C117.268 23.2835 116.461 22.2238 116.36 19.9964C116.302 18.7205 116.223 17.4446 116.518 16.1759C116.864 14.6765 117.787 13.7466 119.221 13.2997C120.598 12.8672 122.018 12.7951 123.525 12.8528L123.518 12.86Z" fill="white"/>
<path d="M61.5463 22.9735C61.5463 21.7985 61.5463 20.6235 61.5463 19.4558C61.5463 15.4406 63.5286 13.242 67.551 12.8888C69.7279 12.7014 71.8905 12.9465 74.0458 13.3141C74.5072 13.3934 74.7234 13.5808 74.6153 14.0998C74.4423 14.9 74.2693 15.7073 74.226 16.5147C74.1828 17.3365 73.7791 17.4158 73.1159 17.3076C71.7463 17.0697 70.3623 16.9256 68.971 16.9328C66.9887 16.94 66.2678 17.5167 66.1453 19.4486C65.9939 21.8562 65.9723 24.2783 66.1597 26.6931C66.2967 28.4376 67.0031 29.0287 68.7908 29.0647C70.2181 29.0863 71.6382 28.9205 73.0438 28.6971C73.7286 28.5889 74.19 28.625 74.2332 29.5188C74.2693 30.3262 74.4495 31.1407 74.6225 31.9337C74.7234 32.4022 74.5288 32.6041 74.1179 32.669C71.5084 33.0726 68.8917 33.4258 66.2606 32.8924C63.3196 32.2941 61.5895 30.1604 61.5679 27.14C61.5535 25.756 61.5679 24.3648 61.5679 22.9807L61.5463 22.9735Z" fill="white"/>
<path d="M168.816 22.9807C168.816 21.7697 168.816 20.5659 168.816 19.3548C168.816 15.3109 170.993 13.0546 175.102 12.8672C177.142 12.7735 179.153 12.9825 181.171 13.2925C181.842 13.3934 181.964 13.7106 181.827 14.3161C181.662 15.0441 181.503 15.7794 181.467 16.5219C181.424 17.3437 181.013 17.4229 180.342 17.3076C178.901 17.0625 177.445 16.9039 175.981 16.9328C174.143 16.976 173.372 17.7041 173.343 19.5422C173.3 21.849 173.3 24.1629 173.343 26.4768C173.379 28.3006 174.165 29.0286 176.003 29.0647C177.466 29.0935 178.922 28.9349 180.364 28.6826C181.063 28.5601 181.416 28.7115 181.467 29.4972C181.517 30.2757 181.698 31.0398 181.842 31.8111C181.928 32.2581 181.871 32.5824 181.344 32.6617C178.562 33.0726 175.772 33.5412 172.982 32.7338C170.25 31.9409 168.838 30.0595 168.816 27.2553C168.802 25.8353 168.816 24.408 168.816 22.9879V22.9807Z" fill="white"/>
<path d="M95.2099 22.923C95.2099 19.9387 95.2243 16.9472 95.1955 13.9629C95.1955 13.2853 95.3541 13.0041 96.0893 13.0618C97.012 13.1267 97.9491 13.1339 98.8718 13.0618C99.672 13.0041 99.8017 13.3357 99.7945 14.0422C99.7657 18.6268 99.8089 23.2114 99.7585 27.8032C99.7513 28.7115 100.025 28.9277 100.897 28.9061C102.894 28.8412 104.891 28.9061 106.888 28.8701C107.529 28.8556 107.789 29.0286 107.745 29.699C107.673 30.7226 108.063 32.0418 107.551 32.6906C107.003 33.3826 105.619 32.8996 104.603 32.914C101.784 32.9501 98.9655 32.8996 96.147 32.9429C95.3973 32.9573 95.1811 32.741 95.1883 31.9913C95.2315 28.971 95.2027 25.9506 95.2027 22.923H95.2099Z" fill="white"/>
<path d="M27.3491 0C30.3838 0 33.4114 0 36.4462 0C37.1022 0 37.7293 0.0072085 37.6572 0.901063C37.5924 1.66516 38.0825 2.68877 36.6769 2.86178C35.9416 2.94828 35.2208 3.20058 34.5215 3.46008C33.4186 3.86376 32.6473 4.63507 32.3446 5.78122C32.186 6.38674 31.912 6.63903 31.2417 6.62462C28.6033 6.58857 25.965 6.6102 23.3195 6.6102C22.9014 6.6102 22.4617 6.6967 22.3175 6.09119C21.885 4.25302 20.5154 3.46729 18.8214 3.05641C18.6124 3.00595 18.4033 2.95549 18.2015 2.90503C17.0697 2.64552 16.4786 1.38403 17.0049 0.367634C17.2427 -0.0865021 17.6608 0.014417 18.0357 0.00720851C21.1425 0 24.2422 0.00720851 27.3491 0.00720851V0Z" fill="white"/>
<path d="M27.2554 46.3363C24.2278 46.3363 21.2002 46.3363 18.1726 46.3363C17.5527 46.3363 16.8679 46.4084 16.94 45.4785C16.9977 44.6855 16.5075 43.6187 17.9708 43.4745C18.7349 43.4024 19.499 43.1501 20.2343 42.8978C21.3516 42.5158 22.1229 41.7517 22.3536 40.5695C22.4761 39.9495 22.7356 39.7044 23.4132 39.7189C26.0155 39.7621 28.6178 39.7405 31.2128 39.7333C31.6093 39.7333 32.0274 39.6828 32.1139 40.2307C32.4383 42.3428 34.0313 42.9627 35.8191 43.3592C36.0281 43.4024 36.2372 43.4312 36.4462 43.4745C37.5419 43.6907 38.1114 44.945 37.5779 45.9614C37.3184 46.4516 36.8571 46.3363 36.4462 46.3363C33.3826 46.3363 30.319 46.3363 27.2554 46.3363Z" fill="white"/>
<path d="M57.9275 22.9879C57.9275 26.0083 57.9059 29.0287 57.9419 32.0418C57.9491 32.7483 57.7329 32.9717 57.0408 32.9285C56.0821 32.878 55.1162 32.8924 54.1574 32.9285C53.624 32.9429 53.4006 32.7987 53.4078 32.222C53.4222 26.0804 53.4222 19.9315 53.4078 13.7899C53.4078 13.2276 53.5952 13.0474 54.143 13.069C55.1378 13.1051 56.1398 13.1267 57.1346 13.069C57.8482 13.0258 57.9419 13.343 57.9419 13.9413C57.9203 16.9616 57.9275 19.982 57.9347 22.9951L57.9275 22.9879Z" fill="white"/>
<path d="M44.7721 23.1393C44.7721 18.2736 44.7721 13.4078 44.7721 8.54209C44.7721 8.08074 44.5919 7.51848 45.4425 7.53289C46.221 7.54731 46.0552 8.05912 46.0552 8.49163C46.0552 18.2592 46.0552 28.0267 46.0552 37.8014C46.0552 38.2339 46.2066 38.7313 45.4352 38.7529C44.5774 38.7746 44.7793 38.1979 44.7793 37.7437C44.7721 32.878 44.7793 28.0123 44.7793 23.1465L44.7721 23.1393Z" fill="white"/>
<path d="M200 19.189C199.993 16.2191 198.493 14.1575 195.675 13.3213C193.52 12.6797 191.321 12.6437 189.137 13.2348C185.958 14.0998 184.459 16.075 184.451 19.3476C184.451 20.5226 184.451 21.6904 184.451 22.8654C184.451 24.2494 184.451 25.6406 184.451 27.0247C184.459 29.6269 185.806 31.5877 188.265 32.4959C190.535 33.3321 192.871 33.3898 195.199 32.7987C198.479 31.9697 199.993 29.9441 199.993 26.5489C199.993 24.098 199.993 21.6471 199.993 19.189H200ZM195.437 26.794C195.423 27.9474 194.795 28.6466 193.707 28.9349C192.727 29.1944 191.725 29.2016 190.752 28.9349C189.548 28.6105 188.993 27.9474 188.978 26.7147C188.942 24.2278 188.949 21.7336 188.978 19.2467C188.993 18.1222 189.569 17.3725 190.672 17.0697C191.689 16.7886 192.712 16.7958 193.729 17.0625C194.824 17.3509 195.43 18.0645 195.437 19.2107C195.451 20.4938 195.437 21.7697 195.437 23.0528C195.437 24.2999 195.444 25.5397 195.437 26.7868V26.794Z" fill="white"/>
<path d="M166.812 32.0851C164.895 25.9867 163.006 19.8738 161.146 13.761C160.973 13.206 160.721 13.0474 160.173 13.0618C158.674 13.0979 157.174 13.1123 155.675 13.0618C155.005 13.033 154.767 13.2853 154.586 13.898C153.577 17.3004 152.51 20.6884 151.465 24.0836C150.571 26.9958 149.677 29.9153 148.748 32.9284C150.211 32.9284 151.559 32.9068 152.914 32.9429C153.433 32.9573 153.57 32.7194 153.678 32.2797C153.88 31.4147 154.176 30.5713 154.377 29.7135C154.493 29.2089 154.709 29.0214 155.242 29.0286C157.023 29.0575 158.811 29.0503 160.591 29.0286C161.06 29.0286 161.254 29.1872 161.406 29.6414C161.781 30.7299 161.6 32.3157 162.545 32.8059C163.503 33.3033 164.916 32.8996 166.127 32.9501C166.819 32.9789 167.05 32.8852 166.805 32.0995L166.812 32.0851ZM159.315 25.2514C158.119 25.1937 156.915 25.237 155.603 25.237C156.345 22.5914 157.059 20.0396 157.773 17.4878C158.198 17.5743 158.097 17.9275 158.169 18.1726C158.753 20.2487 159.301 22.3319 159.914 24.4008C160.101 25.0279 160.079 25.2874 159.315 25.2514Z" fill="white"/>
<path d="M92.3843 17.0193C92.0743 15.1883 90.9858 14.035 89.2197 13.4943C88.3979 13.242 87.5618 13.0762 86.704 13.0762C83.9936 13.0762 81.2759 13.1051 78.5655 13.0546C77.7942 13.0402 77.614 13.2997 77.6284 14.0206C77.6645 17.0049 77.6429 19.9964 77.6429 22.9807C77.6429 25.0784 77.614 27.1761 77.6501 29.2737C77.6717 30.4704 77.1166 32.1067 77.8952 32.7338C78.6376 33.3321 80.2163 32.8708 81.4273 32.9285C82.0328 32.9573 82.2347 32.7482 82.2203 32.1427C82.1842 30.6506 82.2275 29.1584 82.1986 27.6663C82.1914 27.1184 82.3644 26.9166 82.9267 26.931C84.2098 26.9598 85.5001 26.967 86.7832 26.931C90.0559 26.8373 92.0887 25.3307 92.4491 22.541C92.6798 20.7173 92.6942 18.8575 92.3843 17.0193ZM84.3035 23.0889C82.2131 23.0744 82.2131 23.0889 82.2131 20.9551V19.9964C82.2131 19.9964 82.1914 19.9964 82.177 19.9964C82.2203 19.0809 81.9175 17.8699 82.3861 17.3293C82.9411 16.7021 84.1954 17.1779 85.1397 17.1202C85.529 17.0914 85.9254 17.0986 86.3147 17.1202C87.2446 17.1851 87.8357 17.6464 87.9654 18.6052C87.9726 18.6772 87.9943 18.7421 88.0015 18.8142C88.1745 22.5915 88.0375 23.1105 84.3035 23.0816V23.0889Z" fill="white"/>
<path d="M147.623 17.3004C147.371 15.3469 146.289 14.0638 144.386 13.4871C143.565 13.242 142.728 13.0762 141.871 13.069C139.16 13.069 136.45 13.0906 133.747 13.0474C133.062 13.0402 132.838 13.2132 132.846 13.9268C132.889 16.9112 132.86 19.8955 132.86 22.8726C132.86 25.0423 132.831 27.2049 132.874 29.3675C132.896 30.5208 132.348 32.1067 133.098 32.7194C133.812 33.3033 135.34 32.8852 136.515 32.9068C136.587 32.9068 136.659 32.8996 136.731 32.9068C137.264 32.9861 137.387 32.7266 137.38 32.2364C137.351 30.7803 137.409 29.3242 137.351 27.8681C137.322 27.1328 137.517 26.9021 138.288 26.9093C140.025 26.9238 141.777 27.0607 143.507 26.7147C146.037 26.2101 147.464 24.7396 147.681 22.1734C147.818 20.5514 147.839 18.9079 147.63 17.286L147.623 17.3004ZM143.168 21.193C143.168 22.2527 142.642 22.8221 141.589 22.9807C140.35 23.1681 139.103 23.0456 137.855 23.0888C137.387 23.1033 137.351 22.8221 137.358 22.4689C137.365 21.6904 137.358 20.9047 137.358 19.9531C137.459 19.1458 136.918 17.841 137.574 17.2788C138.137 16.7958 139.405 17.1274 140.364 17.113C140.789 17.1058 141.222 17.0842 141.647 17.1346C142.519 17.25 143.11 17.7041 143.147 18.6412C143.183 19.4918 143.161 20.3424 143.168 21.193Z" fill="white"/>
<path d="M54.7166 38.4667L54.4226 39.3277H56.0606L55.7666 38.4667C55.6733 38.1914 55.5846 37.9277 55.5006 37.6757C55.4166 37.4237 55.335 37.1554 55.2556 36.8707H55.2276C55.1483 37.1554 55.0666 37.4237 54.9826 37.6757C54.8986 37.9277 54.81 38.1914 54.7166 38.4667ZM53.4566 41.1827L55.0806 36.5697H55.4026L57.0266 41.1827H56.6906L56.1516 39.6007H54.3246L53.7786 41.1827H53.4566ZM59.9426 41.2667C59.6906 41.2667 59.4596 41.2224 59.2496 41.1337C59.0396 41.0404 58.8599 40.9307 58.7106 40.8047L58.8926 40.5737C59.0372 40.6951 59.1912 40.7977 59.3546 40.8817C59.5179 40.9611 59.7209 41.0007 59.9636 41.0007C60.2296 41.0007 60.4279 40.9354 60.5586 40.8047C60.6939 40.6694 60.7616 40.5131 60.7616 40.3357C60.7616 40.2331 60.7359 40.1421 60.6846 40.0627C60.6379 39.9834 60.5749 39.9157 60.4956 39.8597C60.4162 39.8037 60.3276 39.7547 60.2296 39.7127C60.1362 39.6707 60.0406 39.6311 59.9426 39.5937C59.8166 39.5471 59.6882 39.4981 59.5576 39.4467C59.4316 39.3954 59.3172 39.3347 59.2146 39.2647C59.1119 39.1901 59.0279 39.1037 58.9626 39.0057C58.9019 38.9031 58.8716 38.7794 58.8716 38.6347C58.8716 38.5134 58.8949 38.3991 58.9416 38.2917C58.9882 38.1797 59.0582 38.0841 59.1516 38.0047C59.2449 37.9207 59.3569 37.8554 59.4876 37.8087C59.6229 37.7621 59.7792 37.7387 59.9566 37.7387C60.1339 37.7387 60.3066 37.7714 60.4746 37.8367C60.6472 37.9021 60.7942 37.9861 60.9156 38.0887L60.7476 38.3057C60.6356 38.2217 60.5166 38.1517 60.3906 38.0957C60.2646 38.0351 60.1152 38.0047 59.9426 38.0047C59.8119 38.0047 59.6999 38.0234 59.6066 38.0607C59.5132 38.0934 59.4339 38.1377 59.3686 38.1937C59.3079 38.2497 59.2612 38.3151 59.2286 38.3897C59.2006 38.4644 59.1866 38.5391 59.1866 38.6137C59.1866 38.7117 59.2076 38.7957 59.2496 38.8657C59.2962 38.9311 59.3569 38.9894 59.4316 39.0407C59.5062 39.0921 59.5902 39.1387 59.6836 39.1807C59.7816 39.2181 59.8796 39.2554 59.9776 39.2927C60.1082 39.3441 60.2389 39.3954 60.3696 39.4467C60.5002 39.4981 60.6169 39.5611 60.7196 39.6357C60.8269 39.7104 60.9132 39.8037 60.9786 39.9157C61.0439 40.0231 61.0766 40.1584 61.0766 40.3217C61.0766 40.4477 61.0509 40.5691 60.9996 40.6857C60.9529 40.7977 60.8806 40.8981 60.7826 40.9867C60.6846 41.0707 60.5656 41.1384 60.4256 41.1897C60.2856 41.2411 60.1246 41.2667 59.9426 41.2667ZM62.9335 41.2667C62.5835 41.2667 62.3268 41.1617 62.1635 40.9517C62.0002 40.7417 61.9185 40.4174 61.9185 39.9787V37.8227H62.2265V39.9367C62.2265 40.2961 62.2848 40.5621 62.4015 40.7347C62.5228 40.9027 62.7188 40.9867 62.9895 40.9867C63.1902 40.9867 63.3722 40.9331 63.5355 40.8257C63.6988 40.7137 63.8785 40.5387 64.0745 40.3007V37.8227H64.3825V41.1827H64.1235L64.0885 40.6227H64.0745C63.9112 40.8187 63.7385 40.9751 63.5565 41.0917C63.3745 41.2084 63.1668 41.2667 62.9335 41.2667ZM66.9886 41.2667C66.8252 41.2667 66.6549 41.2294 66.4776 41.1547C66.3049 41.0754 66.1392 40.9704 65.9806 40.8397H65.9666L65.9316 41.1827H65.6726V36.1497H65.9806V37.6057L65.9666 38.2637C66.1392 38.1191 66.3236 37.9954 66.5196 37.8927C66.7156 37.7901 66.9186 37.7387 67.1286 37.7387C67.5766 37.7387 67.9126 37.8951 68.1366 38.2077C68.3606 38.5157 68.4726 38.9311 68.4726 39.4537C68.4726 39.7384 68.4329 39.9927 68.3536 40.2167C68.2742 40.4407 68.1646 40.6321 68.0246 40.7907C67.8892 40.9447 67.7306 41.0637 67.5486 41.1477C67.3712 41.2271 67.1846 41.2667 66.9886 41.2667ZM66.9746 40.9937C67.1426 40.9937 67.2989 40.9564 67.4436 40.8817C67.5882 40.8071 67.7119 40.7021 67.8146 40.5667C67.9172 40.4314 67.9966 40.2704 68.0526 40.0837C68.1132 39.8924 68.1436 39.6824 68.1436 39.4537C68.1436 39.2484 68.1226 39.0571 68.0806 38.8797C68.0432 38.7024 67.9826 38.5507 67.8986 38.4247C67.8146 38.2941 67.7049 38.1937 67.5696 38.1237C67.4342 38.0491 67.2709 38.0117 67.0796 38.0117C66.9116 38.0117 66.7366 38.0607 66.5546 38.1587C66.3726 38.2521 66.1812 38.3874 65.9806 38.5647V40.5597C66.1672 40.7184 66.3469 40.8304 66.5196 40.8957C66.6922 40.9611 66.8439 40.9937 66.9746 40.9937ZM70.2785 41.2667C70.0265 41.2667 69.7955 41.2224 69.5855 41.1337C69.3755 41.0404 69.1958 40.9307 69.0465 40.8047L69.2285 40.5737C69.3732 40.6951 69.5272 40.7977 69.6905 40.8817C69.8538 40.9611 70.0568 41.0007 70.2995 41.0007C70.5655 41.0007 70.7638 40.9354 70.8945 40.8047C71.0298 40.6694 71.0975 40.5131 71.0975 40.3357C71.0975 40.2331 71.0718 40.1421 71.0205 40.0627C70.9738 39.9834 70.9108 39.9157 70.8315 39.8597C70.7522 39.8037 70.6635 39.7547 70.5655 39.7127C70.4722 39.6707 70.3765 39.6311 70.2785 39.5937C70.1525 39.5471 70.0242 39.4981 69.8935 39.4467C69.7675 39.3954 69.6532 39.3347 69.5505 39.2647C69.4478 39.1901 69.3638 39.1037 69.2985 39.0057C69.2378 38.9031 69.2075 38.7794 69.2075 38.6347C69.2075 38.5134 69.2308 38.3991 69.2775 38.2917C69.3242 38.1797 69.3942 38.0841 69.4875 38.0047C69.5808 37.9207 69.6928 37.8554 69.8235 37.8087C69.9588 37.7621 70.1152 37.7387 70.2925 37.7387C70.4698 37.7387 70.6425 37.7714 70.8105 37.8367C70.9832 37.9021 71.1302 37.9861 71.2515 38.0887L71.0835 38.3057C70.9715 38.2217 70.8525 38.1517 70.7265 38.0957C70.6005 38.0351 70.4512 38.0047 70.2785 38.0047C70.1478 38.0047 70.0358 38.0234 69.9425 38.0607C69.8492 38.0934 69.7698 38.1377 69.7045 38.1937C69.6438 38.2497 69.5972 38.3151 69.5645 38.3897C69.5365 38.4644 69.5225 38.5391 69.5225 38.6137C69.5225 38.7117 69.5435 38.7957 69.5855 38.8657C69.6322 38.9311 69.6928 38.9894 69.7675 39.0407C69.8422 39.0921 69.9262 39.1387 70.0195 39.1807C70.1175 39.2181 70.2155 39.2554 70.3135 39.2927C70.4442 39.3441 70.5748 39.3954 70.7055 39.4467C70.8362 39.4981 70.9528 39.5611 71.0555 39.6357C71.1628 39.7104 71.2492 39.8037 71.3145 39.9157C71.3798 40.0231 71.4125 40.1584 71.4125 40.3217C71.4125 40.4477 71.3868 40.5691 71.3355 40.6857C71.2888 40.7977 71.2165 40.8981 71.1185 40.9867C71.0205 41.0707 70.9015 41.1384 70.7615 41.1897C70.6215 41.2411 70.4605 41.2667 70.2785 41.2667ZM72.3034 41.1827V37.8227H72.6114V41.1827H72.3034ZM72.4644 37.0107C72.3851 37.0107 72.3174 36.9851 72.2614 36.9337C72.2101 36.8824 72.1844 36.8171 72.1844 36.7377C72.1844 36.6491 72.2101 36.5814 72.2614 36.5347C72.3174 36.4834 72.3851 36.4577 72.4644 36.4577C72.5438 36.4577 72.6091 36.4834 72.6604 36.5347C72.7164 36.5814 72.7444 36.6491 72.7444 36.7377C72.7444 36.8171 72.7164 36.8824 72.6604 36.9337C72.6091 36.9851 72.5438 37.0107 72.4644 37.0107ZM75.016 41.2667C74.5914 41.2667 74.253 41.1174 74.001 40.8187C73.749 40.5154 73.623 40.0791 73.623 39.5097C73.623 39.2391 73.6627 38.9941 73.742 38.7747C73.8214 38.5554 73.9287 38.3687 74.064 38.2147C74.204 38.0607 74.3627 37.9441 74.54 37.8647C74.722 37.7807 74.9134 37.7387 75.114 37.7387C75.3194 37.7387 75.4967 37.7761 75.646 37.8507C75.8 37.9207 75.961 38.0211 76.129 38.1517L76.115 37.5357V36.1497H76.423V41.1827H76.157L76.129 40.7487H76.108C75.9727 40.8841 75.8117 41.0054 75.625 41.1127C75.443 41.2154 75.24 41.2667 75.016 41.2667ZM75.058 40.9937C75.2447 40.9937 75.422 40.9471 75.59 40.8537C75.7627 40.7557 75.9377 40.6181 76.115 40.4407V38.4457C75.9377 38.2871 75.7697 38.1751 75.611 38.1097C75.457 38.0444 75.2984 38.0117 75.135 38.0117C74.967 38.0117 74.8107 38.0514 74.666 38.1307C74.5214 38.2054 74.3954 38.3104 74.288 38.4457C74.1854 38.5764 74.1037 38.7351 74.043 38.9217C73.9824 39.1037 73.952 39.2997 73.952 39.5097C73.952 39.7337 73.9754 39.9367 74.022 40.1187C74.0734 40.3007 74.1457 40.4571 74.239 40.5877C74.3324 40.7137 74.4467 40.8141 74.582 40.8887C74.722 40.9587 74.8807 40.9937 75.058 40.9937ZM77.7107 41.1827V37.8227H78.0187V41.1827H77.7107ZM77.8717 37.0107C77.7923 37.0107 77.7247 36.9851 77.6687 36.9337C77.6173 36.8824 77.5917 36.8171 77.5917 36.7377C77.5917 36.6491 77.6173 36.5814 77.6687 36.5347C77.7247 36.4834 77.7923 36.4577 77.8717 36.4577C77.951 36.4577 78.0163 36.4834 78.0677 36.5347C78.1237 36.5814 78.1517 36.6491 78.1517 36.7377C78.1517 36.8171 78.1237 36.8824 78.0677 36.9337C78.0163 36.9851 77.951 37.0107 77.8717 37.0107ZM80.0453 41.2667C79.9099 41.2667 79.7839 41.2481 79.6673 41.2107C79.5506 41.1734 79.4479 41.1174 79.3593 41.0427C79.2706 40.9681 79.2006 40.8724 79.1493 40.7557C79.0979 40.6391 79.0723 40.5014 79.0723 40.3427C79.0723 39.9694 79.2449 39.6871 79.5903 39.4957C79.9403 39.2997 80.4909 39.1597 81.2423 39.0757C81.2423 38.9497 81.2329 38.8237 81.2143 38.6977C81.1956 38.5671 81.1559 38.4527 81.0953 38.3547C81.0346 38.2521 80.9529 38.1704 80.8503 38.1097C80.7476 38.0444 80.6123 38.0117 80.4443 38.0117C80.2203 38.0117 80.0149 38.0561 79.8283 38.1447C79.6416 38.2334 79.4899 38.3197 79.3733 38.4037L79.2333 38.1727C79.2939 38.1307 79.3663 38.0841 79.4503 38.0327C79.5389 37.9814 79.6369 37.9347 79.7443 37.8927C79.8516 37.8507 79.9683 37.8157 80.0943 37.7877C80.2203 37.7551 80.3509 37.7387 80.4863 37.7387C80.6823 37.7387 80.8479 37.7737 80.9833 37.8437C81.1186 37.9091 81.2283 38.0001 81.3123 38.1167C81.3963 38.2334 81.4569 38.3711 81.4943 38.5297C81.5316 38.6837 81.5503 38.8517 81.5503 39.0337V41.1827H81.2843L81.2563 40.7487H81.2353C81.0626 40.8841 80.8759 41.0054 80.6753 41.1127C80.4793 41.2154 80.2693 41.2667 80.0453 41.2667ZM80.1013 41.0007C80.2973 41.0007 80.4839 40.9541 80.6613 40.8607C80.8386 40.7674 81.0323 40.6321 81.2423 40.4547V39.3137C80.8969 39.3557 80.6053 39.4071 80.3673 39.4677C80.1293 39.5284 79.9379 39.6007 79.7933 39.6847C79.6486 39.7687 79.5436 39.8644 79.4783 39.9717C79.4176 40.0791 79.3873 40.1981 79.3873 40.3287C79.3873 40.4501 79.4059 40.5527 79.4433 40.6367C79.4806 40.7207 79.5319 40.7907 79.5973 40.8467C79.6626 40.8981 79.7373 40.9377 79.8213 40.9657C79.9099 40.9891 80.0033 41.0007 80.1013 41.0007ZM82.7487 41.1827V37.8227H83.0147L83.0427 38.4457H83.0637C83.1757 38.2357 83.3111 38.0654 83.4697 37.9347C83.6331 37.8041 83.8151 37.7387 84.0157 37.7387C84.0811 37.7387 84.1394 37.7434 84.1907 37.7527C84.2421 37.7621 84.2957 37.7807 84.3517 37.8087L84.2817 38.0887C84.2257 38.0654 84.1767 38.0514 84.1347 38.0467C84.0927 38.0374 84.0391 38.0327 83.9737 38.0327C83.8244 38.0327 83.6657 38.0981 83.4977 38.2287C83.3344 38.3547 83.1874 38.5764 83.0567 38.8937V41.1827H82.7487ZM85.0903 42.7157C84.9643 42.7157 84.85 42.6924 84.7473 42.6457L84.8173 42.3727C84.8547 42.3867 84.8967 42.3984 84.9433 42.4077C84.99 42.4217 85.039 42.4287 85.0903 42.4287C85.3003 42.4287 85.4753 42.3447 85.6153 42.1767C85.7553 42.0087 85.8673 41.7964 85.9513 41.5397L86.0423 41.2457L84.6633 37.8227H84.9993L85.8113 39.9367C85.8627 40.0767 85.9187 40.2307 85.9793 40.3987C86.0447 40.5667 86.11 40.7254 86.1753 40.8747H86.2033C86.2547 40.7254 86.306 40.5667 86.3573 40.3987C86.4133 40.2307 86.4647 40.0767 86.5113 39.9367L87.2323 37.8227H87.5473L86.2173 41.6027C86.1707 41.7427 86.1123 41.8804 86.0423 42.0157C85.977 42.1511 85.8977 42.2701 85.8043 42.3727C85.7157 42.4754 85.6107 42.5571 85.4893 42.6177C85.3727 42.6831 85.2397 42.7157 85.0903 42.7157ZM90.8985 41.2667C90.6979 41.2667 90.5065 41.2271 90.3245 41.1477C90.1425 41.0684 89.9815 40.9541 89.8415 40.8047C89.7062 40.6554 89.5965 40.4734 89.5125 40.2587C89.4332 40.0394 89.3935 39.7897 89.3935 39.5097C89.3935 39.2297 89.4332 38.9801 89.5125 38.7607C89.5965 38.5367 89.7062 38.3501 89.8415 38.2007C89.9815 38.0514 90.1425 37.9371 90.3245 37.8577C90.5065 37.7784 90.6979 37.7387 90.8985 37.7387C91.0992 37.7387 91.2905 37.7784 91.4725 37.8577C91.6592 37.9371 91.8202 38.0514 91.9555 38.2007C92.0955 38.3501 92.2052 38.5367 92.2845 38.7607C92.3685 38.9801 92.4105 39.2297 92.4105 39.5097C92.4105 39.7897 92.3685 40.0394 92.2845 40.2587C92.2052 40.4734 92.0955 40.6554 91.9555 40.8047C91.8202 40.9541 91.6592 41.0684 91.4725 41.1477C91.2905 41.2271 91.0992 41.2667 90.8985 41.2667ZM90.8985 40.9937C91.0665 40.9937 91.2229 40.9587 91.3675 40.8887C91.5169 40.8141 91.6429 40.7114 91.7455 40.5807C91.8529 40.4501 91.9369 40.2937 91.9975 40.1117C92.0582 39.9297 92.0885 39.7291 92.0885 39.5097C92.0885 39.2857 92.0582 39.0827 91.9975 38.9007C91.9369 38.7187 91.8529 38.5624 91.7455 38.4317C91.6429 38.2964 91.5169 38.1937 91.3675 38.1237C91.2229 38.0491 91.0665 38.0117 90.8985 38.0117C90.7305 38.0117 90.5742 38.0491 90.4295 38.1237C90.2849 38.1937 90.1589 38.2964 90.0515 38.4317C89.9489 38.5624 89.8672 38.7187 89.8065 38.9007C89.7459 39.0827 89.7155 39.2857 89.7155 39.5097C89.7155 39.7291 89.7459 39.9297 89.8065 40.1117C89.8672 40.2937 89.9489 40.4501 90.0515 40.5807C90.1589 40.7114 90.2849 40.8141 90.4295 40.8887C90.5742 40.9587 90.7305 40.9937 90.8985 40.9937ZM93.4686 41.1827V38.0887H93.0066V37.8507L93.4686 37.8227V37.0737C93.4686 36.7377 93.541 36.4857 93.6856 36.3177C93.8303 36.1497 94.0356 36.0657 94.3016 36.0657C94.465 36.0657 94.6283 36.1031 94.7916 36.1777L94.7076 36.4297C94.6376 36.3924 94.5676 36.3667 94.4976 36.3527C94.4323 36.3387 94.367 36.3317 94.3016 36.3317C94.1243 36.3317 93.9913 36.3971 93.9026 36.5277C93.8186 36.6584 93.7766 36.8474 93.7766 37.0947V37.8227H94.5536V38.0887H93.7766V41.1827H93.4686ZM96.6949 41.1827V36.5697H97.0169V41.1827H96.6949ZM98.3415 41.1827V37.8227H98.6075L98.6355 38.4457H98.6565C98.7685 38.2357 98.9038 38.0654 99.0625 37.9347C99.2258 37.8041 99.4078 37.7387 99.6085 37.7387C99.6738 37.7387 99.7322 37.7434 99.7835 37.7527C99.8348 37.7621 99.8885 37.7807 99.9445 37.8087L99.8745 38.0887C99.8185 38.0654 99.7695 38.0514 99.7275 38.0467C99.6855 38.0374 99.6318 38.0327 99.5665 38.0327C99.4172 38.0327 99.2585 38.0981 99.0905 38.2287C98.9272 38.3547 98.7802 38.5764 98.6495 38.8937V41.1827H98.3415ZM101.72 41.2667C101.519 41.2667 101.328 41.2271 101.146 41.1477C100.964 41.0684 100.803 40.9541 100.663 40.8047C100.527 40.6554 100.418 40.4734 100.334 40.2587C100.254 40.0394 100.215 39.7897 100.215 39.5097C100.215 39.2297 100.254 38.9801 100.334 38.7607C100.418 38.5367 100.527 38.3501 100.663 38.2007C100.803 38.0514 100.964 37.9371 101.146 37.8577C101.328 37.7784 101.519 37.7387 101.72 37.7387C101.92 37.7387 102.112 37.7784 102.294 37.8577C102.48 37.9371 102.641 38.0514 102.777 38.2007C102.917 38.3501 103.026 38.5367 103.106 38.7607C103.19 38.9801 103.232 39.2297 103.232 39.5097C103.232 39.7897 103.19 40.0394 103.106 40.2587C103.026 40.4734 102.917 40.6554 102.777 40.8047C102.641 40.9541 102.48 41.0684 102.294 41.1477C102.112 41.2271 101.92 41.2667 101.72 41.2667ZM101.72 40.9937C101.888 40.9937 102.044 40.9587 102.189 40.8887C102.338 40.8141 102.464 40.7114 102.567 40.5807C102.674 40.4501 102.758 40.2937 102.819 40.1117C102.879 39.9297 102.91 39.7291 102.91 39.5097C102.91 39.2857 102.879 39.0827 102.819 38.9007C102.758 38.7187 102.674 38.5624 102.567 38.4317C102.464 38.2964 102.338 38.1937 102.189 38.1237C102.044 38.0491 101.888 38.0117 101.72 38.0117C101.552 38.0117 101.395 38.0491 101.251 38.1237C101.106 38.1937 100.98 38.2964 100.873 38.4317C100.77 38.5624 100.688 38.7187 100.628 38.9007C100.567 39.0827 100.537 39.2857 100.537 39.5097C100.537 39.7291 100.567 39.9297 100.628 40.1117C100.688 40.2937 100.77 40.4501 100.873 40.5807C100.98 40.7114 101.106 40.8141 101.251 40.8887C101.395 40.9587 101.552 40.9937 101.72 40.9937ZM104.241 41.1827V37.8227H104.507L104.535 38.3407H104.556C104.729 38.1681 104.906 38.0257 105.088 37.9137C105.27 37.7971 105.478 37.7387 105.711 37.7387C106.061 37.7387 106.318 37.8437 106.481 38.0537C106.644 38.2637 106.726 38.5881 106.726 39.0267V41.1827H106.418V39.0687C106.418 38.7094 106.357 38.4457 106.236 38.2777C106.119 38.1051 105.923 38.0187 105.648 38.0187C105.447 38.0187 105.265 38.0724 105.102 38.1797C104.939 38.2824 104.754 38.4387 104.549 38.6487V41.1827H104.241ZM111.041 41.2667C110.756 41.2667 110.495 41.2107 110.257 41.0987C110.019 40.9867 109.814 40.8281 109.641 40.6227C109.473 40.4127 109.342 40.1607 109.249 39.8667C109.156 39.5681 109.109 39.2344 109.109 38.8657C109.109 38.5017 109.156 38.1727 109.249 37.8787C109.347 37.5847 109.482 37.3351 109.655 37.1297C109.828 36.9197 110.033 36.7611 110.271 36.6537C110.514 36.5417 110.782 36.4857 111.076 36.4857C111.347 36.4857 111.585 36.5417 111.79 36.6537C111.995 36.7657 112.159 36.8941 112.28 37.0387L112.091 37.2557C111.965 37.1111 111.818 36.9967 111.65 36.9127C111.482 36.8241 111.293 36.7797 111.083 36.7797C110.831 36.7797 110.602 36.8287 110.397 36.9267C110.196 37.0247 110.024 37.1647 109.879 37.3467C109.739 37.5241 109.632 37.7411 109.557 37.9977C109.482 38.2544 109.445 38.5437 109.445 38.8657C109.445 39.1877 109.482 39.4794 109.557 39.7407C109.632 39.9974 109.739 40.2167 109.879 40.3987C110.019 40.5807 110.187 40.7231 110.383 40.8257C110.584 40.9237 110.808 40.9727 111.055 40.9727C111.293 40.9727 111.505 40.9261 111.692 40.8327C111.879 40.7347 112.056 40.5924 112.224 40.4057L112.413 40.6087C112.236 40.8141 112.037 40.9751 111.818 41.0917C111.599 41.2084 111.34 41.2667 111.041 41.2667ZM114.054 41.2667C113.919 41.2667 113.793 41.2481 113.676 41.2107C113.559 41.1734 113.457 41.1174 113.368 41.0427C113.279 40.9681 113.209 40.8724 113.158 40.7557C113.107 40.6391 113.081 40.5014 113.081 40.3427C113.081 39.9694 113.254 39.6871 113.599 39.4957C113.949 39.2997 114.5 39.1597 115.251 39.0757C115.251 38.9497 115.242 38.8237 115.223 38.6977C115.204 38.5671 115.165 38.4527 115.104 38.3547C115.043 38.2521 114.962 38.1704 114.859 38.1097C114.756 38.0444 114.621 38.0117 114.453 38.0117C114.229 38.0117 114.024 38.0561 113.837 38.1447C113.65 38.2334 113.499 38.3197 113.382 38.4037L113.242 38.1727C113.303 38.1307 113.375 38.0841 113.459 38.0327C113.548 37.9814 113.646 37.9347 113.753 37.8927C113.86 37.8507 113.977 37.8157 114.103 37.7877C114.229 37.7551 114.36 37.7387 114.495 37.7387C114.691 37.7387 114.857 37.7737 114.992 37.8437C115.127 37.9091 115.237 38.0001 115.321 38.1167C115.405 38.2334 115.466 38.3711 115.503 38.5297C115.54 38.6837 115.559 38.8517 115.559 39.0337V41.1827H115.293L115.265 40.7487H115.244C115.071 40.8841 114.885 41.0054 114.684 41.1127C114.488 41.2154 114.278 41.2667 114.054 41.2667ZM114.11 41.0007C114.306 41.0007 114.493 40.9541 114.67 40.8607C114.847 40.7674 115.041 40.6321 115.251 40.4547V39.3137C114.906 39.3557 114.614 39.4071 114.376 39.4677C114.138 39.5284 113.947 39.6007 113.802 39.6847C113.657 39.7687 113.552 39.8644 113.487 39.9717C113.426 40.0791 113.396 40.1981 113.396 40.3287C113.396 40.4501 113.415 40.5527 113.452 40.6367C113.489 40.7207 113.541 40.7907 113.606 40.8467C113.671 40.8981 113.746 40.9377 113.83 40.9657C113.919 40.9891 114.012 41.0007 114.11 41.0007ZM116.758 42.7017V37.8227H117.024L117.052 38.2427H117.073C117.236 38.1121 117.413 37.9954 117.605 37.8927C117.801 37.7901 118.004 37.7387 118.214 37.7387C118.662 37.7387 118.998 37.8951 119.222 38.2077C119.446 38.5157 119.558 38.9311 119.558 39.4537C119.558 39.7384 119.518 39.9927 119.439 40.2167C119.359 40.4407 119.25 40.6321 119.11 40.7907C118.974 40.9447 118.816 41.0637 118.634 41.1477C118.456 41.2271 118.27 41.2667 118.074 41.2667C117.915 41.2667 117.752 41.2317 117.584 41.1617C117.416 41.0871 117.243 40.9844 117.066 40.8537V42.7017H116.758ZM118.06 40.9937C118.228 40.9937 118.384 40.9564 118.529 40.8817C118.673 40.8071 118.797 40.7021 118.9 40.5667C119.002 40.4314 119.082 40.2704 119.138 40.0837C119.198 39.8924 119.229 39.6824 119.229 39.4537C119.229 39.2484 119.208 39.0571 119.166 38.8797C119.128 38.7024 119.068 38.5507 118.984 38.4247C118.9 38.2941 118.79 38.1937 118.655 38.1237C118.519 38.0491 118.356 38.0117 118.165 38.0117C117.997 38.0117 117.822 38.0607 117.64 38.1587C117.462 38.2521 117.271 38.3874 117.066 38.5647V40.5597C117.262 40.7184 117.444 40.8304 117.612 40.8957C117.78 40.9611 117.929 40.9937 118.06 40.9937ZM120.565 41.1827V37.8227H120.873V41.1827H120.565ZM120.726 37.0107C120.647 37.0107 120.579 36.9851 120.523 36.9337C120.472 36.8824 120.446 36.8171 120.446 36.7377C120.446 36.6491 120.472 36.5814 120.523 36.5347C120.579 36.4834 120.647 36.4577 120.726 36.4577C120.805 36.4577 120.871 36.4834 120.922 36.5347C120.978 36.5814 121.006 36.6491 121.006 36.7377C121.006 36.8171 120.978 36.8824 120.922 36.9337C120.871 36.9851 120.805 37.0107 120.726 37.0107ZM123.082 41.2667C122.918 41.2667 122.783 41.2411 122.676 41.1897C122.568 41.1431 122.482 41.0754 122.417 40.9867C122.351 40.8981 122.305 40.7907 122.277 40.6647C122.253 40.5387 122.242 40.4011 122.242 40.2517V38.0887H121.717V37.8507L122.249 37.8227L122.291 36.8497H122.557V37.8227H123.53V38.0887H122.557V40.2797C122.557 40.3871 122.564 40.4851 122.578 40.5737C122.596 40.6577 122.627 40.7324 122.669 40.7977C122.711 40.8584 122.767 40.9074 122.837 40.9447C122.911 40.9774 123.007 40.9937 123.124 40.9937C123.189 40.9937 123.259 40.9844 123.334 40.9657C123.413 40.9424 123.483 40.9167 123.544 40.8887L123.628 41.1407C123.53 41.1781 123.432 41.2084 123.334 41.2317C123.236 41.2551 123.152 41.2667 123.082 41.2667ZM124.923 41.2667C124.788 41.2667 124.662 41.2481 124.545 41.2107C124.429 41.1734 124.326 41.1174 124.237 41.0427C124.149 40.9681 124.079 40.8724 124.027 40.7557C123.976 40.6391 123.95 40.5014 123.95 40.3427C123.95 39.9694 124.123 39.6871 124.468 39.4957C124.818 39.2997 125.369 39.1597 126.12 39.0757C126.12 38.9497 126.111 38.8237 126.092 38.6977C126.074 38.5671 126.034 38.4527 125.973 38.3547C125.913 38.2521 125.831 38.1704 125.728 38.1097C125.626 38.0444 125.49 38.0117 125.322 38.0117C125.098 38.0117 124.893 38.0561 124.706 38.1447C124.52 38.2334 124.368 38.3197 124.251 38.4037L124.111 38.1727C124.172 38.1307 124.244 38.0841 124.328 38.0327C124.417 37.9814 124.515 37.9347 124.622 37.8927C124.73 37.8507 124.846 37.8157 124.972 37.7877C125.098 37.7551 125.229 37.7387 125.364 37.7387C125.56 37.7387 125.726 37.7737 125.861 37.8437C125.997 37.9091 126.106 38.0001 126.19 38.1167C126.274 38.2334 126.335 38.3711 126.372 38.5297C126.41 38.6837 126.428 38.8517 126.428 39.0337V41.1827H126.162L126.134 40.7487H126.113C125.941 40.8841 125.754 41.0054 125.553 41.1127C125.357 41.2154 125.147 41.2667 124.923 41.2667ZM124.979 41.0007C125.175 41.0007 125.362 40.9541 125.539 40.8607C125.717 40.7674 125.91 40.6321 126.12 40.4547V39.3137C125.775 39.3557 125.483 39.4071 125.245 39.4677C125.007 39.5284 124.816 39.6007 124.671 39.6847C124.527 39.7687 124.422 39.8644 124.356 39.9717C124.296 40.0791 124.265 40.1981 124.265 40.3287C124.265 40.4501 124.284 40.5527 124.321 40.6367C124.359 40.7207 124.41 40.7907 124.475 40.8467C124.541 40.8981 124.615 40.9377 124.699 40.9657C124.788 40.9891 124.881 41.0007 124.979 41.0007ZM128.04 41.2667C127.764 41.2667 127.627 41.0894 127.627 40.7347V36.1497H127.935V40.7767C127.935 40.8514 127.949 40.9074 127.977 40.9447C128.005 40.9774 128.04 40.9937 128.082 40.9937C128.096 40.9937 128.11 40.9937 128.124 40.9937C128.142 40.9937 128.17 40.9891 128.208 40.9797L128.264 41.2317C128.231 41.2411 128.198 41.2481 128.166 41.2527C128.133 41.2621 128.091 41.2667 128.04 41.2667ZM54.0796 50.1827V45.5697H55.2416C55.503 45.5697 55.7363 45.5931 55.9416 45.6397C56.1516 45.6817 56.3266 45.7541 56.4666 45.8567C56.6113 45.9594 56.721 46.0924 56.7956 46.2557C56.875 46.4191 56.9146 46.6197 56.9146 46.8577C56.9146 47.3104 56.77 47.6487 56.4806 47.8727C56.1913 48.0921 55.7876 48.2017 55.2696 48.2017H54.4016V50.1827H54.0796ZM54.4016 47.9287H55.1926C55.664 47.9287 56.014 47.8447 56.2426 47.6767C56.4713 47.5087 56.5856 47.2357 56.5856 46.8577C56.5856 46.4704 56.4666 46.2044 56.2286 46.0597C55.9953 45.9151 55.6406 45.8427 55.1646 45.8427H54.4016V47.9287ZM58.2865 50.2667C58.1511 50.2667 58.0251 50.2481 57.9085 50.2107C57.7918 50.1734 57.6891 50.1174 57.6005 50.0427C57.5118 49.9681 57.4418 49.8724 57.3905 49.7557C57.3391 49.6391 57.3135 49.5014 57.3135 49.3427C57.3135 48.9694 57.4861 48.6871 57.8315 48.4957C58.1815 48.2997 58.7321 48.1597 59.4835 48.0757C59.4835 47.9497 59.4741 47.8237 59.4555 47.6977C59.4368 47.5671 59.3971 47.4527 59.3365 47.3547C59.2758 47.2521 59.1941 47.1704 59.0915 47.1097C58.9888 47.0444 58.8535 47.0117 58.6855 47.0117C58.4615 47.0117 58.2561 47.0561 58.0695 47.1447C57.8828 47.2334 57.7311 47.3197 57.6145 47.4037L57.4745 47.1727C57.5351 47.1307 57.6075 47.0841 57.6915 47.0327C57.7801 46.9814 57.8781 46.9347 57.9855 46.8927C58.0928 46.8507 58.2095 46.8157 58.3355 46.7877C58.4615 46.7551 58.5921 46.7387 58.7275 46.7387C58.9235 46.7387 59.0891 46.7737 59.2245 46.8437C59.3598 46.9091 59.4695 47.0001 59.5535 47.1167C59.6375 47.2334 59.6981 47.3711 59.7355 47.5297C59.7728 47.6837 59.7915 47.8517 59.7915 48.0337V50.1827H59.5255L59.4975 49.7487H59.4765C59.3038 49.8841 59.1171 50.0054 58.9165 50.1127C58.7205 50.2154 58.5105 50.2667 58.2865 50.2667ZM58.3425 50.0007C58.5385 50.0007 58.7251 49.9541 58.9025 49.8607C59.0798 49.7674 59.2735 49.6321 59.4835 49.4547V48.3137C59.1381 48.3557 58.8465 48.4071 58.6085 48.4677C58.3705 48.5284 58.1791 48.6007 58.0345 48.6847C57.8898 48.7687 57.7848 48.8644 57.7195 48.9717C57.6588 49.0791 57.6285 49.1981 57.6285 49.3287C57.6285 49.4501 57.6471 49.5527 57.6845 49.6367C57.7218 49.7207 57.7731 49.7907 57.8385 49.8467C57.9038 49.8981 57.9785 49.9377 58.0625 49.9657C58.1511 49.9891 58.2445 50.0007 58.3425 50.0007ZM60.9899 50.1827V46.8227H61.2559L61.2839 47.4457H61.3049C61.4169 47.2357 61.5523 47.0654 61.7109 46.9347C61.8743 46.8041 62.0563 46.7387 62.2569 46.7387C62.3223 46.7387 62.3806 46.7434 62.4319 46.7527C62.4833 46.7621 62.5369 46.7807 62.5929 46.8087L62.5229 47.0887C62.4669 47.0654 62.4179 47.0514 62.3759 47.0467C62.3339 47.0374 62.2803 47.0327 62.2149 47.0327C62.0656 47.0327 61.9069 47.0981 61.7389 47.2287C61.5756 47.3547 61.4286 47.5764 61.2979 47.8937V50.1827H60.9899ZM64.1286 50.2667C63.9653 50.2667 63.83 50.2411 63.7226 50.1897C63.6153 50.1431 63.529 50.0754 63.4636 49.9867C63.3983 49.8981 63.3516 49.7907 63.3236 49.6647C63.3003 49.5387 63.2886 49.4011 63.2886 49.2517V47.0887H62.7636V46.8507L63.2956 46.8227L63.3376 45.8497H63.6036V46.8227H64.5766V47.0887H63.6036V49.2797C63.6036 49.3871 63.6106 49.4851 63.6246 49.5737C63.6433 49.6577 63.6736 49.7324 63.7156 49.7977C63.7576 49.8584 63.8136 49.9074 63.8836 49.9447C63.9583 49.9774 64.054 49.9937 64.1706 49.9937C64.236 49.9937 64.306 49.9844 64.3806 49.9657C64.46 49.9424 64.53 49.9167 64.5906 49.8887L64.6746 50.1407C64.5766 50.1781 64.4786 50.2084 64.3806 50.2317C64.2826 50.2551 64.1986 50.2667 64.1286 50.2667ZM65.3923 50.1827V46.8227H65.6583L65.6863 47.3407H65.7073C65.88 47.1681 66.0573 47.0257 66.2393 46.9137C66.4213 46.7971 66.629 46.7387 66.8623 46.7387C67.2123 46.7387 67.469 46.8437 67.6323 47.0537C67.7956 47.2637 67.8773 47.5881 67.8773 48.0267V50.1827H67.5693V48.0687C67.5693 47.7094 67.5086 47.4457 67.3873 47.2777C67.2706 47.1051 67.0746 47.0187 66.7993 47.0187C66.5986 47.0187 66.4166 47.0724 66.2533 47.1797C66.09 47.2824 65.9056 47.4387 65.7003 47.6487V50.1827H65.3923ZM70.3919 50.2667C70.1772 50.2667 69.9742 50.2271 69.7829 50.1477C69.5962 50.0684 69.4329 49.9541 69.2929 49.8047C69.1529 49.6507 69.0409 49.4664 68.9569 49.2517C68.8775 49.0324 68.8379 48.7851 68.8379 48.5097C68.8379 48.2344 68.8775 47.9871 68.9569 47.7677C69.0409 47.5484 69.1505 47.3641 69.2859 47.2147C69.4259 47.0607 69.5822 46.9441 69.7549 46.8647C69.9322 46.7807 70.1142 46.7387 70.3009 46.7387C70.7022 46.7387 71.0172 46.8741 71.2459 47.1447C71.4745 47.4154 71.5889 47.7981 71.5889 48.2927C71.5889 48.3347 71.5889 48.3767 71.5889 48.4187C71.5889 48.4607 71.5842 48.5027 71.5749 48.5447H69.1529C69.1575 48.7547 69.1902 48.9507 69.2509 49.1327C69.3115 49.3101 69.3955 49.4641 69.5029 49.5947C69.6149 49.7207 69.7479 49.8211 69.9019 49.8957C70.0559 49.9657 70.2285 50.0007 70.4199 50.0007C70.6019 50.0007 70.7652 49.9751 70.9099 49.9237C71.0592 49.8677 71.1969 49.7931 71.3229 49.6997L71.4489 49.9377C71.3135 50.0171 71.1642 50.0917 71.0009 50.1617C70.8422 50.2317 70.6392 50.2667 70.3919 50.2667ZM69.1529 48.2927H71.2949C71.2949 47.8587 71.2062 47.5367 71.0289 47.3267C70.8515 47.1121 70.6112 47.0047 70.3079 47.0047C70.1632 47.0047 70.0255 47.0351 69.8949 47.0957C69.7642 47.1517 69.6452 47.2357 69.5379 47.3477C69.4352 47.4597 69.3489 47.5951 69.2789 47.7537C69.2135 47.9124 69.1715 48.0921 69.1529 48.2927ZM72.5017 50.1827V46.8227H72.7677L72.7957 47.4457H72.8167C72.9287 47.2357 73.064 47.0654 73.2227 46.9347C73.386 46.8041 73.568 46.7387 73.7687 46.7387C73.834 46.7387 73.8923 46.7434 73.9437 46.7527C73.995 46.7621 74.0487 46.7807 74.1047 46.8087L74.0347 47.0887C73.9787 47.0654 73.9297 47.0514 73.8877 47.0467C73.8457 47.0374 73.792 47.0327 73.7267 47.0327C73.5773 47.0327 73.4187 47.0981 73.2507 47.2287C73.0873 47.3547 72.9403 47.5764 72.8097 47.8937V50.1827H72.5017ZM75.5353 50.2667C75.2833 50.2667 75.0523 50.2224 74.8423 50.1337C74.6323 50.0404 74.4527 49.9307 74.3033 49.8047L74.4853 49.5737C74.63 49.6951 74.784 49.7977 74.9473 49.8817C75.1107 49.9611 75.3137 50.0007 75.5563 50.0007C75.8223 50.0007 76.0207 49.9354 76.1513 49.8047C76.2867 49.6694 76.3543 49.5131 76.3543 49.3357C76.3543 49.2331 76.3287 49.1421 76.2773 49.0627C76.2307 48.9834 76.1677 48.9157 76.0883 48.8597C76.009 48.8037 75.9203 48.7547 75.8223 48.7127C75.729 48.6707 75.6333 48.6311 75.5353 48.5937C75.4093 48.5471 75.281 48.4981 75.1503 48.4467C75.0243 48.3954 74.91 48.3347 74.8073 48.2647C74.7047 48.1901 74.6207 48.1037 74.5553 48.0057C74.4947 47.9031 74.4643 47.7794 74.4643 47.6347C74.4643 47.5134 74.4877 47.3991 74.5343 47.2917C74.581 47.1797 74.651 47.0841 74.7443 47.0047C74.8377 46.9207 74.9497 46.8554 75.0803 46.8087C75.2157 46.7621 75.372 46.7387 75.5493 46.7387C75.7267 46.7387 75.8993 46.7714 76.0673 46.8367C76.24 46.9021 76.387 46.9861 76.5083 47.0887L76.3403 47.3057C76.2283 47.2217 76.1093 47.1517 75.9833 47.0957C75.8573 47.0351 75.708 47.0047 75.5353 47.0047C75.4047 47.0047 75.2927 47.0234 75.1993 47.0607C75.106 47.0934 75.0267 47.1377 74.9613 47.1937C74.9007 47.2497 74.854 47.3151 74.8213 47.3897C74.7933 47.4644 74.7793 47.5391 74.7793 47.6137C74.7793 47.7117 74.8003 47.7957 74.8423 47.8657C74.889 47.9311 74.9497 47.9894 75.0243 48.0407C75.099 48.0921 75.183 48.1387 75.2763 48.1807C75.3743 48.2181 75.4723 48.2554 75.5703 48.2927C75.701 48.3441 75.8317 48.3954 75.9623 48.4467C76.093 48.4981 76.2097 48.5611 76.3123 48.6357C76.4197 48.7104 76.506 48.8037 76.5713 48.9157C76.6367 49.0231 76.6693 49.1584 76.6693 49.3217C76.6693 49.4477 76.6437 49.5691 76.5923 49.6857C76.5457 49.7977 76.4733 49.8981 76.3753 49.9867C76.2773 50.0707 76.1583 50.1384 76.0183 50.1897C75.8783 50.2411 75.7173 50.2667 75.5353 50.2667ZM78.9966 50.1827V45.5697H79.3186V49.9027H81.4466V50.1827H78.9966ZM82.2292 50.1827V46.8227H82.5372V50.1827H82.2292ZM82.3902 46.0107C82.3109 46.0107 82.2432 45.9851 82.1872 45.9337C82.1359 45.8824 82.1102 45.8171 82.1102 45.7377C82.1102 45.6491 82.1359 45.5814 82.1872 45.5347C82.2432 45.4834 82.3109 45.4577 82.3902 45.4577C82.4695 45.4577 82.5349 45.4834 82.5862 45.5347C82.6422 45.5814 82.6702 45.6491 82.6702 45.7377C82.6702 45.8171 82.6422 45.8824 82.5862 45.9337C82.5349 45.9851 82.4695 46.0107 82.3902 46.0107ZM83.8288 50.1827V46.8227H84.0948L84.1228 47.3407H84.1438C84.2931 47.1681 84.4588 47.0257 84.6408 46.9137C84.8275 46.7971 85.0141 46.7387 85.2008 46.7387C85.4715 46.7387 85.6791 46.8017 85.8238 46.9277C85.9685 47.0491 86.0711 47.2147 86.1318 47.4247C86.3278 47.2147 86.5168 47.0491 86.6988 46.9277C86.8855 46.8017 87.0768 46.7387 87.2728 46.7387C87.9448 46.7387 88.2808 47.1681 88.2808 48.0267V50.1827H87.9658V48.0687C87.9658 47.7094 87.9051 47.4457 87.7838 47.2777C87.6625 47.1051 87.4735 47.0187 87.2168 47.0187C86.9135 47.0187 86.5775 47.2287 86.2088 47.6487V50.1827H85.9008V48.0687C85.9008 47.7094 85.8401 47.4457 85.7188 47.2777C85.5975 47.1051 85.4061 47.0187 85.1448 47.0187C84.8415 47.0187 84.5055 47.2287 84.1368 47.6487V50.1827H83.8288ZM89.5095 50.1827V46.8227H89.8175V50.1827H89.5095ZM89.6705 46.0107C89.5911 46.0107 89.5235 45.9851 89.4675 45.9337C89.4161 45.8824 89.3905 45.8171 89.3905 45.7377C89.3905 45.6491 89.4161 45.5814 89.4675 45.5347C89.5235 45.4834 89.5911 45.4577 89.6705 45.4577C89.7498 45.4577 89.8151 45.4834 89.8665 45.5347C89.9225 45.5814 89.9505 45.6491 89.9505 45.7377C89.9505 45.8171 89.9225 45.8824 89.8665 45.9337C89.8151 45.9851 89.7498 46.0107 89.6705 46.0107ZM92.0261 50.2667C91.8628 50.2667 91.7274 50.2411 91.6201 50.1897C91.5128 50.1431 91.4264 50.0754 91.3611 49.9867C91.2958 49.8981 91.2491 49.7907 91.2211 49.6647C91.1978 49.5387 91.1861 49.4011 91.1861 49.2517V47.0887H90.6611V46.8507L91.1931 46.8227L91.2351 45.8497H91.5011V46.8227H92.4741V47.0887H91.5011V49.2797C91.5011 49.3871 91.5081 49.4851 91.5221 49.5737C91.5408 49.6577 91.5711 49.7324 91.6131 49.7977C91.6551 49.8584 91.7111 49.9074 91.7811 49.9447C91.8558 49.9774 91.9514 49.9937 92.0681 49.9937C92.1334 49.9937 92.2034 49.9844 92.2781 49.9657C92.3574 49.9424 92.4274 49.9167 92.4881 49.8887L92.5721 50.1407C92.4741 50.1781 92.3761 50.2084 92.2781 50.2317C92.1801 50.2551 92.0961 50.2667 92.0261 50.2667ZM94.4886 50.2667C94.2739 50.2667 94.0709 50.2271 93.8796 50.1477C93.6929 50.0684 93.5296 49.9541 93.3896 49.8047C93.2496 49.6507 93.1376 49.4664 93.0536 49.2517C92.9742 49.0324 92.9346 48.7851 92.9346 48.5097C92.9346 48.2344 92.9742 47.9871 93.0536 47.7677C93.1376 47.5484 93.2472 47.3641 93.3826 47.2147C93.5226 47.0607 93.6789 46.9441 93.8516 46.8647C94.0289 46.7807 94.2109 46.7387 94.3976 46.7387C94.7989 46.7387 95.1139 46.8741 95.3426 47.1447C95.5712 47.4154 95.6856 47.7981 95.6856 48.2927C95.6856 48.3347 95.6856 48.3767 95.6856 48.4187C95.6856 48.4607 95.6809 48.5027 95.6716 48.5447H93.2496C93.2542 48.7547 93.2869 48.9507 93.3476 49.1327C93.4082 49.3101 93.4922 49.4641 93.5996 49.5947C93.7116 49.7207 93.8446 49.8211 93.9986 49.8957C94.1526 49.9657 94.3252 50.0007 94.5166 50.0007C94.6986 50.0007 94.8619 49.9751 95.0066 49.9237C95.1559 49.8677 95.2936 49.7931 95.4196 49.6997L95.5456 49.9377C95.4102 50.0171 95.2609 50.0917 95.0976 50.1617C94.9389 50.2317 94.7359 50.2667 94.4886 50.2667ZM93.2496 48.2927H95.3916C95.3916 47.8587 95.3029 47.5367 95.1256 47.3267C94.9482 47.1121 94.7079 47.0047 94.4046 47.0047C94.2599 47.0047 94.1222 47.0351 93.9916 47.0957C93.8609 47.1517 93.7419 47.2357 93.6346 47.3477C93.5319 47.4597 93.4456 47.5951 93.3756 47.7537C93.3102 47.9124 93.2682 48.0921 93.2496 48.2927ZM97.7113 50.2667C97.2867 50.2667 96.9483 50.1174 96.6963 49.8187C96.4443 49.5154 96.3183 49.0791 96.3183 48.5097C96.3183 48.2391 96.358 47.9941 96.4373 47.7747C96.5167 47.5554 96.624 47.3687 96.7593 47.2147C96.8993 47.0607 97.058 46.9441 97.2353 46.8647C97.4173 46.7807 97.6087 46.7387 97.8093 46.7387C98.0147 46.7387 98.192 46.7761 98.3413 46.8507C98.4953 46.9207 98.6563 47.0211 98.8243 47.1517L98.8103 46.5357V45.1497H99.1183V50.1827H98.8523L98.8243 49.7487H98.8033C98.668 49.8841 98.507 50.0054 98.3203 50.1127C98.1383 50.2154 97.9353 50.2667 97.7113 50.2667ZM97.7533 49.9937C97.94 49.9937 98.1173 49.9471 98.2853 49.8537C98.458 49.7557 98.633 49.6181 98.8103 49.4407V47.4457C98.633 47.2871 98.465 47.1751 98.3063 47.1097C98.1523 47.0444 97.9937 47.0117 97.8303 47.0117C97.6623 47.0117 97.506 47.0514 97.3613 47.1307C97.2167 47.2054 97.0907 47.3104 96.9833 47.4457C96.8807 47.5764 96.799 47.7351 96.7383 47.9217C96.6777 48.1037 96.6473 48.2997 96.6473 48.5097C96.6473 48.7337 96.6707 48.9367 96.7173 49.1187C96.7687 49.3007 96.841 49.4571 96.9343 49.5877C97.0277 49.7137 97.142 49.8141 97.2773 49.8887C97.4173 49.9587 97.576 49.9937 97.7533 49.9937Z" fill="white"/>
<path d="M178.729 41.6008V36.9878H180.052C180.281 36.9878 180.488 37.0112 180.675 37.0578C180.862 37.0998 181.02 37.1698 181.151 37.2678C181.282 37.3658 181.382 37.4918 181.452 37.6458C181.527 37.7998 181.564 37.9865 181.564 38.2058C181.564 38.5745 181.457 38.8638 181.242 39.0738C181.032 39.2838 180.745 39.4122 180.381 39.4588L181.655 41.6008H181.284L180.031 39.4798H179.051V41.6008H178.729ZM179.051 39.2138H179.968C180.379 39.2138 180.691 39.1322 180.906 38.9688C181.125 38.8008 181.235 38.5465 181.235 38.2058C181.235 37.8605 181.125 37.6178 180.906 37.4778C180.687 37.3332 180.374 37.2608 179.968 37.2608H179.051V39.2138ZM184.175 41.6848C183.89 41.6848 183.629 41.6288 183.391 41.5168C183.153 41.4048 182.947 41.2462 182.775 41.0408C182.607 40.8308 182.476 40.5788 182.383 40.2848C182.289 39.9862 182.243 39.6525 182.243 39.2838C182.243 38.9198 182.289 38.5908 182.383 38.2968C182.481 38.0028 182.616 37.7532 182.789 37.5478C182.961 37.3378 183.167 37.1792 183.405 37.0718C183.647 36.9598 183.916 36.9038 184.21 36.9038C184.48 36.9038 184.718 36.9598 184.924 37.0718C185.129 37.1838 185.292 37.3122 185.414 37.4568L185.225 37.6738C185.099 37.5292 184.952 37.4148 184.784 37.3308C184.616 37.2422 184.427 37.1978 184.217 37.1978C183.965 37.1978 183.736 37.2468 183.531 37.3448C183.33 37.4428 183.157 37.5828 183.013 37.7648C182.873 37.9422 182.765 38.1592 182.691 38.4158C182.616 38.6725 182.579 38.9618 182.579 39.2838C182.579 39.6058 182.616 39.8975 182.691 40.1588C182.765 40.4155 182.873 40.6348 183.013 40.8168C183.153 40.9988 183.321 41.1412 183.517 41.2438C183.717 41.3418 183.941 41.3908 184.189 41.3908C184.427 41.3908 184.639 41.3442 184.826 41.2508C185.012 41.1528 185.19 41.0105 185.358 40.8238L185.547 41.0268C185.369 41.2322 185.171 41.3932 184.952 41.5098C184.732 41.6265 184.473 41.6848 184.175 41.6848ZM180.22 50.6008V49.2638H178.162V49.0818L180.241 46.1278H180.521V48.9978H181.186V49.2638H180.521V50.6008H180.22ZM178.54 48.9978H180.22V47.3598C180.22 47.2572 180.222 47.1288 180.227 46.9748C180.232 46.8208 180.239 46.6925 180.248 46.5898H180.22C180.164 46.6832 180.106 46.7742 180.045 46.8628C179.984 46.9515 179.921 47.0472 179.856 47.1498L178.54 48.9978ZM183.227 50.6848C182.774 50.6848 182.417 50.5028 182.156 50.1388C181.894 49.7748 181.764 49.2522 181.764 48.5708C181.764 48.1042 181.808 47.7098 181.897 47.3878C181.99 47.0658 182.111 46.8045 182.261 46.6038C182.415 46.4032 182.59 46.2608 182.786 46.1768C182.986 46.0882 183.194 46.0438 183.409 46.0438C183.619 46.0438 183.798 46.0835 183.948 46.1628C184.102 46.2422 184.237 46.3472 184.354 46.4778L184.165 46.6878C184.067 46.5665 183.952 46.4755 183.822 46.4148C183.691 46.3495 183.553 46.3168 183.409 46.3168C183.231 46.3168 183.061 46.3565 182.898 46.4358C182.739 46.5105 182.599 46.6342 182.478 46.8068C182.356 46.9795 182.258 47.2082 182.184 47.4928C182.114 47.7728 182.079 48.1158 182.079 48.5218C182.233 48.3305 182.405 48.1788 182.597 48.0668C182.793 47.9548 182.996 47.8988 183.206 47.8988C183.602 47.8988 183.908 48.0178 184.123 48.2558C184.342 48.4892 184.452 48.8322 184.452 49.2848C184.452 49.4902 184.419 49.6792 184.354 49.8518C184.288 50.0198 184.2 50.1668 184.088 50.2928C183.976 50.4142 183.845 50.5098 183.696 50.5798C183.551 50.6498 183.395 50.6848 183.227 50.6848ZM183.234 50.4188C183.364 50.4188 183.483 50.3908 183.591 50.3348C183.703 50.2742 183.798 50.1925 183.878 50.0898C183.957 49.9872 184.02 49.8682 184.067 49.7328C184.113 49.5928 184.137 49.4435 184.137 49.2848C184.137 49.1262 184.118 48.9792 184.081 48.8438C184.043 48.7038 183.985 48.5848 183.906 48.4868C183.831 48.3842 183.731 48.3048 183.605 48.2488C183.483 48.1928 183.339 48.1648 183.171 48.1648C183.012 48.1648 182.837 48.2162 182.646 48.3188C182.454 48.4168 182.268 48.5895 182.086 48.8368C182.1 49.0748 182.132 49.2918 182.184 49.4878C182.24 49.6792 182.314 49.8448 182.408 49.9848C182.501 50.1202 182.615 50.2275 182.751 50.3068C182.891 50.3815 183.052 50.4188 183.234 50.4188ZM186.45 50.6848C186.245 50.6848 186.056 50.6545 185.883 50.5938C185.711 50.5285 185.561 50.4422 185.435 50.3348C185.309 50.2228 185.209 50.0922 185.134 49.9428C185.064 49.7935 185.029 49.6302 185.029 49.4528C185.029 49.3035 185.055 49.1635 185.106 49.0328C185.162 48.9022 185.232 48.7855 185.316 48.6828C185.405 48.5755 185.501 48.4822 185.603 48.4028C185.711 48.3188 185.818 48.2488 185.925 48.1928V48.1648C185.841 48.1088 185.76 48.0482 185.68 47.9828C185.606 47.9128 185.538 47.8358 185.477 47.7518C185.421 47.6632 185.375 47.5698 185.337 47.4718C185.3 47.3692 185.281 47.2572 185.281 47.1358C185.281 46.9772 185.312 46.8302 185.372 46.6948C185.433 46.5595 185.515 46.4452 185.617 46.3518C185.725 46.2538 185.848 46.1792 185.988 46.1278C186.133 46.0718 186.287 46.0438 186.45 46.0438C186.642 46.0438 186.812 46.0742 186.961 46.1348C187.111 46.1908 187.237 46.2725 187.339 46.3798C187.447 46.4825 187.526 46.6062 187.577 46.7508C187.633 46.8908 187.661 47.0448 187.661 47.2128C187.661 47.3342 187.64 47.4532 187.598 47.5698C187.556 47.6818 187.503 47.7868 187.437 47.8848C187.377 47.9828 187.309 48.0715 187.234 48.1508C187.16 48.2302 187.09 48.2955 187.024 48.3468V48.3748C187.122 48.4355 187.218 48.5008 187.311 48.5708C187.405 48.6408 187.486 48.7202 187.556 48.8088C187.631 48.8975 187.692 49.0002 187.738 49.1168C187.785 49.2335 187.808 49.3665 187.808 49.5158C187.808 49.6792 187.776 49.8332 187.71 49.9778C187.645 50.1178 187.552 50.2415 187.43 50.3488C187.314 50.4515 187.171 50.5332 187.003 50.5938C186.835 50.6545 186.651 50.6848 186.45 50.6848ZM186.779 48.2558C186.971 48.1018 187.115 47.9408 187.213 47.7728C187.316 47.6002 187.367 47.4158 187.367 47.2198C187.367 47.0938 187.346 46.9772 187.304 46.8698C187.262 46.7578 187.202 46.6598 187.122 46.5758C187.048 46.4918 186.952 46.4265 186.835 46.3798C186.723 46.3285 186.595 46.3028 186.45 46.3028C186.324 46.3028 186.208 46.3238 186.1 46.3658C185.998 46.4078 185.907 46.4662 185.827 46.5408C185.753 46.6108 185.694 46.6972 185.652 46.7998C185.61 46.9025 185.589 47.0145 185.589 47.1358C185.589 47.2945 185.622 47.4322 185.687 47.5488C185.757 47.6608 185.848 47.7612 185.96 47.8498C186.072 47.9338 186.198 48.0085 186.338 48.0738C186.483 48.1392 186.63 48.1998 186.779 48.2558ZM186.45 50.4258C186.609 50.4258 186.751 50.4025 186.877 50.3558C187.008 50.3092 187.118 50.2438 187.206 50.1598C187.3 50.0758 187.37 49.9778 187.416 49.8658C187.468 49.7538 187.493 49.6348 187.493 49.5088C187.493 49.3362 187.454 49.1915 187.374 49.0748C187.3 48.9535 187.197 48.8485 187.066 48.7598C186.94 48.6665 186.796 48.5872 186.632 48.5218C186.469 48.4518 186.301 48.3818 186.128 48.3118C185.9 48.4472 185.711 48.6082 185.561 48.7948C185.412 48.9768 185.337 49.1915 185.337 49.4388C185.337 49.5788 185.365 49.7095 185.421 49.8308C185.477 49.9475 185.554 50.0502 185.652 50.1388C185.75 50.2275 185.867 50.2975 186.002 50.3488C186.138 50.4002 186.287 50.4258 186.45 50.4258ZM189.415 50.6008C189.434 50.1482 189.471 49.7352 189.527 49.3618C189.588 48.9838 189.672 48.6292 189.779 48.2978C189.886 47.9618 190.022 47.6422 190.185 47.3388C190.348 47.0308 190.542 46.7182 190.766 46.4008H188.407V46.1278H191.158V46.3098C190.892 46.6645 190.67 47.0052 190.493 47.3318C190.32 47.6585 190.18 47.9922 190.073 48.3328C189.97 48.6688 189.896 49.0212 189.849 49.3898C189.802 49.7585 189.77 50.1622 189.751 50.6008H189.415ZM192.036 50.6008V50.3278H193.086V46.6178H192.288V46.4078C192.47 46.3752 192.631 46.3355 192.771 46.2888C192.916 46.2422 193.042 46.1885 193.149 46.1278H193.401V50.3278H194.374V50.6008H192.036ZM196.471 50.6848C196.042 50.6848 195.71 50.4842 195.477 50.0828C195.248 49.6768 195.134 49.0982 195.134 48.3468C195.134 47.6002 195.248 47.0308 195.477 46.6388C195.71 46.2422 196.042 46.0438 196.471 46.0438C196.9 46.0438 197.229 46.2422 197.458 46.6388C197.691 47.0308 197.808 47.6002 197.808 48.3468C197.808 49.0982 197.691 49.6768 197.458 50.0828C197.229 50.4842 196.9 50.6848 196.471 50.6848ZM196.471 50.4188C196.784 50.4188 197.031 50.2462 197.213 49.9008C197.4 49.5508 197.493 49.0328 197.493 48.3468C197.493 47.6608 197.4 47.1498 197.213 46.8138C197.031 46.4778 196.784 46.3098 196.471 46.3098C196.163 46.3098 195.916 46.4778 195.729 46.8138C195.542 47.1498 195.449 47.6608 195.449 48.3468C195.449 49.0328 195.542 49.5508 195.729 49.9008C195.916 50.2462 196.163 50.4188 196.471 50.4188Z" fill="white"/>
</g>
<defs>
<clipPath id="clip0_3228_125">
<rect width="200" height="46.3435" fill="white"/>
</clipPath>
</defs>
</svg>
